<ttFont>
    <TTGlyph name=".notdef" xMin="65" yMin="0" xMax="535" yMax="700">
      <contour>
        <pt x="65" y="0" on="1"/>
        <pt x="65" y="700" on="1"/>
        <pt x="535" y="700" on="1"/>
        <pt x="535" y="0" on="1"/>
      </contour>
      <contour>
        <pt x="100" y="35" on="1"/>
        <pt x="500" y="35" on="1"/>
        <pt x="500" y="665" on="1"/>
        <pt x="100" y="665" on="1"/>
      </contour>
    </TTGlyph>
    <TTGlyph name="A" xMin="-19" yMin="0" xMax="673" yMax="700">
      <contour>
        <pt x="-19" y="0" on="1"/>
        <pt x="267" y="700" on="1"/>
        <pt x="388" y="700" on="1"/>
        <pt x="673" y="0" on="1"/>
        <pt x="521" y="0" on="1"/>
        <pt x="473" y="133" on="1"/>
        <pt x="181" y="133" on="1"/>
        <pt x="133" y="0" on="1"/>
      </contour>
      <contour>
        <pt x="302" y="445" on="1"/>
        <pt x="227" y="254" on="1"/>
        <pt x="427" y="254" on="1"/>
        <pt x="352" y="445" on="1"/>
        <pt x="337" y="485" on="0"/>
        <pt x="327" y="525" on="1"/>
        <pt x="317" y="482" on="0"/>
      </contour>
    </TTGlyph>
    <TTGlyph name="AE" xMin="-30" yMin="0" xMax="932" yMax="700">
      <contour>
        <pt x="-30" y="0" on="1"/>
        <pt x="442" y="700" on="1"/>
        <pt x="930" y="700" on="1"/>
        <pt x="930" y="574" on="1"/>
        <pt x="660" y="574" on="1"/>
        <pt x="660" y="417" on="1"/>
        <pt x="925" y="417" on="1"/>
        <pt x="925" y="295" on="1"/>
        <pt x="660" y="295" on="1"/>
        <pt x="660" y="126" on="1"/>
        <pt x="932" y="126" on="1"/>
        <pt x="932" y="0" on="1"/>
        <pt x="520" y="0" on="1"/>
        <pt x="520" y="139" on="1"/>
        <pt x="219" y="139" on="1"/>
        <pt x="132" y="0" on="1"/>
      </contour>
      <contour>
        <pt x="416" y="445" on="1"/>
        <pt x="284" y="249" on="1"/>
        <pt x="520" y="249" on="1"/>
        <pt x="520" y="572" on="1"/>
        <pt x="496" y="572" on="1"/>
        <pt x="481" y="540" on="0"/>
        <pt x="435" y="474" on="0"/>
      </contour>
    </TTGlyph>
    <TTGlyph name="Aacute" xMin="-19" yMin="0" xMax="673" yMax="920">
      <component glyphName="A" x="0" y="0" flags="0x204"/>
      <component glyphName="acutecomb" x="327" y="180" flags="0x4"/>
    </TTGlyph>
    <TTGlyph name="Abreve" xMin="-19" yMin="0" xMax="673" yMax="876">
      <component glyphName="A" x="0" y="0" flags="0x204"/>
      <component glyphName="uni0306" x="327" y="180" flags="0x4"/>
    </TTGlyph>
    <TTGlyph name="Acircumflex" xMin="-19" yMin="0" xMax="673" yMax="920">
      <component glyphName="A" x="0" y="0" flags="0x204"/>
      <component glyphName="uni0302" x="327" y="180" flags="0x4"/>
    </TTGlyph>
    <TTGlyph name="Adieresis" xMin="-19" yMin="0" xMax="673" yMax="902">
      <component glyphName="A" x="0" y="0" flags="0x204"/>
      <component glyphName="uni0308" x="327" y="180" flags="0x4"/>
    </TTGlyph>
    <TTGlyph name="Agrave" xMin="-19" yMin="0" xMax="673" yMax="920">
      <component glyphName="A" x="0" y="0" flags="0x204"/>
      <component glyphName="gravecomb" x="327" y="180" flags="0x4"/>
    </TTGlyph>
    <TTGlyph name="Amacron" xMin="-19" yMin="0" xMax="673" yMax="868">
      <component glyphName="A" x="0" y="0" flags="0x204"/>
      <component glyphName="uni0304" x="328" y="180" flags="0x4"/>
    </TTGlyph>
    <TTGlyph name="Aogonek" xMin="-19" yMin="-213" xMax="673" yMax="700">
      <component glyphName="A" x="0" y="0" flags="0x204"/>
      <component glyphName="uni0328" x="521" y="0" flags="0x4"/>
    </TTGlyph>
    <TTGlyph name="Aring" xMin="-19" yMin="0" xMax="673" yMax="947">
      <component glyphName="A" x="0" y="0" flags="0x204"/>
      <component glyphName="uni030A" x="327" y="180" flags="0x4"/>
    </TTGlyph>
    <TTGlyph name="Atilde" xMin="-19" yMin="0" xMax="673" yMax="891">
      <component glyphName="A" x="0" y="0" flags="0x204"/>
      <component glyphName="tildecomb" x="327" y="180" flags="0x4"/>
    </TTGlyph>
    <TTGlyph name="B" xMin="50" yMin="0" xMax="559" yMax="700">
      <contour>
        <pt x="50" y="0" on="1"/>
        <pt x="50" y="700" on="1"/>
        <pt x="286" y="700" on="1"/>
        <pt x="400" y="700" on="0"/>
        <pt x="520" y="598" on="0"/>
        <pt x="520" y="516" on="1"/>
        <pt x="520" y="466" on="0"/>
        <pt x="471" y="393" on="0"/>
        <pt x="407" y="369" on="1"/>
        <pt x="493" y="349" on="0"/>
        <pt x="559" y="258" on="0"/>
        <pt x="559" y="193" on="1"/>
        <pt x="559" y="105" on="0"/>
        <pt x="425" y="0" on="0"/>
        <pt x="311" y="0" on="1"/>
      </contour>
      <contour>
        <pt x="190" y="411" on="1"/>
        <pt x="273" y="411" on="1"/>
        <pt x="330" y="411" on="0"/>
        <pt x="378" y="452" on="0"/>
        <pt x="378" y="494" on="1"/>
        <pt x="378" y="530" on="0"/>
        <pt x="330" y="575" on="0"/>
        <pt x="273" y="575" on="1"/>
        <pt x="190" y="575" on="1"/>
      </contour>
      <contour>
        <pt x="190" y="126" on="1"/>
        <pt x="298" y="126" on="1"/>
        <pt x="355" y="126" on="0"/>
        <pt x="417" y="169" on="0"/>
        <pt x="417" y="215" on="1"/>
        <pt x="417" y="253" on="0"/>
        <pt x="355" y="297" on="0"/>
        <pt x="298" y="297" on="1"/>
        <pt x="190" y="297" on="1"/>
      </contour>
    </TTGlyph>
    <TTGlyph name="C" xMin="25" yMin="-13" xMax="655" yMax="713">
      <contour>
        <pt x="390" y="-13" on="1"/>
        <pt x="312" y="-13" on="0"/>
        <pt x="179" y="43" on="0"/>
        <pt x="80" y="143" on="0"/>
        <pt x="25" y="274" on="0"/>
        <pt x="25" y="349" on="1"/>
        <pt x="25" y="424" on="0"/>
        <pt x="78" y="556" on="0"/>
        <pt x="175" y="656" on="0"/>
        <pt x="309" y="713" on="0"/>
        <pt x="390" y="713" on="1"/>
        <pt x="476" y="713" on="0"/>
        <pt x="599" y="659" on="0"/>
        <pt x="646" y="603" on="1"/>
        <pt x="547" y="517" on="1"/>
        <pt x="484" y="583" on="0"/>
        <pt x="390" y="583" on="1"/>
        <pt x="323" y="583" on="0"/>
        <pt x="224" y="519" on="0"/>
        <pt x="170" y="413" on="0"/>
        <pt x="170" y="349" on="1"/>
        <pt x="170" y="285" on="0"/>
        <pt x="224" y="180" on="0"/>
        <pt x="324" y="117" on="0"/>
        <pt x="393" y="117" on="1"/>
        <pt x="444" y="117" on="0"/>
        <pt x="522" y="151" on="0"/>
        <pt x="553" y="185" on="1"/>
        <pt x="655" y="98" on="1"/>
        <pt x="615" y="50" on="0"/>
        <pt x="482" y="-13" on="0"/>
      </contour>
    </TTGlyph>
    <TTGlyph name="C.ss01" xMin="25" yMin="-13" xMax="548" yMax="713">
      <contour>
        <pt x="388" y="-13" on="1"/>
        <pt x="310" y="-13" on="0"/>
        <pt x="178" y="43" on="0"/>
        <pt x="79" y="143" on="0"/>
        <pt x="25" y="274" on="0"/>
        <pt x="25" y="349" on="1"/>
        <pt x="25" y="424" on="0"/>
        <pt x="77" y="556" on="0"/>
        <pt x="174" y="656" on="0"/>
        <pt x="307" y="713" on="0"/>
        <pt x="388" y="713" on="1"/>
        <pt x="434" y="713" on="0"/>
        <pt x="517" y="693" on="0"/>
        <pt x="547" y="673" on="1"/>
        <pt x="547" y="517" on="1"/>
        <pt x="515" y="552" on="0"/>
        <pt x="435" y="583" on="0"/>
        <pt x="388" y="583" on="1"/>
        <pt x="319" y="583" on="0"/>
        <pt x="221" y="519" on="0"/>
        <pt x="170" y="412" on="0"/>
        <pt x="170" y="349" on="1"/>
        <pt x="170" y="285" on="0"/>
        <pt x="224" y="180" on="0"/>
        <pt x="323" y="118" on="0"/>
        <pt x="390" y="118" on="1"/>
        <pt x="437" y="118" on="0"/>
        <pt x="515" y="143" on="0"/>
        <pt x="548" y="171" on="1"/>
        <pt x="537" y="19" on="1"/>
        <pt x="503" y="1" on="0"/>
        <pt x="429" y="-13" on="0"/>
      </contour>
    </TTGlyph>
    <TTGlyph name="Cacute" xMin="25" yMin="-13" xMax="655" yMax="920">
      <component glyphName="C" x="0" y="0" flags="0x204"/>
      <component glyphName="acutecomb" x="390" y="180" flags="0x4"/>
    </TTGlyph>
    <TTGlyph name="Cacute.ss01" xMin="25" yMin="-13" xMax="548" yMax="920">
      <component glyphName="C.ss01" x="0" y="0" flags="0x204"/>
      <component glyphName="acutecomb" x="380" y="180" flags="0x4"/>
    </TTGlyph>
    <TTGlyph name="Ccaron" xMin="25" yMin="-13" xMax="655" yMax="920">
      <component glyphName="C" x="0" y="0" flags="0x204"/>
      <component glyphName="uni030C" x="390" y="180" flags="0x4"/>
    </TTGlyph>
    <TTGlyph name="Ccaron.ss01" xMin="25" yMin="-13" xMax="548" yMax="920">
      <component glyphName="C.ss01" x="0" y="0" flags="0x204"/>
      <component glyphName="uni030C" x="380" y="180" flags="0x4"/>
    </TTGlyph>
    <TTGlyph name="Ccedilla" xMin="25" yMin="-213" xMax="655" yMax="713">
      <component glyphName="C" x="0" y="0" flags="0x204"/>
      <component glyphName="uni0327" x="391" y="0" flags="0x4"/>
    </TTGlyph>
    <TTGlyph name="Ccedilla.ss01" xMin="25" yMin="-213" xMax="548" yMax="713">
      <component glyphName="C.ss01" x="0" y="0" flags="0x204"/>
      <component glyphName="uni0327" x="391" y="0" flags="0x4"/>
    </TTGlyph>
    <TTGlyph name="Ccircumflex" xMin="25" yMin="-13" xMax="655" yMax="920">
      <component glyphName="C" x="0" y="0" flags="0x204"/>
      <component glyphName="uni0302" x="390" y="180" flags="0x4"/>
    </TTGlyph>
    <TTGlyph name="Cdotaccent" xMin="25" yMin="-13" xMax="655" yMax="902">
      <component glyphName="C" x="0" y="0" flags="0x204"/>
      <component glyphName="uni0307" x="390" y="180" flags="0x4"/>
    </TTGlyph>
    <TTGlyph name="Cdotaccent.ss01" xMin="25" yMin="-13" xMax="548" yMax="902">
      <component glyphName="C.ss01" x="0" y="0" flags="0x204"/>
      <component glyphName="uni0307" x="380" y="180" flags="0x4"/>
    </TTGlyph>
    <TTGlyph name="D" xMin="50" yMin="0" xMax="659" yMax="700">
      <contour>
        <pt x="50" y="0" on="1"/>
        <pt x="50" y="700" on="1"/>
        <pt x="300" y="700" on="1"/>
        <pt x="421" y="700" on="0"/>
        <pt x="580" y="608" on="0"/>
        <pt x="659" y="450" on="0"/>
        <pt x="659" y="349" on="1"/>
        <pt x="659" y="249" on="0"/>
        <pt x="580" y="91" on="0"/>
        <pt x="421" y="0" on="0"/>
        <pt x="300" y="0" on="1"/>
      </contour>
      <contour>
        <pt x="283" y="574" on="1"/>
        <pt x="190" y="574" on="1"/>
        <pt x="190" y="126" on="1"/>
        <pt x="283" y="126" on="1"/>
        <pt x="366" y="126" on="0"/>
        <pt x="468" y="185" on="0"/>
        <pt x="514" y="286" on="0"/>
        <pt x="514" y="349" on="1"/>
        <pt x="514" y="413" on="0"/>
        <pt x="468" y="514" on="0"/>
        <pt x="366" y="574" on="0"/>
      </contour>
    </TTGlyph>
    <TTGlyph name="Dcaron" xMin="50" yMin="0" xMax="659" yMax="920">
      <component glyphName="D" x="0" y="0" flags="0x204"/>
      <component glyphName="uni030C" x="327" y="180" flags="0x4"/>
    </TTGlyph>
    <TTGlyph name="Dcroat" xMin="4" yMin="0" xMax="707" yMax="700">
      <component glyphName="D" x="48" y="0" flags="0x4"/>
      <component glyphName="uni0335" x="195" y="0" flags="0x4"/>
    </TTGlyph>
    <TTGlyph name="E" xMin="50" yMin="0" xMax="462" yMax="700">
      <contour>
        <pt x="50" y="0" on="1"/>
        <pt x="50" y="700" on="1"/>
        <pt x="460" y="700" on="1"/>
        <pt x="460" y="574" on="1"/>
        <pt x="190" y="574" on="1"/>
        <pt x="190" y="417" on="1"/>
        <pt x="455" y="417" on="1"/>
        <pt x="455" y="295" on="1"/>
        <pt x="190" y="295" on="1"/>
        <pt x="190" y="126" on="1"/>
        <pt x="462" y="126" on="1"/>
        <pt x="462" y="0" on="1"/>
      </contour>
    </TTGlyph>
    <TTGlyph name="Eacute" xMin="50" yMin="0" xMax="462" yMax="920">
      <component glyphName="E" x="0" y="0" flags="0x204"/>
      <component glyphName="acutecomb" x="260" y="180" flags="0x4"/>
    </TTGlyph>
    <TTGlyph name="Ecaron" xMin="50" yMin="0" xMax="462" yMax="920">
      <component glyphName="E" x="0" y="0" flags="0x204"/>
      <component glyphName="uni030C" x="260" y="180" flags="0x4"/>
    </TTGlyph>
    <TTGlyph name="Ecircumflex" xMin="50" yMin="0" xMax="462" yMax="920">
      <component glyphName="E" x="0" y="0" flags="0x204"/>
      <component glyphName="uni0302" x="260" y="180" flags="0x4"/>
    </TTGlyph>
    <TTGlyph name="Edieresis" xMin="50" yMin="0" xMax="462" yMax="902">
      <component glyphName="E" x="0" y="0" flags="0x204"/>
      <component glyphName="uni0308" x="260" y="180" flags="0x4"/>
    </TTGlyph>
    <TTGlyph name="Edotaccent" xMin="50" yMin="0" xMax="462" yMax="902">
      <component glyphName="E" x="0" y="0" flags="0x204"/>
      <component glyphName="uni0307" x="260" y="180" flags="0x4"/>
    </TTGlyph>
    <TTGlyph name="Egrave" xMin="50" yMin="0" xMax="462" yMax="920">
      <component glyphName="E" x="0" y="0" flags="0x204"/>
      <component glyphName="gravecomb" x="260" y="180" flags="0x4"/>
    </TTGlyph>
    <TTGlyph name="Emacron" xMin="50" yMin="0" xMax="462" yMax="868">
      <component glyphName="E" x="0" y="0" flags="0x204"/>
      <component glyphName="uni0304" x="261" y="180" flags="0x4"/>
    </TTGlyph>
    <TTGlyph name="Eng" xMin="50" yMin="-200" xMax="666" yMax="700">
      <contour>
        <pt x="50" y="0" on="1"/>
        <pt x="50" y="700" on="1"/>
        <pt x="156" y="700" on="1"/>
        <pt x="497" y="295" on="1"/>
        <pt x="509" y="281" on="0"/>
        <pt x="532" y="252" on="0"/>
        <pt x="543" y="237" on="1"/>
        <pt x="540" y="259" on="0"/>
        <pt x="538" y="320" on="0"/>
        <pt x="538" y="351" on="1"/>
        <pt x="538" y="700" on="1"/>
        <pt x="666" y="700" on="1"/>
        <pt x="666" y="-39" on="1"/>
        <pt x="666" y="-124" on="0"/>
        <pt x="584" y="-200" on="0"/>
        <pt x="507" y="-200" on="1"/>
        <pt x="463" y="-200" on="1"/>
        <pt x="463" y="-80" on="1"/>
        <pt x="503" y="-80" on="1"/>
        <pt x="545" y="-80" on="0"/>
        <pt x="545" y="-32" on="1"/>
        <pt x="545" y="36" on="1"/>
        <pt x="221" y="421" on="1"/>
        <pt x="209" y="435" on="0"/>
        <pt x="186" y="464" on="0"/>
        <pt x="175" y="479" on="1"/>
        <pt x="178" y="457" on="0"/>
        <pt x="180" y="396" on="0"/>
        <pt x="180" y="365" on="1"/>
        <pt x="180" y="0" on="1"/>
      </contour>
    </TTGlyph>
    <TTGlyph name="Eogonek" xMin="50" yMin="-213" xMax="483" yMax="700">
      <component glyphName="E" x="0" y="0" flags="0x204"/>
      <component glyphName="uni0328" x="359" y="0" flags="0x4"/>
    </TTGlyph>
    <TTGlyph name="Eth" xMin="4" yMin="0" xMax="707" yMax="700">
      <component glyphName="D" x="48" y="0" flags="0x4"/>
      <component glyphName="uni0335" x="195" y="0" flags="0x4"/>
    </TTGlyph>
    <TTGlyph name="Euro" xMin="-56" yMin="-13" xMax="660" yMax="713">
      <contour>
        <pt x="-52" y="237" on="1"/>
        <pt x="6" y="322" on="1"/>
        <pt x="46" y="322" on="1"/>
        <pt x="45" y="335" on="0"/>
        <pt x="45" y="349" on="1"/>
        <pt x="45" y="364" on="0"/>
        <pt x="46" y="378" on="1"/>
        <pt x="-56" y="378" on="1"/>
        <pt x="3" y="463" on="1"/>
        <pt x="61" y="463" on="1"/>
        <pt x="82" y="536" on="0"/>
        <pt x="176" y="648" on="0"/>
        <pt x="313" y="713" on="0"/>
        <pt x="400" y="713" on="1"/>
        <pt x="486" y="713" on="0"/>
        <pt x="602" y="662" on="0"/>
        <pt x="642" y="613" on="1"/>
        <pt x="562" y="517" on="1"/>
        <pt x="531" y="550" on="0"/>
        <pt x="447" y="583" on="0"/>
        <pt x="400" y="583" on="1"/>
        <pt x="335" y="583" on="0"/>
        <pt x="240" y="516" on="0"/>
        <pt x="215" y="463" on="1"/>
        <pt x="537" y="463" on="1"/>
        <pt x="479" y="378" on="1"/>
        <pt x="189" y="378" on="1"/>
        <pt x="186" y="351" on="0"/>
        <pt x="190" y="322" on="1"/>
        <pt x="444" y="322" on="1"/>
        <pt x="387" y="237" on="1"/>
        <pt x="214" y="237" on="1"/>
        <pt x="239" y="184" on="0"/>
        <pt x="337" y="117" on="0"/>
        <pt x="403" y="117" on="1"/>
        <pt x="454" y="117" on="0"/>
        <pt x="517" y="151" on="0"/>
        <pt x="548" y="185" on="1"/>
        <pt x="660" y="98" on="1"/>
        <pt x="620" y="50" on="0"/>
        <pt x="492" y="-13" on="0"/>
        <pt x="400" y="-13" on="1"/>
        <pt x="316" y="-13" on="0"/>
        <pt x="179" y="52" on="0"/>
        <pt x="83" y="164" on="0"/>
        <pt x="61" y="237" on="1"/>
      </contour>
    </TTGlyph>
    <TTGlyph name="Euro.ss01" xMin="25" yMin="-13" xMax="548" yMax="713">
      <contour>
        <pt x="388" y="-13" on="1"/>
        <pt x="310" y="-13" on="0"/>
        <pt x="178" y="43" on="0"/>
        <pt x="79" y="143" on="0"/>
        <pt x="25" y="274" on="0"/>
        <pt x="25" y="349" on="1"/>
        <pt x="25" y="424" on="0"/>
        <pt x="77" y="556" on="0"/>
        <pt x="174" y="656" on="0"/>
        <pt x="307" y="713" on="0"/>
        <pt x="388" y="713" on="1"/>
        <pt x="434" y="713" on="0"/>
        <pt x="517" y="693" on="0"/>
        <pt x="547" y="673" on="1"/>
        <pt x="547" y="517" on="1"/>
        <pt x="515" y="552" on="0"/>
        <pt x="435" y="583" on="0"/>
        <pt x="388" y="583" on="1"/>
        <pt x="318" y="583" on="0"/>
        <pt x="220" y="517" on="0"/>
        <pt x="195" y="464" on="1"/>
        <pt x="480" y="464" on="1"/>
        <pt x="480" y="378" on="1"/>
        <pt x="167" y="378" on="1"/>
        <pt x="165" y="351" on="0"/>
        <pt x="168" y="323" on="1"/>
        <pt x="480" y="323" on="1"/>
        <pt x="480" y="237" on="1"/>
        <pt x="195" y="237" on="1"/>
        <pt x="221" y="184" on="0"/>
        <pt x="321" y="118" on="0"/>
        <pt x="390" y="118" on="1"/>
        <pt x="437" y="118" on="0"/>
        <pt x="515" y="143" on="0"/>
        <pt x="548" y="171" on="1"/>
        <pt x="537" y="19" on="1"/>
        <pt x="503" y="1" on="0"/>
        <pt x="429" y="-13" on="0"/>
      </contour>
    </TTGlyph>
    <TTGlyph name="Euro.ss01.tf" xMin="34" yMin="-13" xMax="557" yMax="713">
      <component glyphName="Euro.ss01" x="9" y="0" flags="0x4"/>
    </TTGlyph>
    <TTGlyph name="Euro.tf" xMin="-56" yMin="-13" xMax="660" yMax="713">
      <component glyphName="Euro" x="0" y="0" flags="0x4"/>
    </TTGlyph>
    <TTGlyph name="F" xMin="50" yMin="0" xMax="461" yMax="700">
      <contour>
        <pt x="50" y="0" on="1"/>
        <pt x="50" y="700" on="1"/>
        <pt x="461" y="700" on="1"/>
        <pt x="461" y="574" on="1"/>
        <pt x="190" y="574" on="1"/>
        <pt x="190" y="410" on="1"/>
        <pt x="456" y="410" on="1"/>
        <pt x="456" y="286" on="1"/>
        <pt x="190" y="286" on="1"/>
        <pt x="190" y="0" on="1"/>
      </contour>
    </TTGlyph>
    <TTGlyph name="G" xMin="25" yMin="-13" xMax="727" yMax="713">
      <contour>
        <pt x="390" y="-13" on="1"/>
        <pt x="312" y="-13" on="0"/>
        <pt x="179" y="43" on="0"/>
        <pt x="80" y="143" on="0"/>
        <pt x="25" y="274" on="0"/>
        <pt x="25" y="349" on="1"/>
        <pt x="25" y="424" on="0"/>
        <pt x="80" y="556" on="0"/>
        <pt x="179" y="656" on="0"/>
        <pt x="312" y="713" on="0"/>
        <pt x="390" y="713" on="1"/>
        <pt x="479" y="713" on="0"/>
        <pt x="604" y="656" on="0"/>
        <pt x="647" y="603" on="1"/>
        <pt x="547" y="517" on="1"/>
        <pt x="519" y="548" on="0"/>
        <pt x="439" y="583" on="0"/>
        <pt x="390" y="583" on="1"/>
        <pt x="323" y="583" on="0"/>
        <pt x="224" y="519" on="0"/>
        <pt x="170" y="413" on="0"/>
        <pt x="170" y="349" on="1"/>
        <pt x="170" y="285" on="0"/>
        <pt x="224" y="179" on="0"/>
        <pt x="323" y="115" on="0"/>
        <pt x="390" y="115" on="1"/>
        <pt x="473" y="115" on="0"/>
        <pt x="575" y="194" on="0"/>
        <pt x="587" y="276" on="1"/>
        <pt x="357" y="274" on="1"/>
        <pt x="357" y="400" on="1"/>
        <pt x="722" y="400" on="1"/>
        <pt x="724" y="384" on="0"/>
        <pt x="727" y="339" on="0"/>
        <pt x="727" y="322" on="1"/>
        <pt x="727" y="225" on="0"/>
        <pt x="646" y="74" on="0"/>
        <pt x="495" y="-13" on="0"/>
      </contour>
    </TTGlyph>
    <TTGlyph name="Gbreve" xMin="25" yMin="-13" xMax="727" yMax="876">
      <component glyphName="G" x="0" y="0" flags="0x204"/>
      <component glyphName="uni0306" x="390" y="180" flags="0x4"/>
    </TTGlyph>
    <TTGlyph name="Gcircumflex" xMin="25" yMin="-13" xMax="727" yMax="920">
      <component glyphName="G" x="0" y="0" flags="0x204"/>
      <component glyphName="uni0302" x="390" y="180" flags="0x4"/>
    </TTGlyph>
    <TTGlyph name="Gdotaccent" xMin="25" yMin="-13" xMax="727" yMax="902">
      <component glyphName="G" x="0" y="0" flags="0x204"/>
      <component glyphName="uni0307" x="390" y="180" flags="0x4"/>
    </TTGlyph>
    <TTGlyph name="H" xMin="50" yMin="0" xMax="620" yMax="700">
      <contour>
        <pt x="50" y="0" on="1"/>
        <pt x="50" y="700" on="1"/>
        <pt x="190" y="700" on="1"/>
        <pt x="190" y="418" on="1"/>
        <pt x="480" y="418" on="1"/>
        <pt x="480" y="700" on="1"/>
        <pt x="620" y="700" on="1"/>
        <pt x="620" y="0" on="1"/>
        <pt x="480" y="0" on="1"/>
        <pt x="480" y="292" on="1"/>
        <pt x="190" y="292" on="1"/>
        <pt x="190" y="0" on="1"/>
      </contour>
    </TTGlyph>
    <TTGlyph name="Hbar" xMin="4" yMin="0" xMax="666" yMax="700">
      <contour>
        <pt x="50" y="0" on="1"/>
        <pt x="50" y="511" on="1"/>
        <pt x="4" y="511" on="1"/>
        <pt x="4" y="605" on="1"/>
        <pt x="50" y="605" on="1"/>
        <pt x="50" y="700" on="1"/>
        <pt x="190" y="700" on="1"/>
        <pt x="190" y="605" on="1"/>
        <pt x="480" y="605" on="1"/>
        <pt x="480" y="700" on="1"/>
        <pt x="620" y="700" on="1"/>
        <pt x="620" y="605" on="1"/>
        <pt x="666" y="605" on="1"/>
        <pt x="666" y="511" on="1"/>
        <pt x="620" y="511" on="1"/>
        <pt x="620" y="0" on="1"/>
        <pt x="480" y="0" on="1"/>
        <pt x="480" y="292" on="1"/>
        <pt x="190" y="292" on="1"/>
        <pt x="190" y="0" on="1"/>
      </contour>
      <contour>
        <pt x="190" y="418" on="1"/>
        <pt x="480" y="418" on="1"/>
        <pt x="480" y="511" on="1"/>
        <pt x="190" y="511" on="1"/>
      </contour>
    </TTGlyph>
    <TTGlyph name="Hcircumflex" xMin="50" yMin="0" xMax="620" yMax="920">
      <component glyphName="H" x="0" y="0" flags="0x204"/>
      <component glyphName="uni0302" x="335" y="180" flags="0x4"/>
    </TTGlyph>
    <TTGlyph name="I" xMin="50" yMin="0" xMax="190" yMax="700">
      <contour>
        <pt x="50" y="0" on="1"/>
        <pt x="50" y="700" on="1"/>
        <pt x="190" y="700" on="1"/>
        <pt x="190" y="0" on="1"/>
      </contour>
    </TTGlyph>
    <TTGlyph name="IJ" xMin="50" yMin="-11" xMax="581" yMax="700">
      <component glyphName="I" x="0" y="0" flags="0x4"/>
      <component glyphName="J" x="240" y="0" flags="0x4"/>
    </TTGlyph>
    <TTGlyph name="Iacute" xMin="50" yMin="0" xMax="253" yMax="920">
      <component glyphName="I" x="0" y="0" flags="0x204"/>
      <component glyphName="acutecomb" x="120" y="180" flags="0x4"/>
    </TTGlyph>
    <TTGlyph name="Icircumflex" xMin="-35" yMin="0" xMax="273" yMax="920">
      <component glyphName="I" x="0" y="0" flags="0x204"/>
      <component glyphName="uni0302" x="120" y="180" flags="0x4"/>
    </TTGlyph>
    <TTGlyph name="Idieresis" xMin="-67" yMin="0" xMax="307" yMax="902">
      <component glyphName="I" x="0" y="0" flags="0x204"/>
      <component glyphName="uni0308" x="120" y="180" flags="0x4"/>
    </TTGlyph>
    <TTGlyph name="Idotaccent" xMin="39" yMin="0" xMax="201" yMax="902">
      <component glyphName="I" x="0" y="0" flags="0x204"/>
      <component glyphName="uni0307" x="120" y="180" flags="0x4"/>
    </TTGlyph>
    <TTGlyph name="Igrave" xMin="-22" yMin="0" xMax="190" yMax="920">
      <component glyphName="I" x="0" y="0" flags="0x204"/>
      <component glyphName="gravecomb" x="120" y="180" flags="0x4"/>
    </TTGlyph>
    <TTGlyph name="Imacron" xMin="-32" yMin="0" xMax="274" yMax="868">
      <component glyphName="I" x="0" y="0" flags="0x204"/>
      <component glyphName="uni0304" x="121" y="180" flags="0x4"/>
    </TTGlyph>
    <TTGlyph name="Iogonek" xMin="34" yMin="-213" xMax="210" yMax="700">
      <contour>
        <pt x="50" y="0" on="1"/>
        <pt x="50" y="700" on="1"/>
        <pt x="190" y="700" on="1"/>
        <pt x="190" y="0" on="1"/>
        <pt x="190" y="0" on="1"/>
        <pt x="144" y="-37" on="1"/>
        <pt x="130" y="-48" on="0"/>
        <pt x="119" y="-71" on="0"/>
        <pt x="119" y="-83" on="1"/>
        <pt x="119" y="-102" on="0"/>
        <pt x="147" y="-119" on="0"/>
        <pt x="165" y="-119" on="1"/>
        <pt x="173" y="-119" on="0"/>
        <pt x="183" y="-116" on="0"/>
        <pt x="188" y="-115" on="1"/>
        <pt x="210" y="-202" on="1"/>
        <pt x="191" y="-208" on="0"/>
        <pt x="157" y="-213" on="0"/>
        <pt x="142" y="-213" on="1"/>
        <pt x="91" y="-213" on="0"/>
        <pt x="34" y="-156" on="0"/>
        <pt x="34" y="-110" on="1"/>
        <pt x="34" y="-78" on="0"/>
        <pt x="62" y="-29" on="0"/>
        <pt x="98" y="0" on="1"/>
      </contour>
    </TTGlyph>
    <TTGlyph name="Itilde" xMin="-82" yMin="0" xMax="322" yMax="891">
      <component glyphName="I" x="0" y="0" flags="0x204"/>
      <component glyphName="tildecomb" x="120" y="180" flags="0x4"/>
    </TTGlyph>
    <TTGlyph name="J" xMin="2" yMin="-11" xMax="341" yMax="700">
      <contour>
        <pt x="138" y="-11" on="1"/>
        <pt x="97" y="-11" on="0"/>
        <pt x="23" y="3" on="0"/>
        <pt x="2" y="16" on="1"/>
        <pt x="55" y="131" on="1"/>
        <pt x="77" y="115" on="0"/>
        <pt x="119" y="115" on="1"/>
        <pt x="154" y="115" on="0"/>
        <pt x="201" y="150" on="0"/>
        <pt x="201" y="191" on="1"/>
        <pt x="201" y="700" on="1"/>
        <pt x="341" y="700" on="1"/>
        <pt x="341" y="186" on="1"/>
        <pt x="341" y="118" on="0"/>
        <pt x="288" y="31" on="0"/>
        <pt x="197" y="-11" on="0"/>
      </contour>
    </TTGlyph>
    <TTGlyph name="Jcircumflex" xMin="2" yMin="-11" xMax="424" yMax="920">
      <component glyphName="J" x="0" y="0" flags="0x204"/>
      <component glyphName="uni0302" x="271" y="180" flags="0x4"/>
    </TTGlyph>
    <TTGlyph name="K" xMin="50" yMin="0" xMax="611" yMax="700">
      <contour>
        <pt x="50" y="0" on="1"/>
        <pt x="50" y="700" on="1"/>
        <pt x="190" y="700" on="1"/>
        <pt x="190" y="411" on="1"/>
        <pt x="408" y="700" on="1"/>
        <pt x="591" y="700" on="1"/>
        <pt x="320" y="372" on="1"/>
        <pt x="611" y="0" on="1"/>
        <pt x="432" y="0" on="1"/>
        <pt x="190" y="309" on="1"/>
        <pt x="190" y="0" on="1"/>
      </contour>
    </TTGlyph>
    <TTGlyph name="L" xMin="50" yMin="0" xMax="451" yMax="700">
      <contour>
        <pt x="50" y="0" on="1"/>
        <pt x="50" y="700" on="1"/>
        <pt x="190" y="700" on="1"/>
        <pt x="190" y="126" on="1"/>
        <pt x="451" y="126" on="1"/>
        <pt x="451" y="0" on="1"/>
      </contour>
    </TTGlyph>
    <TTGlyph name="Lacute" xMin="50" yMin="0" xMax="451" yMax="920">
      <component glyphName="L" x="0" y="0" flags="0x204"/>
      <component glyphName="acutecomb" x="116" y="180" flags="0x4"/>
    </TTGlyph>
    <TTGlyph name="Lcaron" xMin="50" yMin="0" xMax="451" yMax="700">
      <component glyphName="L" x="0" y="0" flags="0x204"/>
      <component glyphName="uni030C.alt" x="241" y="0" flags="0x4"/>
    </TTGlyph>
    <TTGlyph name="Lslash" xMin="-24" yMin="0" xMax="451" yMax="700">
      <contour>
        <pt x="50" y="0" on="1"/>
        <pt x="50" y="247" on="1"/>
        <pt x="-24" y="195" on="1"/>
        <pt x="-24" y="321" on="1"/>
        <pt x="50" y="373" on="1"/>
        <pt x="50" y="700" on="1"/>
        <pt x="190" y="700" on="1"/>
        <pt x="190" y="458" on="1"/>
        <pt x="283" y="528" on="1"/>
        <pt x="283" y="395" on="1"/>
        <pt x="190" y="330" on="1"/>
        <pt x="190" y="126" on="1"/>
        <pt x="451" y="126" on="1"/>
        <pt x="451" y="0" on="1"/>
      </contour>
    </TTGlyph>
    <TTGlyph name="M" xMin="50" yMin="0" xMax="838" yMax="700">
      <contour>
        <pt x="50" y="0" on="1"/>
        <pt x="50" y="700" on="1"/>
        <pt x="224" y="700" on="1"/>
        <pt x="369" y="391" on="1"/>
        <pt x="394" y="337" on="0"/>
        <pt x="425" y="267" on="0"/>
        <pt x="442" y="221" on="0"/>
        <pt x="447" y="204" on="1"/>
        <pt x="452" y="221" on="0"/>
        <pt x="468" y="267" on="0"/>
        <pt x="499" y="337" on="0"/>
        <pt x="524" y="391" on="1"/>
        <pt x="670" y="700" on="1"/>
        <pt x="838" y="700" on="1"/>
        <pt x="838" y="0" on="1"/>
        <pt x="701" y="0" on="1"/>
        <pt x="701" y="283" on="1"/>
        <pt x="701" y="331" on="0"/>
        <pt x="703" y="399" on="0"/>
        <pt x="707" y="456" on="0"/>
        <pt x="711" y="486" on="1"/>
        <pt x="478" y="0" on="1"/>
        <pt x="410" y="0" on="1"/>
        <pt x="177" y="486" on="1"/>
        <pt x="181" y="456" on="0"/>
        <pt x="185" y="399" on="0"/>
        <pt x="187" y="331" on="0"/>
        <pt x="187" y="283" on="1"/>
        <pt x="187" y="0" on="1"/>
      </contour>
    </TTGlyph>
    <TTGlyph name="N" xMin="50" yMin="0" xMax="666" yMax="700">
      <contour>
        <pt x="50" y="0" on="1"/>
        <pt x="50" y="700" on="1"/>
        <pt x="156" y="700" on="1"/>
        <pt x="497" y="295" on="1"/>
        <pt x="509" y="281" on="0"/>
        <pt x="532" y="252" on="0"/>
        <pt x="543" y="237" on="1"/>
        <pt x="540" y="259" on="0"/>
        <pt x="538" y="320" on="0"/>
        <pt x="538" y="351" on="1"/>
        <pt x="538" y="700" on="1"/>
        <pt x="666" y="700" on="1"/>
        <pt x="666" y="0" on="1"/>
        <pt x="575" y="0" on="1"/>
        <pt x="221" y="421" on="1"/>
        <pt x="209" y="435" on="0"/>
        <pt x="186" y="464" on="0"/>
        <pt x="175" y="479" on="1"/>
        <pt x="178" y="457" on="0"/>
        <pt x="180" y="396" on="0"/>
        <pt x="180" y="365" on="1"/>
        <pt x="180" y="0" on="1"/>
      </contour>
    </TTGlyph>
    <TTGlyph name="Nacute" xMin="50" yMin="0" xMax="666" yMax="920">
      <component glyphName="N" x="0" y="0" flags="0x204"/>
      <component glyphName="acutecomb" x="376" y="180" flags="0x4"/>
    </TTGlyph>
    <TTGlyph name="Ncaron" xMin="50" yMin="0" xMax="666" yMax="920">
      <component glyphName="N" x="0" y="0" flags="0x204"/>
      <component glyphName="uni030C" x="376" y="180" flags="0x4"/>
    </TTGlyph>
    <TTGlyph name="Ntilde" xMin="50" yMin="0" xMax="666" yMax="891">
      <component glyphName="N" x="0" y="0" flags="0x204"/>
      <component glyphName="tildecomb" x="376" y="180" flags="0x4"/>
    </TTGlyph>
    <TTGlyph name="O" xMin="25" yMin="-13" xMax="753" yMax="713">
      <contour>
        <pt x="390" y="-13" on="1"/>
        <pt x="312" y="-13" on="0"/>
        <pt x="179" y="43" on="0"/>
        <pt x="80" y="143" on="0"/>
        <pt x="25" y="274" on="0"/>
        <pt x="25" y="349" on="1"/>
        <pt x="25" y="424" on="0"/>
        <pt x="80" y="556" on="0"/>
        <pt x="179" y="656" on="0"/>
        <pt x="312" y="713" on="0"/>
        <pt x="390" y="713" on="1"/>
        <pt x="468" y="713" on="0"/>
        <pt x="600" y="656" on="0"/>
        <pt x="698" y="556" on="0"/>
        <pt x="753" y="424" on="0"/>
        <pt x="753" y="349" on="1"/>
        <pt x="753" y="274" on="0"/>
        <pt x="698" y="143" on="0"/>
        <pt x="600" y="43" on="0"/>
        <pt x="468" y="-13" on="0"/>
      </contour>
      <contour>
        <pt x="390" y="117" on="1"/>
        <pt x="458" y="117" on="0"/>
        <pt x="555" y="180" on="0"/>
        <pt x="608" y="286" on="0"/>
        <pt x="608" y="349" on="1"/>
        <pt x="608" y="413" on="0"/>
        <pt x="555" y="519" on="0"/>
        <pt x="458" y="583" on="0"/>
        <pt x="390" y="583" on="1"/>
        <pt x="322" y="583" on="0"/>
        <pt x="223" y="519" on="0"/>
        <pt x="170" y="413" on="0"/>
        <pt x="170" y="349" on="1"/>
        <pt x="170" y="286" on="0"/>
        <pt x="223" y="180" on="0"/>
        <pt x="322" y="117" on="0"/>
      </contour>
    </TTGlyph>
    <TTGlyph name="OE" xMin="25" yMin="-13" xMax="993" yMax="713">
      <contour>
        <pt x="380" y="-13" on="1"/>
        <pt x="306" y="-13" on="0"/>
        <pt x="177" y="43" on="0"/>
        <pt x="80" y="143" on="0"/>
        <pt x="25" y="274" on="0"/>
        <pt x="25" y="349" on="1"/>
        <pt x="25" y="424" on="0"/>
        <pt x="80" y="556" on="0"/>
        <pt x="177" y="656" on="0"/>
        <pt x="306" y="713" on="0"/>
        <pt x="380" y="713" on="1"/>
        <pt x="458" y="713" on="0"/>
        <pt x="569" y="660" on="0"/>
        <pt x="605" y="614" on="1"/>
        <pt x="605" y="700" on="1"/>
        <pt x="991" y="700" on="1"/>
        <pt x="991" y="574" on="1"/>
        <pt x="721" y="574" on="1"/>
        <pt x="721" y="417" on="1"/>
        <pt x="986" y="417" on="1"/>
        <pt x="986" y="295" on="1"/>
        <pt x="721" y="295" on="1"/>
        <pt x="721" y="126" on="1"/>
        <pt x="993" y="126" on="1"/>
        <pt x="993" y="0" on="1"/>
        <pt x="605" y="0" on="1"/>
        <pt x="605" y="85" on="1"/>
        <pt x="569" y="40" on="0"/>
        <pt x="458" y="-13" on="0"/>
      </contour>
      <contour>
        <pt x="390" y="117" on="1"/>
        <pt x="461" y="117" on="0"/>
        <pt x="555" y="180" on="0"/>
        <pt x="601" y="286" on="0"/>
        <pt x="601" y="349" on="1"/>
        <pt x="601" y="413" on="0"/>
        <pt x="555" y="519" on="0"/>
        <pt x="461" y="583" on="0"/>
        <pt x="390" y="583" on="1"/>
        <pt x="322" y="583" on="0"/>
        <pt x="223" y="519" on="0"/>
        <pt x="170" y="413" on="0"/>
        <pt x="170" y="349" on="1"/>
        <pt x="170" y="286" on="0"/>
        <pt x="223" y="180" on="0"/>
        <pt x="322" y="117" on="0"/>
      </contour>
    </TTGlyph>
    <TTGlyph name="Oacute" xMin="25" yMin="-13" xMax="753" yMax="920">
      <component glyphName="O" x="0" y="0" flags="0x204"/>
      <component glyphName="acutecomb" x="390" y="180" flags="0x4"/>
    </TTGlyph>
    <TTGlyph name="Ocircumflex" xMin="25" yMin="-13" xMax="753" yMax="920">
      <component glyphName="O" x="0" y="0" flags="0x204"/>
      <component glyphName="uni0302" x="390" y="180" flags="0x4"/>
    </TTGlyph>
    <TTGlyph name="Odieresis" xMin="25" yMin="-13" xMax="753" yMax="902">
      <component glyphName="O" x="0" y="0" flags="0x204"/>
      <component glyphName="uni0308" x="390" y="180" flags="0x4"/>
    </TTGlyph>
    <TTGlyph name="Ograve" xMin="25" yMin="-13" xMax="753" yMax="920">
      <component glyphName="O" x="0" y="0" flags="0x204"/>
      <component glyphName="gravecomb" x="390" y="180" flags="0x4"/>
    </TTGlyph>
    <TTGlyph name="Ohorn" xMin="25" yMin="-13" xMax="753" yMax="818">
      <component glyphName="O" x="0" y="0" flags="0x204"/>
      <component glyphName="uni031B" x="452" y="177" flags="0x4"/>
    </TTGlyph>
    <TTGlyph name="Ohungarumlaut" xMin="25" yMin="-13" xMax="753" yMax="920">
      <component glyphName="O" x="0" y="0" flags="0x204"/>
      <component glyphName="uni030B" x="390" y="180" flags="0x4"/>
    </TTGlyph>
    <TTGlyph name="Omacron" xMin="25" yMin="-13" xMax="753" yMax="868">
      <component glyphName="O" x="0" y="0" flags="0x204"/>
      <component glyphName="uni0304" x="391" y="180" flags="0x4"/>
    </TTGlyph>
    <TTGlyph name="Oslash" xMin="25" yMin="-40" xMax="753" yMax="748">
      <component glyphName="O" x="0" y="0" flags="0x204"/>
      <component glyphName="uni0338.case" x="11" y="0" flags="0x4"/>
    </TTGlyph>
    <TTGlyph name="Otilde" xMin="25" yMin="-13" xMax="753" yMax="891">
      <component glyphName="O" x="0" y="0" flags="0x204"/>
      <component glyphName="tildecomb" x="390" y="180" flags="0x4"/>
    </TTGlyph>
    <TTGlyph name="P" xMin="50" yMin="0" xMax="539" yMax="700">
      <contour>
        <pt x="50" y="0" on="1"/>
        <pt x="50" y="700" on="1"/>
        <pt x="286" y="700" on="1"/>
        <pt x="404" y="700" on="0"/>
        <pt x="539" y="589" on="0"/>
        <pt x="539" y="479" on="1"/>
        <pt x="539" y="368" on="0"/>
        <pt x="404" y="254" on="0"/>
        <pt x="286" y="254" on="1"/>
        <pt x="190" y="254" on="1"/>
        <pt x="190" y="0" on="1"/>
      </contour>
      <contour>
        <pt x="190" y="380" on="1"/>
        <pt x="278" y="380" on="1"/>
        <pt x="335" y="380" on="0"/>
        <pt x="397" y="428" on="0"/>
        <pt x="397" y="478" on="1"/>
        <pt x="397" y="528" on="0"/>
        <pt x="335" y="575" on="0"/>
        <pt x="278" y="575" on="1"/>
        <pt x="190" y="575" on="1"/>
      </contour>
    </TTGlyph>
    <TTGlyph name="Q" xMin="25" yMin="-57" xMax="753" yMax="713">
      <contour>
        <pt x="390" y="-13" on="1"/>
        <pt x="312" y="-13" on="0"/>
        <pt x="179" y="43" on="0"/>
        <pt x="80" y="143" on="0"/>
        <pt x="25" y="274" on="0"/>
        <pt x="25" y="349" on="1"/>
        <pt x="25" y="424" on="0"/>
        <pt x="80" y="556" on="0"/>
        <pt x="179" y="656" on="0"/>
        <pt x="312" y="713" on="0"/>
        <pt x="390" y="713" on="1"/>
        <pt x="468" y="713" on="0"/>
        <pt x="600" y="656" on="0"/>
        <pt x="698" y="556" on="0"/>
        <pt x="753" y="424" on="0"/>
        <pt x="753" y="349" on="1"/>
        <pt x="753" y="272" on="0"/>
        <pt x="695" y="137" on="0"/>
        <pt x="644" y="88" on="1"/>
        <pt x="740" y="-57" on="1"/>
        <pt x="588" y="-57" on="1"/>
        <pt x="538" y="17" on="1"/>
        <pt x="504" y="3" on="0"/>
        <pt x="430" y="-13" on="0"/>
      </contour>
      <contour>
        <pt x="390" y="117" on="1"/>
        <pt x="434" y="117" on="0"/>
        <pt x="471" y="131" on="1"/>
        <pt x="387" y="258" on="1"/>
        <pt x="539" y="258" on="1"/>
        <pt x="570" y="212" on="1"/>
        <pt x="608" y="271" on="0"/>
        <pt x="608" y="349" on="1"/>
        <pt x="608" y="413" on="0"/>
        <pt x="555" y="519" on="0"/>
        <pt x="458" y="583" on="0"/>
        <pt x="390" y="583" on="1"/>
        <pt x="322" y="583" on="0"/>
        <pt x="223" y="519" on="0"/>
        <pt x="170" y="413" on="0"/>
        <pt x="170" y="349" on="1"/>
        <pt x="170" y="286" on="0"/>
        <pt x="223" y="180" on="0"/>
        <pt x="322" y="117" on="0"/>
      </contour>
    </TTGlyph>
    <TTGlyph name="R" xMin="50" yMin="0" xMax="557" yMax="700">
      <contour>
        <pt x="50" y="0" on="1"/>
        <pt x="50" y="700" on="1"/>
        <pt x="276" y="700" on="1"/>
        <pt x="394" y="700" on="0"/>
        <pt x="529" y="591" on="0"/>
        <pt x="529" y="488" on="1"/>
        <pt x="529" y="405" on="0"/>
        <pt x="440" y="303" on="0"/>
        <pt x="361" y="286" on="1"/>
        <pt x="557" y="0" on="1"/>
        <pt x="392" y="0" on="1"/>
        <pt x="243" y="222" on="1"/>
        <pt x="229" y="243" on="0"/>
        <pt x="216" y="273" on="1"/>
        <pt x="190" y="273" on="1"/>
        <pt x="190" y="0" on="1"/>
      </contour>
      <contour>
        <pt x="190" y="399" on="1"/>
        <pt x="268" y="399" on="1"/>
        <pt x="325" y="399" on="0"/>
        <pt x="387" y="444" on="0"/>
        <pt x="387" y="487" on="1"/>
        <pt x="387" y="529" on="0"/>
        <pt x="325" y="574" on="0"/>
        <pt x="268" y="574" on="1"/>
        <pt x="190" y="574" on="1"/>
      </contour>
    </TTGlyph>
    <TTGlyph name="Racute" xMin="50" yMin="0" xMax="557" yMax="920">
      <component glyphName="R" x="0" y="0" flags="0x204"/>
      <component glyphName="acutecomb" x="280" y="180" flags="0x4"/>
    </TTGlyph>
    <TTGlyph name="Rcaron" xMin="50" yMin="0" xMax="557" yMax="920">
      <component glyphName="R" x="0" y="0" flags="0x204"/>
      <component glyphName="uni030C" x="280" y="180" flags="0x4"/>
    </TTGlyph>
    <TTGlyph name="S" xMin="10" yMin="-13" xMax="534" yMax="712">
      <contour>
        <pt x="278" y="-13" on="1"/>
        <pt x="195" y="-13" on="0"/>
        <pt x="56" y="58" on="0"/>
        <pt x="10" y="138" on="1"/>
        <pt x="131" y="215" on="1"/>
        <pt x="158" y="161" on="0"/>
        <pt x="240" y="112" on="0"/>
        <pt x="286" y="112" on="1"/>
        <pt x="335" y="112" on="0"/>
        <pt x="391" y="156" on="0"/>
        <pt x="391" y="192" on="1"/>
        <pt x="391" y="227" on="0"/>
        <pt x="347" y="269" on="0"/>
        <pt x="274" y="295" on="0"/>
        <pt x="231" y="306" on="1"/>
        <pt x="150" y="327" on="0"/>
        <pt x="54" y="424" on="0"/>
        <pt x="54" y="503" on="1"/>
        <pt x="54" y="566" on="0"/>
        <pt x="116" y="660" on="0"/>
        <pt x="227" y="712" on="0"/>
        <pt x="301" y="712" on="1"/>
        <pt x="383" y="712" on="0"/>
        <pt x="493" y="644" on="0"/>
        <pt x="532" y="582" on="1"/>
        <pt x="412" y="508" on="1"/>
        <pt x="387" y="549" on="0"/>
        <pt x="333" y="587" on="0"/>
        <pt x="294" y="587" on="1"/>
        <pt x="252" y="587" on="0"/>
        <pt x="197" y="545" on="0"/>
        <pt x="197" y="510" on="1"/>
        <pt x="197" y="471" on="0"/>
        <pt x="262" y="436" on="0"/>
        <pt x="308" y="422" on="1"/>
        <pt x="339" y="412" on="0"/>
        <pt x="416" y="385" on="0"/>
        <pt x="488" y="338" on="0"/>
        <pt x="534" y="260" on="0"/>
        <pt x="534" y="200" on="1"/>
        <pt x="534" y="137" on="0"/>
        <pt x="472" y="41" on="0"/>
        <pt x="358" y="-13" on="0"/>
      </contour>
    </TTGlyph>
    <TTGlyph name="Sacute" xMin="10" yMin="-13" xMax="534" yMax="920">
      <component glyphName="S" x="0" y="0" flags="0x204"/>
      <component glyphName="acutecomb" x="299" y="180" flags="0x4"/>
    </TTGlyph>
    <TTGlyph name="Scaron" xMin="10" yMin="-13" xMax="534" yMax="920">
      <component glyphName="S" x="0" y="0" flags="0x204"/>
      <component glyphName="uni030C" x="299" y="180" flags="0x4"/>
    </TTGlyph>
    <TTGlyph name="Scedilla" xMin="10" yMin="-213" xMax="534" yMax="712">
      <component glyphName="S" x="0" y="0" flags="0x204"/>
      <component glyphName="uni0327" x="283" y="0" flags="0x4"/>
    </TTGlyph>
    <TTGlyph name="Scircumflex" xMin="10" yMin="-13" xMax="534" yMax="920">
      <component glyphName="S" x="0" y="0" flags="0x204"/>
      <component glyphName="uni0302" x="299" y="180" flags="0x4"/>
    </TTGlyph>
    <TTGlyph name="T" xMin="15" yMin="0" xMax="555" yMax="700">
      <contour>
        <pt x="215" y="0" on="1"/>
        <pt x="215" y="574" on="1"/>
        <pt x="15" y="574" on="1"/>
        <pt x="15" y="700" on="1"/>
        <pt x="555" y="700" on="1"/>
        <pt x="555" y="574" on="1"/>
        <pt x="355" y="574" on="1"/>
        <pt x="355" y="0" on="1"/>
      </contour>
    </TTGlyph>
    <TTGlyph name="Tcaron" xMin="15" yMin="0" xMax="555" yMax="920">
      <component glyphName="T" x="0" y="0" flags="0x204"/>
      <component glyphName="uni030C" x="285" y="180" flags="0x4"/>
    </TTGlyph>
    <TTGlyph name="Thorn" xMin="50" yMin="0" xMax="540" yMax="700">
      <contour>
        <pt x="50" y="0" on="1"/>
        <pt x="50" y="700" on="1"/>
        <pt x="188" y="700" on="1"/>
        <pt x="188" y="582" on="1"/>
        <pt x="287" y="582" on="1"/>
        <pt x="405" y="582" on="0"/>
        <pt x="540" y="462" on="0"/>
        <pt x="540" y="352" on="1"/>
        <pt x="540" y="241" on="0"/>
        <pt x="405" y="119" on="0"/>
        <pt x="287" y="119" on="1"/>
        <pt x="190" y="119" on="1"/>
        <pt x="190" y="0" on="1"/>
      </contour>
      <contour>
        <pt x="190" y="245" on="1"/>
        <pt x="279" y="245" on="1"/>
        <pt x="336" y="245" on="0"/>
        <pt x="398" y="297" on="0"/>
        <pt x="398" y="351" on="1"/>
        <pt x="398" y="404" on="0"/>
        <pt x="336" y="456" on="0"/>
        <pt x="279" y="456" on="1"/>
        <pt x="190" y="456" on="1"/>
      </contour>
    </TTGlyph>
    <TTGlyph name="U" xMin="40" yMin="-13" xMax="606" yMax="700">
      <contour>
        <pt x="323" y="-13" on="1"/>
        <pt x="238" y="-13" on="0"/>
        <pt x="110" y="56" on="0"/>
        <pt x="40" y="179" on="0"/>
        <pt x="40" y="259" on="1"/>
        <pt x="40" y="700" on="1"/>
        <pt x="180" y="700" on="1"/>
        <pt x="180" y="274" on="1"/>
        <pt x="180" y="200" on="0"/>
        <pt x="251" y="115" on="0"/>
        <pt x="323" y="115" on="1"/>
        <pt x="395" y="115" on="0"/>
        <pt x="466" y="200" on="0"/>
        <pt x="466" y="274" on="1"/>
        <pt x="466" y="700" on="1"/>
        <pt x="606" y="700" on="1"/>
        <pt x="606" y="259" on="1"/>
        <pt x="606" y="179" on="0"/>
        <pt x="536" y="56" on="0"/>
        <pt x="409" y="-13" on="0"/>
      </contour>
    </TTGlyph>
    <TTGlyph name="Uacute" xMin="40" yMin="-13" xMax="606" yMax="904">
      <component glyphName="U" x="0" y="0" flags="0x204"/>
      <component glyphName="acutecomb" x="323" y="164" flags="0x4"/>
    </TTGlyph>
    <TTGlyph name="Ubreve" xMin="40" yMin="-13" xMax="606" yMax="860">
      <component glyphName="U" x="0" y="0" flags="0x204"/>
      <component glyphName="uni0306" x="323" y="164" flags="0x4"/>
    </TTGlyph>
    <TTGlyph name="Ucircumflex" xMin="40" yMin="-13" xMax="606" yMax="904">
      <component glyphName="U" x="0" y="0" flags="0x204"/>
      <component glyphName="uni0302" x="323" y="164" flags="0x4"/>
    </TTGlyph>
    <TTGlyph name="Udieresis" xMin="40" yMin="-13" xMax="606" yMax="886">
      <component glyphName="U" x="0" y="0" flags="0x204"/>
      <component glyphName="uni0308" x="323" y="164" flags="0x4"/>
    </TTGlyph>
    <TTGlyph name="Ugrave" xMin="40" yMin="-13" xMax="606" yMax="904">
      <component glyphName="U" x="0" y="0" flags="0x204"/>
      <component glyphName="gravecomb" x="323" y="164" flags="0x4"/>
    </TTGlyph>
    <TTGlyph name="Uhorn" xMin="40" yMin="-13" xMax="712" yMax="821">
      <component glyphName="U" x="0" y="0" flags="0x204"/>
      <component glyphName="uni031B" x="461" y="180" flags="0x4"/>
    </TTGlyph>
    <TTGlyph name="Uhungarumlaut" xMin="40" yMin="-13" xMax="606" yMax="904">
      <component glyphName="U" x="0" y="0" flags="0x204"/>
      <component glyphName="uni030B" x="323" y="164" flags="0x4"/>
    </TTGlyph>
    <TTGlyph name="Umacron" xMin="40" yMin="-13" xMax="606" yMax="852">
      <component glyphName="U" x="0" y="0" flags="0x204"/>
      <component glyphName="uni0304" x="324" y="164" flags="0x4"/>
    </TTGlyph>
    <TTGlyph name="Uogonek" xMin="40" yMin="-214" xMax="606" yMax="700">
      <contour>
        <pt x="401" y="-214" on="1"/>
        <pt x="344" y="-214" on="0"/>
        <pt x="281" y="-153" on="0"/>
        <pt x="281" y="-104" on="1"/>
        <pt x="281" y="-77" on="0"/>
        <pt x="299" y="-35" on="0"/>
        <pt x="321" y="-13" on="1"/>
        <pt x="236" y="-13" on="0"/>
        <pt x="110" y="57" on="0"/>
        <pt x="40" y="179" on="0"/>
        <pt x="40" y="259" on="1"/>
        <pt x="40" y="700" on="1"/>
        <pt x="180" y="700" on="1"/>
        <pt x="180" y="274" on="1"/>
        <pt x="180" y="200" on="0"/>
        <pt x="251" y="115" on="0"/>
        <pt x="323" y="115" on="1"/>
        <pt x="395" y="115" on="0"/>
        <pt x="466" y="200" on="0"/>
        <pt x="466" y="274" on="1"/>
        <pt x="466" y="700" on="1"/>
        <pt x="606" y="700" on="1"/>
        <pt x="606" y="259" on="1"/>
        <pt x="606" y="172" on="0"/>
        <pt x="524" y="43" on="0"/>
        <pt x="451" y="12" on="1"/>
        <pt x="403" y="-26" on="1"/>
        <pt x="387" y="-38" on="0"/>
        <pt x="375" y="-62" on="0"/>
        <pt x="375" y="-75" on="1"/>
        <pt x="375" y="-95" on="0"/>
        <pt x="407" y="-113" on="0"/>
        <pt x="426" y="-113" on="1"/>
        <pt x="435" y="-113" on="0"/>
        <pt x="447" y="-111" on="0"/>
        <pt x="452" y="-109" on="1"/>
        <pt x="476" y="-202" on="1"/>
        <pt x="455" y="-209" on="0"/>
        <pt x="418" y="-214" on="0"/>
      </contour>
    </TTGlyph>
    <TTGlyph name="Uring" xMin="40" yMin="-13" xMax="606" yMax="931">
      <component glyphName="U" x="0" y="0" flags="0x204"/>
      <component glyphName="uni030A" x="323" y="164" flags="0x4"/>
    </TTGlyph>
    <TTGlyph name="Utilde" xMin="40" yMin="-13" xMax="606" yMax="875">
      <component glyphName="U" x="0" y="0" flags="0x204"/>
      <component glyphName="tildecomb" x="323" y="164" flags="0x4"/>
    </TTGlyph>
    <TTGlyph name="V" xMin="-17" yMin="0" xMax="674" yMax="700">
      <contour>
        <pt x="262" y="0" on="1"/>
        <pt x="-17" y="700" on="1"/>
        <pt x="145" y="700" on="1"/>
        <pt x="305" y="255" on="1"/>
        <pt x="321" y="211" on="0"/>
        <pt x="330" y="167" on="1"/>
        <pt x="335" y="189" on="0"/>
        <pt x="347" y="234" on="0"/>
        <pt x="355" y="255" on="1"/>
        <pt x="515" y="700" on="1"/>
        <pt x="674" y="700" on="1"/>
        <pt x="397" y="0" on="1"/>
      </contour>
    </TTGlyph>
    <TTGlyph name="W" xMin="-9" yMin="0" xMax="1053" yMax="700">
      <contour>
        <pt x="225" y="0" on="1"/>
        <pt x="-9" y="700" on="1"/>
        <pt x="151" y="700" on="1"/>
        <pt x="263" y="304" on="1"/>
        <pt x="272" y="274" on="0"/>
        <pt x="287" y="213" on="0"/>
        <pt x="291" y="184" on="1"/>
        <pt x="295" y="213" on="0"/>
        <pt x="309" y="275" on="0"/>
        <pt x="320" y="304" on="1"/>
        <pt x="459" y="700" on="1"/>
        <pt x="585" y="700" on="1"/>
        <pt x="724" y="304" on="1"/>
        <pt x="746" y="243" on="0"/>
        <pt x="755" y="184" on="1"/>
        <pt x="759" y="213" on="0"/>
        <pt x="772" y="274" on="0"/>
        <pt x="781" y="304" on="1"/>
        <pt x="893" y="700" on="1"/>
        <pt x="1053" y="700" on="1"/>
        <pt x="819" y="0" on="1"/>
        <pt x="693" y="0" on="1"/>
        <pt x="551" y="395" on="1"/>
        <pt x="531" y="450" on="0"/>
        <pt x="522" y="510" on="1"/>
        <pt x="517" y="481" on="0"/>
        <pt x="503" y="423" on="0"/>
        <pt x="493" y="395" on="1"/>
        <pt x="351" y="0" on="1"/>
      </contour>
    </TTGlyph>
    <TTGlyph name="Wacute" xMin="-9" yMin="0" xMax="1053" yMax="920">
      <component glyphName="W" x="0" y="0" flags="0x204"/>
      <component glyphName="acutecomb" x="528" y="180" flags="0x4"/>
    </TTGlyph>
    <TTGlyph name="Wcircumflex" xMin="-9" yMin="0" xMax="1053" yMax="920">
      <component glyphName="W" x="0" y="0" flags="0x204"/>
      <component glyphName="uni0302" x="528" y="180" flags="0x4"/>
    </TTGlyph>
    <TTGlyph name="Wdieresis" xMin="-9" yMin="0" xMax="1053" yMax="902">
      <component glyphName="W" x="0" y="0" flags="0x204"/>
      <component glyphName="uni0308" x="528" y="180" flags="0x4"/>
    </TTGlyph>
    <TTGlyph name="Wgrave" xMin="-9" yMin="0" xMax="1053" yMax="920">
      <component glyphName="W" x="0" y="0" flags="0x204"/>
      <component glyphName="gravecomb" x="528" y="180" flags="0x4"/>
    </TTGlyph>
    <TTGlyph name="X" xMin="-10" yMin="0" xMax="621" yMax="700">
      <contour>
        <pt x="-10" y="0" on="1"/>
        <pt x="220" y="351" on="1"/>
        <pt x="1" y="700" on="1"/>
        <pt x="168" y="700" on="1"/>
        <pt x="306" y="468" on="1"/>
        <pt x="447" y="700" on="1"/>
        <pt x="610" y="700" on="1"/>
        <pt x="391" y="348" on="1"/>
        <pt x="621" y="0" on="1"/>
        <pt x="452" y="0" on="1"/>
        <pt x="306" y="233" on="1"/>
        <pt x="156" y="0" on="1"/>
      </contour>
    </TTGlyph>
    <TTGlyph name="Y" xMin="-26" yMin="0" xMax="588" yMax="700">
      <contour>
        <pt x="211" y="0" on="1"/>
        <pt x="211" y="281" on="1"/>
        <pt x="-26" y="700" on="1"/>
        <pt x="128" y="700" on="1"/>
        <pt x="238" y="499" on="1"/>
        <pt x="251" y="475" on="0"/>
        <pt x="278" y="423" on="0"/>
        <pt x="285" y="397" on="1"/>
        <pt x="292" y="423" on="0"/>
        <pt x="317" y="474" on="0"/>
        <pt x="330" y="499" on="1"/>
        <pt x="435" y="700" on="1"/>
        <pt x="588" y="700" on="1"/>
        <pt x="351" y="278" on="1"/>
        <pt x="351" y="0" on="1"/>
      </contour>
    </TTGlyph>
    <TTGlyph name="Yacute" xMin="-26" yMin="0" xMax="588" yMax="920">
      <component glyphName="Y" x="0" y="0" flags="0x204"/>
      <component glyphName="acutecomb" x="283" y="180" flags="0x4"/>
    </TTGlyph>
    <TTGlyph name="Ycircumflex" xMin="-26" yMin="0" xMax="588" yMax="920">
      <component glyphName="Y" x="0" y="0" flags="0x204"/>
      <component glyphName="uni0302" x="283" y="180" flags="0x4"/>
    </TTGlyph>
    <TTGlyph name="Ydieresis" xMin="-26" yMin="0" xMax="588" yMax="902">
      <component glyphName="Y" x="0" y="0" flags="0x204"/>
      <component glyphName="uni0308" x="283" y="180" flags="0x4"/>
    </TTGlyph>
    <TTGlyph name="Ygrave" xMin="-26" yMin="0" xMax="588" yMax="920">
      <component glyphName="Y" x="0" y="0" flags="0x204"/>
      <component glyphName="gravecomb" x="283" y="180" flags="0x4"/>
    </TTGlyph>
    <TTGlyph name="Z" xMin="10" yMin="0" xMax="574" yMax="700">
      <contour>
        <pt x="10" y="0" on="1"/>
        <pt x="10" y="15" on="1"/>
        <pt x="328" y="545" on="1"/>
        <pt x="338" y="562" on="0"/>
        <pt x="351" y="577" on="1"/>
        <pt x="29" y="577" on="1"/>
        <pt x="29" y="700" on="1"/>
        <pt x="574" y="700" on="1"/>
        <pt x="574" y="685" on="1"/>
        <pt x="256" y="155" on="1"/>
        <pt x="246" y="138" on="0"/>
        <pt x="233" y="123" on="1"/>
        <pt x="574" y="123" on="1"/>
        <pt x="574" y="0" on="1"/>
      </contour>
    </TTGlyph>
    <TTGlyph name="Zacute" xMin="10" yMin="0" xMax="574" yMax="920">
      <component glyphName="Z" x="0" y="0" flags="0x204"/>
      <component glyphName="acutecomb" x="285" y="180" flags="0x4"/>
    </TTGlyph>
    <TTGlyph name="Zcaron" xMin="10" yMin="0" xMax="574" yMax="920">
      <component glyphName="Z" x="0" y="0" flags="0x204"/>
      <component glyphName="uni030C" x="285" y="180" flags="0x4"/>
    </TTGlyph>
    <TTGlyph name="Zdotaccent" xMin="10" yMin="0" xMax="574" yMax="902">
      <component glyphName="Z" x="0" y="0" flags="0x204"/>
      <component glyphName="uni0307" x="285" y="180" flags="0x4"/>
    </TTGlyph>
    <TTGlyph name="a" xMin="20" yMin="-13" xMax="576" yMax="531">
      <contour>
        <pt x="277" y="-13" on="1"/>
        <pt x="206" y="-13" on="0"/>
        <pt x="89" y="60" on="0"/>
        <pt x="20" y="183" on="0"/>
        <pt x="20" y="258" on="1"/>
        <pt x="20" y="314" on="0"/>
        <pt x="60" y="413" on="0"/>
        <pt x="130" y="488" on="0"/>
        <pt x="223" y="531" on="0"/>
        <pt x="277" y="531" on="1"/>
        <pt x="345" y="531" on="0"/>
        <pt x="421" y="480" on="0"/>
        <pt x="442" y="438" on="1"/>
        <pt x="442" y="520" on="1"/>
        <pt x="576" y="520" on="1"/>
        <pt x="576" y="0" on="1"/>
        <pt x="445" y="0" on="1"/>
        <pt x="445" y="85" on="1"/>
        <pt x="424" y="41" on="0"/>
        <pt x="347" y="-13" on="0"/>
      </contour>
      <contour>
        <pt x="299" y="109" on="1"/>
        <pt x="344" y="109" on="0"/>
        <pt x="409" y="150" on="0"/>
        <pt x="445" y="218" on="0"/>
        <pt x="445" y="258" on="1"/>
        <pt x="445" y="299" on="0"/>
        <pt x="409" y="367" on="0"/>
        <pt x="344" y="409" on="0"/>
        <pt x="299" y="409" on="1"/>
        <pt x="256" y="409" on="0"/>
        <pt x="191" y="368" on="0"/>
        <pt x="155" y="300" on="0"/>
        <pt x="155" y="259" on="1"/>
        <pt x="155" y="220" on="0"/>
        <pt x="191" y="151" on="0"/>
        <pt x="256" y="109" on="0"/>
      </contour>
    </TTGlyph>
    <TTGlyph name="aacute" xMin="20" yMin="-13" xMax="576" yMax="740">
      <component glyphName="a" x="0" y="0" flags="0x204"/>
      <component glyphName="acutecomb" x="306" y="0" flags="0x4"/>
    </TTGlyph>
    <TTGlyph name="abreve" xMin="20" yMin="-13" xMax="576" yMax="696">
      <component glyphName="a" x="0" y="0" flags="0x204"/>
      <component glyphName="uni0306" x="306" y="0" flags="0x4"/>
    </TTGlyph>
    <TTGlyph name="acircumflex" xMin="20" yMin="-13" xMax="576" yMax="740">
      <component glyphName="a" x="0" y="0" flags="0x204"/>
      <component glyphName="uni0302" x="306" y="0" flags="0x4"/>
    </TTGlyph>
    <TTGlyph name="acute" xMin="228" yMin="566" xMax="410" yMax="740">
      <component glyphName="acutecomb" x="277" y="0" flags="0x4"/>
    </TTGlyph>
    <TTGlyph name="acutecomb" xMin="-49" yMin="566" xMax="133" yMax="740">
      <contour>
        <pt x="-49" y="566" on="1"/>
        <pt x="-5" y="740" on="1"/>
        <pt x="133" y="740" on="1"/>
        <pt x="45" y="566" on="1"/>
      </contour>
    </TTGlyph>
    <TTGlyph name="adieresis" xMin="20" yMin="-13" xMax="576" yMax="722">
      <component glyphName="a" x="0" y="0" flags="0x204"/>
      <component glyphName="uni0308" x="306" y="0" flags="0x4"/>
    </TTGlyph>
    <TTGlyph name="ae" xMin="20" yMin="-13" xMax="1012" yMax="532">
      <contour>
        <pt x="277" y="-13" on="1"/>
        <pt x="206" y="-13" on="0"/>
        <pt x="89" y="60" on="0"/>
        <pt x="20" y="183" on="0"/>
        <pt x="20" y="258" on="1"/>
        <pt x="20" y="314" on="0"/>
        <pt x="60" y="413" on="0"/>
        <pt x="130" y="488" on="0"/>
        <pt x="223" y="531" on="0"/>
        <pt x="277" y="531" on="1"/>
        <pt x="332" y="531" on="0"/>
        <pt x="415" y="496" on="0"/>
        <pt x="441" y="466" on="1"/>
        <pt x="441" y="520" on="1"/>
        <pt x="576" y="520" on="1"/>
        <pt x="576" y="461" on="1"/>
        <pt x="603" y="493" on="0"/>
        <pt x="692" y="532" on="0"/>
        <pt x="753" y="532" on="1"/>
        <pt x="829" y="532" on="0"/>
        <pt x="945" y="458" on="0"/>
        <pt x="1012" y="334" on="0"/>
        <pt x="1012" y="259" on="1"/>
        <pt x="1012" y="248" on="0"/>
        <pt x="1010" y="223" on="0"/>
        <pt x="1008" y="210" on="1"/>
        <pt x="612" y="210" on="1"/>
        <pt x="623" y="165" on="0"/>
        <pt x="688" y="110" on="0"/>
        <pt x="743" y="110" on="1"/>
        <pt x="790" y="110" on="0"/>
        <pt x="857" y="147" on="0"/>
        <pt x="873" y="177" on="1"/>
        <pt x="980" y="98" on="1"/>
        <pt x="949" y="49" on="0"/>
        <pt x="827" y="-12" on="0"/>
        <pt x="753" y="-12" on="1"/>
        <pt x="692" y="-12" on="0"/>
        <pt x="603" y="26" on="0"/>
        <pt x="576" y="58" on="1"/>
        <pt x="576" y="0" on="1"/>
        <pt x="445" y="0" on="1"/>
        <pt x="445" y="56" on="1"/>
        <pt x="419" y="24" on="0"/>
        <pt x="334" y="-13" on="0"/>
      </contour>
      <contour>
        <pt x="741" y="417" on="1"/>
        <pt x="692" y="417" on="0"/>
        <pt x="623" y="364" on="0"/>
        <pt x="610" y="320" on="1"/>
        <pt x="874" y="320" on="1"/>
        <pt x="861" y="360" on="0"/>
        <pt x="791" y="417" on="0"/>
      </contour>
      <contour>
        <pt x="299" y="109" on="1"/>
        <pt x="344" y="109" on="0"/>
        <pt x="409" y="150" on="0"/>
        <pt x="445" y="218" on="0"/>
        <pt x="445" y="258" on="1"/>
        <pt x="445" y="299" on="0"/>
        <pt x="409" y="367" on="0"/>
        <pt x="344" y="409" on="0"/>
        <pt x="299" y="409" on="1"/>
        <pt x="256" y="409" on="0"/>
        <pt x="192" y="368" on="0"/>
        <pt x="157" y="300" on="0"/>
        <pt x="157" y="259" on="1"/>
        <pt x="157" y="220" on="0"/>
        <pt x="192" y="151" on="0"/>
        <pt x="256" y="109" on="0"/>
      </contour>
    </TTGlyph>
    <TTGlyph name="agrave" xMin="20" yMin="-13" xMax="576" yMax="740">
      <component glyphName="a" x="0" y="0" flags="0x204"/>
      <component glyphName="gravecomb" x="306" y="0" flags="0x4"/>
    </TTGlyph>
    <TTGlyph name="amacron" xMin="20" yMin="-13" xMax="576" yMax="688">
      <component glyphName="a" x="0" y="0" flags="0x204"/>
      <component glyphName="uni0304" x="307" y="0" flags="0x4"/>
    </TTGlyph>
    <TTGlyph name="ampersand" xMin="30" yMin="-13" xMax="645" yMax="713">
      <contour>
        <pt x="255" y="-13" on="1"/>
        <pt x="183" y="-13" on="0"/>
        <pt x="82" y="44" on="0"/>
        <pt x="30" y="139" on="0"/>
        <pt x="30" y="194" on="1"/>
        <pt x="30" y="262" on="0"/>
        <pt x="99" y="357" on="0"/>
        <pt x="146" y="385" on="1"/>
        <pt x="161" y="394" on="1"/>
        <pt x="147" y="411" on="1"/>
        <pt x="120" y="443" on="0"/>
        <pt x="93" y="503" on="0"/>
        <pt x="93" y="544" on="1"/>
        <pt x="93" y="595" on="0"/>
        <pt x="145" y="671" on="0"/>
        <pt x="232" y="713" on="0"/>
        <pt x="284" y="713" on="1"/>
        <pt x="333" y="713" on="0"/>
        <pt x="419" y="671" on="0"/>
        <pt x="473" y="595" on="0"/>
        <pt x="473" y="544" on="1"/>
        <pt x="473" y="503" on="0"/>
        <pt x="442" y="432" on="0"/>
        <pt x="386" y="395" on="1"/>
        <pt x="346" y="368" on="1"/>
        <pt x="458" y="230" on="1"/>
        <pt x="552" y="307" on="1"/>
        <pt x="625" y="214" on="1"/>
        <pt x="532" y="140" on="1"/>
        <pt x="645" y="0" on="1"/>
        <pt x="491" y="0" on="1"/>
        <pt x="444" y="65" on="1"/>
        <pt x="419" y="43" on="1"/>
        <pt x="406" y="32" on="0"/>
        <pt x="355" y="5" on="0"/>
        <pt x="290" y="-13" on="0"/>
      </contour>
      <contour>
        <pt x="251" y="485" on="1"/>
        <pt x="273" y="458" on="1"/>
        <pt x="284" y="465" on="1"/>
        <pt x="321" y="486" on="0"/>
        <pt x="346" y="522" on="0"/>
        <pt x="346" y="545" on="1"/>
        <pt x="346" y="571" on="0"/>
        <pt x="312" y="603" on="0"/>
        <pt x="288" y="603" on="1"/>
        <pt x="261" y="603" on="0"/>
        <pt x="225" y="571" on="0"/>
        <pt x="225" y="545" on="1"/>
        <pt x="225" y="531" on="0"/>
        <pt x="235" y="505" on="0"/>
      </contour>
      <contour>
        <pt x="167" y="201" on="1"/>
        <pt x="167" y="167" on="0"/>
        <pt x="213" y="110" on="0"/>
        <pt x="253" y="110" on="1"/>
        <pt x="283" y="110" on="0"/>
        <pt x="325" y="128" on="0"/>
        <pt x="353" y="149" on="1"/>
        <pt x="359" y="154" on="1"/>
        <pt x="240" y="299" on="1"/>
        <pt x="216" y="283" on="1"/>
        <pt x="194" y="268" on="0"/>
        <pt x="167" y="228" on="0"/>
      </contour>
    </TTGlyph>
    <TTGlyph name="aogonek" xMin="20" yMin="-213" xMax="576" yMax="531">
      <component glyphName="a" x="0" y="0" flags="0x204"/>
      <component glyphName="uni0328" x="445" y="0" flags="0x4"/>
    </TTGlyph>
    <TTGlyph name="approxequal" xMin="35" yMin="163" xMax="507" yMax="480">
      <component glyphName="asciitilde" x="0" y="112" flags="0x204"/>
      <component glyphName="asciitilde" x="0" y="-66" flags="0x4"/>
    </TTGlyph>
    <TTGlyph name="aring" xMin="20" yMin="-13" xMax="576" yMax="767">
      <component glyphName="a" x="0" y="0" flags="0x204"/>
      <component glyphName="uni030A" x="306" y="0" flags="0x4"/>
    </TTGlyph>
    <TTGlyph name="arrowboth" xMin="-20" yMin="105" xMax="782" yMax="631">
      <contour>
        <pt x="252" y="105" on="1"/>
        <pt x="-20" y="368" on="1"/>
        <pt x="252" y="631" on="1"/>
        <pt x="328" y="543" on="1"/>
        <pt x="206" y="431" on="1"/>
        <pt x="558" y="431" on="1"/>
        <pt x="434" y="544" on="1"/>
        <pt x="510" y="631" on="1"/>
        <pt x="782" y="368" on="1"/>
        <pt x="510" y="105" on="1"/>
        <pt x="434" y="193" on="1"/>
        <pt x="556" y="305" on="1"/>
        <pt x="204" y="305" on="1"/>
        <pt x="328" y="192" on="1"/>
      </contour>
    </TTGlyph>
    <TTGlyph name="arrowdown" xMin="37" yMin="98" xMax="563" yMax="729">
      <contour>
        <pt x="477" y="448" on="1"/>
        <pt x="563" y="371" on="1"/>
        <pt x="300" y="98" on="1"/>
        <pt x="37" y="371" on="1"/>
        <pt x="124" y="448" on="1"/>
        <pt x="240" y="325" on="1"/>
        <pt x="237" y="729" on="1"/>
        <pt x="363" y="729" on="1"/>
        <pt x="360" y="323" on="1"/>
      </contour>
    </TTGlyph>
    <TTGlyph name="arrowleft" xMin="-17" yMin="123" xMax="614" yMax="649">
      <contour>
        <pt x="333" y="209" on="1"/>
        <pt x="256" y="123" on="1"/>
        <pt x="-17" y="386" on="1"/>
        <pt x="256" y="649" on="1"/>
        <pt x="333" y="562" on="1"/>
        <pt x="210" y="446" on="1"/>
        <pt x="614" y="449" on="1"/>
        <pt x="614" y="323" on="1"/>
        <pt x="208" y="326" on="1"/>
      </contour>
    </TTGlyph>
    <TTGlyph name="arrowright" xMin="-14" yMin="122" xMax="617" yMax="648">
      <contour>
        <pt x="-14" y="448" on="1"/>
        <pt x="392" y="445" on="1"/>
        <pt x="267" y="562" on="1"/>
        <pt x="344" y="648" on="1"/>
        <pt x="617" y="385" on="1"/>
        <pt x="344" y="122" on="1"/>
        <pt x="267" y="209" on="1"/>
        <pt x="390" y="325" on="1"/>
        <pt x="-14" y="322" on="1"/>
      </contour>
    </TTGlyph>
    <TTGlyph name="arrowup" xMin="37" yMin="41" xMax="563" yMax="672">
      <contour>
        <pt x="237" y="41" on="1"/>
        <pt x="240" y="447" on="1"/>
        <pt x="123" y="322" on="1"/>
        <pt x="37" y="399" on="1"/>
        <pt x="300" y="672" on="1"/>
        <pt x="563" y="399" on="1"/>
        <pt x="476" y="322" on="1"/>
        <pt x="360" y="445" on="1"/>
        <pt x="363" y="41" on="1"/>
      </contour>
    </TTGlyph>
    <TTGlyph name="arrowupdn" xMin="37" yMin="-33" xMax="563" yMax="769">
      <contour>
        <pt x="300" y="-33" on="1"/>
        <pt x="37" y="239" on="1"/>
        <pt x="125" y="315" on="1"/>
        <pt x="237" y="193" on="1"/>
        <pt x="237" y="545" on="1"/>
        <pt x="124" y="421" on="1"/>
        <pt x="37" y="497" on="1"/>
        <pt x="300" y="769" on="1"/>
        <pt x="563" y="497" on="1"/>
        <pt x="475" y="421" on="1"/>
        <pt x="363" y="543" on="1"/>
        <pt x="363" y="191" on="1"/>
        <pt x="476" y="315" on="1"/>
        <pt x="563" y="239" on="1"/>
      </contour>
    </TTGlyph>
    <TTGlyph name="asciicircum" xMin="79" yMin="428" xMax="463" yMax="700">
      <contour>
        <pt x="79" y="428" on="1"/>
        <pt x="205" y="700" on="1"/>
        <pt x="337" y="700" on="1"/>
        <pt x="463" y="428" on="1"/>
        <pt x="334" y="428" on="1"/>
        <pt x="279" y="559" on="1"/>
        <pt x="273" y="575" on="0"/>
        <pt x="270" y="591" on="1"/>
        <pt x="267" y="575" on="0"/>
        <pt x="261" y="559" on="1"/>
        <pt x="206" y="428" on="1"/>
      </contour>
    </TTGlyph>
    <TTGlyph name="asciitilde" xMin="35" yMin="229" xMax="507" yMax="368">
      <contour>
        <pt x="369" y="229" on="1"/>
        <pt x="324" y="229" on="0"/>
        <pt x="265" y="251" on="0"/>
        <pt x="218" y="273" on="0"/>
        <pt x="190" y="273" on="1"/>
        <pt x="150" y="273" on="0"/>
        <pt x="128" y="230" on="1"/>
        <pt x="35" y="279" on="1"/>
        <pt x="55" y="317" on="0"/>
        <pt x="125" y="368" on="0"/>
        <pt x="183" y="368" on="1"/>
        <pt x="230" y="368" on="0"/>
        <pt x="287" y="346" on="0"/>
        <pt x="328" y="324" on="0"/>
        <pt x="352" y="324" on="1"/>
        <pt x="393" y="324" on="0"/>
        <pt x="414" y="367" on="1"/>
        <pt x="507" y="318" on="1"/>
        <pt x="487" y="281" on="0"/>
        <pt x="419" y="229" on="0"/>
      </contour>
    </TTGlyph>
    <TTGlyph name="asterisk" xMin="10" yMin="398" xMax="342" yMax="717">
      <contour>
        <pt x="306" y="452" on="1"/>
        <pt x="232" y="398" on="1"/>
        <pt x="175" y="493" on="1"/>
        <pt x="118" y="399" on="1"/>
        <pt x="43" y="453" on="1"/>
        <pt x="118" y="538" on="1"/>
        <pt x="10" y="564" on="1"/>
        <pt x="38" y="652" on="1"/>
        <pt x="140" y="608" on="1"/>
        <pt x="131" y="717" on="1"/>
        <pt x="223" y="717" on="1"/>
        <pt x="213" y="608" on="1"/>
        <pt x="313" y="650" on="1"/>
        <pt x="342" y="562" on="1"/>
        <pt x="233" y="538" on="1"/>
      </contour>
    </TTGlyph>
    <TTGlyph name="at" xMin="21" yMin="-124" xMax="799" yMax="666">
      <contour>
        <pt x="420" y="-124" on="1"/>
        <pt x="335" y="-124" on="0"/>
        <pt x="190" y="-64" on="0"/>
        <pt x="81" y="44" on="0"/>
        <pt x="21" y="188" on="0"/>
        <pt x="21" y="271" on="1"/>
        <pt x="21" y="354" on="0"/>
        <pt x="81" y="497" on="0"/>
        <pt x="190" y="605" on="0"/>
        <pt x="335" y="666" on="0"/>
        <pt x="420" y="666" on="1"/>
        <pt x="504" y="666" on="0"/>
        <pt x="643" y="607" on="0"/>
        <pt x="744" y="507" on="0"/>
        <pt x="799" y="380" on="0"/>
        <pt x="799" y="312" on="1"/>
        <pt x="799" y="242" on="0"/>
        <pt x="747" y="141" on="0"/>
        <pt x="658" y="88" on="0"/>
        <pt x="604" y="88" on="1"/>
        <pt x="579" y="88" on="0"/>
        <pt x="528" y="102" on="0"/>
        <pt x="488" y="132" on="0"/>
        <pt x="481" y="158" on="1"/>
        <pt x="469" y="131" on="0"/>
        <pt x="416" y="84" on="0"/>
        <pt x="372" y="84" on="1"/>
        <pt x="325" y="84" on="0"/>
        <pt x="252" y="126" on="0"/>
        <pt x="211" y="200" on="0"/>
        <pt x="211" y="248" on="1"/>
        <pt x="211" y="300" on="0"/>
        <pt x="262" y="390" on="0"/>
        <pt x="347" y="446" on="0"/>
        <pt x="399" y="446" on="1"/>
        <pt x="436" y="446" on="0"/>
        <pt x="483" y="418" on="0"/>
        <pt x="496" y="396" on="1"/>
        <pt x="501" y="438" on="1"/>
        <pt x="613" y="438" on="1"/>
        <pt x="591" y="265" on="1"/>
        <pt x="590" y="255" on="0"/>
        <pt x="587" y="231" on="0"/>
        <pt x="587" y="222" on="1"/>
        <pt x="587" y="188" on="0"/>
        <pt x="616" y="188" on="1"/>
        <pt x="630" y="188" on="0"/>
        <pt x="664" y="211" on="0"/>
        <pt x="688" y="268" on="0"/>
        <pt x="688" y="317" on="1"/>
        <pt x="688" y="359" on="0"/>
        <pt x="652" y="444" on="0"/>
        <pt x="582" y="517" on="0"/>
        <pt x="482" y="561" on="0"/>
        <pt x="418" y="561" on="1"/>
        <pt x="334" y="561" on="0"/>
        <pt x="205" y="482" on="0"/>
        <pt x="132" y="351" on="0"/>
        <pt x="132" y="271" on="1"/>
        <pt x="132" y="191" on="0"/>
        <pt x="205" y="59" on="0"/>
        <pt x="335" y="-19" on="0"/>
        <pt x="420" y="-19" on="1"/>
        <pt x="445" y="-19" on="0"/>
        <pt x="493" y="-11" on="0"/>
        <pt x="514" y="-4" on="1"/>
        <pt x="551" y="-103" on="1"/>
        <pt x="490" y="-124" on="0"/>
      </contour>
      <contour>
        <pt x="402" y="186" on="1"/>
        <pt x="439" y="186" on="0"/>
        <pt x="487" y="240" on="0"/>
        <pt x="487" y="275" on="1"/>
        <pt x="487" y="304" on="0"/>
        <pt x="452" y="344" on="0"/>
        <pt x="418" y="344" on="1"/>
        <pt x="382" y="344" on="0"/>
        <pt x="333" y="290" on="0"/>
        <pt x="333" y="254" on="1"/>
        <pt x="333" y="226" on="0"/>
        <pt x="369" y="186" on="0"/>
      </contour>
    </TTGlyph>
    <TTGlyph name="atilde" xMin="20" yMin="-13" xMax="576" yMax="711">
      <component glyphName="a" x="0" y="0" flags="0x204"/>
      <component glyphName="tildecomb" x="306" y="0" flags="0x4"/>
    </TTGlyph>
    <TTGlyph name="b" xMin="40" yMin="-13" xMax="596" yMax="730">
      <contour>
        <pt x="339" y="-13" on="1"/>
        <pt x="269" y="-13" on="0"/>
        <pt x="192" y="41" on="0"/>
        <pt x="171" y="85" on="1"/>
        <pt x="171" y="0" on="1"/>
        <pt x="40" y="0" on="1"/>
        <pt x="40" y="730" on="1"/>
        <pt x="175" y="730" on="1"/>
        <pt x="175" y="440" on="1"/>
        <pt x="196" y="481" on="0"/>
        <pt x="272" y="531" on="0"/>
        <pt x="339" y="531" on="1"/>
        <pt x="393" y="531" on="0"/>
        <pt x="486" y="488" on="0"/>
        <pt x="556" y="413" on="0"/>
        <pt x="596" y="314" on="0"/>
        <pt x="596" y="258" on="1"/>
        <pt x="596" y="183" on="0"/>
        <pt x="527" y="60" on="0"/>
        <pt x="411" y="-13" on="0"/>
      </contour>
      <contour>
        <pt x="317" y="109" on="1"/>
        <pt x="360" y="109" on="0"/>
        <pt x="425" y="151" on="0"/>
        <pt x="461" y="220" on="0"/>
        <pt x="461" y="259" on="1"/>
        <pt x="461" y="300" on="0"/>
        <pt x="425" y="368" on="0"/>
        <pt x="360" y="409" on="0"/>
        <pt x="317" y="409" on="1"/>
        <pt x="273" y="409" on="0"/>
        <pt x="207" y="367" on="0"/>
        <pt x="171" y="299" on="0"/>
        <pt x="171" y="258" on="1"/>
        <pt x="171" y="218" on="0"/>
        <pt x="207" y="150" on="0"/>
        <pt x="273" y="109" on="0"/>
      </contour>
    </TTGlyph>
    <TTGlyph name="backslash" xMin="75" yMin="0" xMax="707" yMax="730">
      <contour>
        <pt x="707" y="0" on="1"/>
        <pt x="559" y="0" on="1"/>
        <pt x="75" y="730" on="1"/>
        <pt x="225" y="730" on="1"/>
      </contour>
    </TTGlyph>
    <TTGlyph name="bar" xMin="50" yMin="-200" xMax="178" yMax="730">
      <contour>
        <pt x="50" y="-200" on="1"/>
        <pt x="50" y="730" on="1"/>
        <pt x="178" y="730" on="1"/>
        <pt x="178" y="-200" on="1"/>
      </contour>
    </TTGlyph>
    <TTGlyph name="braceleft" xMin="25" yMin="-200" xMax="345" yMax="730">
      <contour>
        <pt x="270" y="-200" on="1"/>
        <pt x="204" y="-200" on="0"/>
        <pt x="132" y="-113" on="0"/>
        <pt x="132" y="-43" on="1"/>
        <pt x="132" y="112" on="1"/>
        <pt x="132" y="147" on="0"/>
        <pt x="111" y="183" on="0"/>
        <pt x="64" y="197" on="0"/>
        <pt x="25" y="200" on="1"/>
        <pt x="25" y="330" on="1"/>
        <pt x="85" y="335" on="0"/>
        <pt x="132" y="367" on="0"/>
        <pt x="132" y="418" on="1"/>
        <pt x="132" y="573" on="1"/>
        <pt x="132" y="643" on="0"/>
        <pt x="204" y="730" on="0"/>
        <pt x="270" y="730" on="1"/>
        <pt x="345" y="730" on="1"/>
        <pt x="345" y="623" on="1"/>
        <pt x="326" y="623" on="1"/>
        <pt x="295" y="623" on="0"/>
        <pt x="261" y="590" on="0"/>
        <pt x="261" y="565" on="1"/>
        <pt x="261" y="414" on="1"/>
        <pt x="261" y="347" on="0"/>
        <pt x="194" y="277" on="0"/>
        <pt x="145" y="266" on="1"/>
        <pt x="194" y="254" on="0"/>
        <pt x="261" y="184" on="0"/>
        <pt x="261" y="117" on="1"/>
        <pt x="261" y="-35" on="1"/>
        <pt x="261" y="-60" on="0"/>
        <pt x="295" y="-93" on="0"/>
        <pt x="326" y="-93" on="1"/>
        <pt x="345" y="-93" on="1"/>
        <pt x="345" y="-200" on="1"/>
      </contour>
    </TTGlyph>
    <TTGlyph name="braceright" xMin="20" yMin="-200" xMax="340" yMax="730">
      <contour>
        <pt x="95" y="-200" on="1"/>
        <pt x="20" y="-200" on="1"/>
        <pt x="20" y="-93" on="1"/>
        <pt x="39" y="-93" on="1"/>
        <pt x="71" y="-93" on="0"/>
        <pt x="104" y="-60" on="0"/>
        <pt x="104" y="-35" on="1"/>
        <pt x="104" y="117" on="1"/>
        <pt x="104" y="184" on="0"/>
        <pt x="171" y="254" on="0"/>
        <pt x="220" y="265" on="1"/>
        <pt x="171" y="277" on="0"/>
        <pt x="104" y="347" on="0"/>
        <pt x="104" y="414" on="1"/>
        <pt x="104" y="565" on="1"/>
        <pt x="104" y="590" on="0"/>
        <pt x="71" y="623" on="0"/>
        <pt x="39" y="623" on="1"/>
        <pt x="20" y="623" on="1"/>
        <pt x="20" y="730" on="1"/>
        <pt x="95" y="730" on="1"/>
        <pt x="161" y="730" on="0"/>
        <pt x="233" y="643" on="0"/>
        <pt x="233" y="573" on="1"/>
        <pt x="233" y="418" on="1"/>
        <pt x="233" y="367" on="0"/>
        <pt x="280" y="335" on="0"/>
        <pt x="340" y="330" on="1"/>
        <pt x="340" y="200" on="1"/>
        <pt x="302" y="197" on="0"/>
        <pt x="254" y="183" on="0"/>
        <pt x="233" y="147" on="0"/>
        <pt x="233" y="112" on="1"/>
        <pt x="233" y="-43" on="1"/>
        <pt x="233" y="-113" on="0"/>
        <pt x="161" y="-200" on="0"/>
      </contour>
    </TTGlyph>
    <TTGlyph name="bracketleft" xMin="45" yMin="-200" xMax="258" yMax="730">
      <contour>
        <pt x="45" y="-200" on="1"/>
        <pt x="45" y="730" on="1"/>
        <pt x="258" y="730" on="1"/>
        <pt x="258" y="623" on="1"/>
        <pt x="173" y="623" on="1"/>
        <pt x="173" y="-93" on="1"/>
        <pt x="258" y="-93" on="1"/>
        <pt x="258" y="-200" on="1"/>
      </contour>
    </TTGlyph>
    <TTGlyph name="bracketright" xMin="20" yMin="-200" xMax="233" yMax="730">
      <contour>
        <pt x="233" y="-200" on="1"/>
        <pt x="20" y="-200" on="1"/>
        <pt x="20" y="-93" on="1"/>
        <pt x="105" y="-93" on="1"/>
        <pt x="105" y="623" on="1"/>
        <pt x="20" y="623" on="1"/>
        <pt x="20" y="730" on="1"/>
        <pt x="233" y="730" on="1"/>
      </contour>
    </TTGlyph>
    <TTGlyph name="breve" xMin="140" yMin="557" xMax="460" yMax="696">
      <component glyphName="uni0306" x="300" y="0" flags="0x4"/>
    </TTGlyph>
    <TTGlyph name="brokenbar" xMin="50" yMin="-200" xMax="178" yMax="730">
      <contour>
        <pt x="50" y="337" on="1"/>
        <pt x="50" y="730" on="1"/>
        <pt x="178" y="730" on="1"/>
        <pt x="178" y="337" on="1"/>
      </contour>
      <contour>
        <pt x="50" y="-200" on="1"/>
        <pt x="50" y="237" on="1"/>
        <pt x="177" y="237" on="1"/>
        <pt x="177" y="-200" on="1"/>
      </contour>
    </TTGlyph>
    <TTGlyph name="bullet" xMin="18" yMin="220" xMax="287" yMax="483">
      <contour>
        <pt x="153" y="220" on="1"/>
        <pt x="114" y="220" on="0"/>
        <pt x="53" y="257" on="0"/>
        <pt x="18" y="317" on="0"/>
        <pt x="18" y="353" on="1"/>
        <pt x="18" y="388" on="0"/>
        <pt x="53" y="447" on="0"/>
        <pt x="114" y="483" on="0"/>
        <pt x="153" y="483" on="1"/>
        <pt x="192" y="483" on="0"/>
        <pt x="253" y="447" on="0"/>
        <pt x="287" y="388" on="0"/>
        <pt x="287" y="353" on="1"/>
        <pt x="287" y="317" on="0"/>
        <pt x="253" y="257" on="0"/>
        <pt x="192" y="220" on="0"/>
      </contour>
    </TTGlyph>
    <TTGlyph name="c" xMin="20" yMin="-13" xMax="511" yMax="534">
      <contour>
        <pt x="288" y="-13" on="1"/>
        <pt x="232" y="-13" on="0"/>
        <pt x="135" y="29" on="0"/>
        <pt x="61" y="104" on="0"/>
        <pt x="20" y="203" on="0"/>
        <pt x="20" y="260" on="1"/>
        <pt x="20" y="336" on="0"/>
        <pt x="91" y="459" on="0"/>
        <pt x="216" y="533" on="0"/>
        <pt x="295" y="533" on="1"/>
        <pt x="366" y="534" on="0"/>
        <pt x="478" y="482" on="0"/>
        <pt x="511" y="436" on="1"/>
        <pt x="407" y="351" on="1"/>
        <pt x="389" y="378" on="0"/>
        <pt x="332" y="410" on="0"/>
        <pt x="297" y="410" on="1"/>
        <pt x="254" y="410" on="0"/>
        <pt x="190" y="369" on="0"/>
        <pt x="155" y="301" on="0"/>
        <pt x="155" y="260" on="1"/>
        <pt x="155" y="220" on="0"/>
        <pt x="192" y="151" on="0"/>
        <pt x="257" y="110" on="0"/>
        <pt x="300" y="110" on="1"/>
        <pt x="339" y="110" on="0"/>
        <pt x="393" y="145" on="0"/>
        <pt x="413" y="172" on="1"/>
        <pt x="511" y="87" on="1"/>
        <pt x="474" y="40" on="0"/>
        <pt x="365" y="-13" on="0"/>
      </contour>
    </TTGlyph>
    <TTGlyph name="c.ss01" xMin="20" yMin="-14" xMax="418" yMax="530">
      <contour>
        <pt x="299" y="-14" on="1"/>
        <pt x="219" y="-14" on="0"/>
        <pt x="92" y="60" on="0"/>
        <pt x="20" y="183" on="0"/>
        <pt x="20" y="258" on="1"/>
        <pt x="20" y="333" on="0"/>
        <pt x="92" y="457" on="0"/>
        <pt x="219" y="530" on="0"/>
        <pt x="299" y="530" on="1"/>
        <pt x="360" y="530" on="0"/>
        <pt x="413" y="508" on="1"/>
        <pt x="413" y="371" on="1"/>
        <pt x="397" y="385" on="0"/>
        <pt x="337" y="407" on="0"/>
        <pt x="299" y="407" on="1"/>
        <pt x="256" y="407" on="0"/>
        <pt x="192" y="366" on="0"/>
        <pt x="157" y="299" on="0"/>
        <pt x="157" y="258" on="1"/>
        <pt x="157" y="218" on="0"/>
        <pt x="192" y="150" on="0"/>
        <pt x="256" y="109" on="0"/>
        <pt x="299" y="109" on="1"/>
        <pt x="374" y="109" on="0"/>
        <pt x="418" y="152" on="1"/>
        <pt x="413" y="8" on="1"/>
        <pt x="360" y="-14" on="0"/>
      </contour>
    </TTGlyph>
    <TTGlyph name="cacute" xMin="20" yMin="-13" xMax="511" yMax="740">
      <component glyphName="c" x="0" y="0" flags="0x204"/>
      <component glyphName="acutecomb" x="299" y="0" flags="0x4"/>
    </TTGlyph>
    <TTGlyph name="cacute.ss01" xMin="20" yMin="-14" xMax="419" yMax="740">
      <component glyphName="c.ss01" x="0" y="0" flags="0x204"/>
      <component glyphName="acutecomb" x="286" y="0" flags="0x4"/>
    </TTGlyph>
    <TTGlyph name="caron" xMin="146" yMin="566" xMax="454" yMax="740">
      <component glyphName="uni030C" x="301" y="0" flags="0x4"/>
    </TTGlyph>
    <TTGlyph name="ccaron" xMin="20" yMin="-13" xMax="511" yMax="740">
      <component glyphName="c" x="0" y="0" flags="0x204"/>
      <component glyphName="uni030C" x="299" y="0" flags="0x4"/>
    </TTGlyph>
    <TTGlyph name="ccaron.ss01" xMin="20" yMin="-14" xMax="439" yMax="740">
      <component glyphName="c.ss01" x="0" y="0" flags="0x204"/>
      <component glyphName="uni030C" x="286" y="0" flags="0x4"/>
    </TTGlyph>
    <TTGlyph name="ccedilla" xMin="20" yMin="-213" xMax="511" yMax="534">
      <component glyphName="c" x="0" y="0" flags="0x204"/>
      <component glyphName="uni0327" x="300" y="0" flags="0x4"/>
    </TTGlyph>
    <TTGlyph name="ccedilla.ss01" xMin="20" yMin="-213" xMax="418" yMax="530">
      <component glyphName="c.ss01" x="0" y="0" flags="0x204"/>
      <component glyphName="uni0327" x="300" y="0" flags="0x4"/>
    </TTGlyph>
    <TTGlyph name="ccircumflex" xMin="20" yMin="-13" xMax="511" yMax="740">
      <component glyphName="c" x="0" y="0" flags="0x204"/>
      <component glyphName="uni0302" x="299" y="0" flags="0x4"/>
    </TTGlyph>
    <TTGlyph name="ccircumflex.ss01" xMin="20" yMin="-14" xMax="439" yMax="740">
      <component glyphName="c.ss01" x="0" y="0" flags="0x204"/>
      <component glyphName="uni0302" x="286" y="0" flags="0x4"/>
    </TTGlyph>
    <TTGlyph name="cdotaccent" xMin="20" yMin="-13" xMax="511" yMax="722">
      <component glyphName="c" x="0" y="0" flags="0x204"/>
      <component glyphName="uni0307" x="299" y="0" flags="0x4"/>
    </TTGlyph>
    <TTGlyph name="cdotaccent.ss01" xMin="20" yMin="-14" xMax="418" yMax="722">
      <component glyphName="c.ss01" x="0" y="0" flags="0x204"/>
      <component glyphName="uni0307" x="286" y="0" flags="0x4"/>
    </TTGlyph>
    <TTGlyph name="cedilla" xMin="115" yMin="-213" xMax="310" yMax="10">
      <component glyphName="uni0327" x="230" y="0" flags="0x4"/>
    </TTGlyph>
    <TTGlyph name="cent" xMin="29" yMin="0" xMax="480" yMax="700">
      <contour>
        <pt x="219" y="0" on="1"/>
        <pt x="219" y="104" on="1"/>
        <pt x="161" y="118" on="0"/>
        <pt x="76" y="187" on="0"/>
        <pt x="29" y="284" on="0"/>
        <pt x="29" y="340" on="1"/>
        <pt x="29" y="396" on="0"/>
        <pt x="76" y="493" on="0"/>
        <pt x="161" y="562" on="0"/>
        <pt x="219" y="576" on="1"/>
        <pt x="219" y="700" on="1"/>
        <pt x="329" y="700" on="1"/>
        <pt x="329" y="579" on="1"/>
        <pt x="374" y="572" on="0"/>
        <pt x="447" y="528" on="0"/>
        <pt x="476" y="496" on="1"/>
        <pt x="384" y="421" on="1"/>
        <pt x="366" y="441" on="0"/>
        <pt x="318" y="468" on="0"/>
        <pt x="284" y="468" on="1"/>
        <pt x="223" y="468" on="0"/>
        <pt x="156" y="397" on="0"/>
        <pt x="156" y="340" on="1"/>
        <pt x="156" y="283" on="0"/>
        <pt x="223" y="212" on="0"/>
        <pt x="284" y="212" on="1"/>
        <pt x="321" y="212" on="0"/>
        <pt x="373" y="242" on="0"/>
        <pt x="392" y="265" on="1"/>
        <pt x="480" y="189" on="1"/>
        <pt x="451" y="155" on="0"/>
        <pt x="376" y="108" on="0"/>
        <pt x="329" y="101" on="1"/>
        <pt x="329" y="0" on="1"/>
      </contour>
    </TTGlyph>
    <TTGlyph name="cent.tf" xMin="76" yMin="0" xMax="527" yMax="700">
      <component glyphName="cent" x="47" y="0" flags="0x4"/>
    </TTGlyph>
    <TTGlyph name="circumflex" xMin="146" yMin="566" xMax="454" yMax="740">
      <component glyphName="uni0302" x="301" y="0" flags="0x4"/>
    </TTGlyph>
    <TTGlyph name="colon" xMin="22" yMin="-13" xMax="201" yMax="548">
      <component glyphName="period" x="0" y="386" flags="0x204"/>
      <component glyphName="period" x="0" y="0" flags="0x4"/>
    </TTGlyph>
    <TTGlyph name="colon.tf" xMin="210" yMin="-13" xMax="389" yMax="548">
      <component glyphName="period" x="188" y="386" flags="0x4"/>
      <component glyphName="period" x="188" y="0" flags="0x4"/>
    </TTGlyph>
    <TTGlyph name="comma" xMin="30" yMin="-139" xMax="212" yMax="149">
      <contour>
        <pt x="60" y="-139" on="1"/>
        <pt x="33" y="-72" on="1"/>
        <pt x="61" y="-62" on="1"/>
        <pt x="92" y="-51" on="0"/>
        <pt x="124" y="-27" on="0"/>
        <pt x="131" y="-7" on="1"/>
        <pt x="119" y="-10" on="0"/>
        <pt x="108" y="-10" on="1"/>
        <pt x="78" y="-10" on="0"/>
        <pt x="30" y="37" on="0"/>
        <pt x="30" y="70" on="1"/>
        <pt x="30" y="102" on="0"/>
        <pt x="79" y="149" on="0"/>
        <pt x="112" y="149" on="1"/>
        <pt x="157" y="149" on="0"/>
        <pt x="212" y="87" on="0"/>
        <pt x="212" y="33" on="1"/>
        <pt x="212" y="-25" on="0"/>
        <pt x="144" y="-109" on="0"/>
        <pt x="88" y="-129" on="1"/>
      </contour>
    </TTGlyph>
    <TTGlyph name="comma.tf" xMin="211" yMin="-139" xMax="393" yMax="149">
      <component glyphName="comma" x="181" y="0" flags="0x4"/>
    </TTGlyph>
    <TTGlyph name="copyright" xMin="15" yMin="-75" xMax="826" yMax="728">
      <contour>
        <pt x="420" y="-75" on="1"/>
        <pt x="337" y="-75" on="0"/>
        <pt x="190" y="-13" on="0"/>
        <pt x="78" y="98" on="0"/>
        <pt x="15" y="243" on="0"/>
        <pt x="15" y="327" on="1"/>
        <pt x="15" y="410" on="0"/>
        <pt x="78" y="556" on="0"/>
        <pt x="190" y="666" on="0"/>
        <pt x="337" y="728" on="0"/>
        <pt x="420" y="728" on="1"/>
        <pt x="504" y="728" on="0"/>
        <pt x="651" y="666" on="0"/>
        <pt x="763" y="556" on="0"/>
        <pt x="826" y="410" on="0"/>
        <pt x="826" y="327" on="1"/>
        <pt x="826" y="243" on="0"/>
        <pt x="762" y="98" on="0"/>
        <pt x="650" y="-13" on="0"/>
        <pt x="503" y="-75" on="0"/>
      </contour>
      <contour>
        <pt x="420" y="2" on="1"/>
        <pt x="487" y="2" on="0"/>
        <pt x="603" y="53" on="0"/>
        <pt x="692" y="142" on="0"/>
        <pt x="742" y="260" on="0"/>
        <pt x="742" y="327" on="1"/>
        <pt x="742" y="394" on="0"/>
        <pt x="692" y="511" on="0"/>
        <pt x="604" y="600" on="0"/>
        <pt x="487" y="651" on="0"/>
        <pt x="420" y="651" on="1"/>
        <pt x="353" y="651" on="0"/>
        <pt x="237" y="600" on="0"/>
        <pt x="149" y="511" on="0"/>
        <pt x="99" y="394" on="0"/>
        <pt x="99" y="327" on="1"/>
        <pt x="99" y="260" on="0"/>
        <pt x="149" y="142" on="0"/>
        <pt x="237" y="53" on="0"/>
        <pt x="353" y="2" on="0"/>
      </contour>
      <contour>
        <pt x="422" y="89" on="1"/>
        <pt x="346" y="89" on="0"/>
        <pt x="239" y="154" on="0"/>
        <pt x="183" y="263" on="0"/>
        <pt x="183" y="329" on="1"/>
        <pt x="183" y="395" on="0"/>
        <pt x="241" y="504" on="0"/>
        <pt x="350" y="569" on="0"/>
        <pt x="425" y="569" on="1"/>
        <pt x="488" y="569" on="0"/>
        <pt x="582" y="526" on="0"/>
        <pt x="613" y="486" on="1"/>
        <pt x="521" y="409" on="1"/>
        <pt x="505" y="433" on="0"/>
        <pt x="457" y="460" on="0"/>
        <pt x="427" y="460" on="1"/>
        <pt x="370" y="460" on="0"/>
        <pt x="302" y="382" on="0"/>
        <pt x="302" y="329" on="1"/>
        <pt x="302" y="293" on="0"/>
        <pt x="334" y="233" on="0"/>
        <pt x="392" y="197" on="0"/>
        <pt x="430" y="197" on="1"/>
        <pt x="465" y="197" on="0"/>
        <pt x="512" y="230" on="0"/>
        <pt x="530" y="254" on="1"/>
        <pt x="619" y="174" on="1"/>
        <pt x="584" y="134" on="0"/>
        <pt x="487" y="89" on="0"/>
      </contour>
    </TTGlyph>
    <TTGlyph name="currency" xMin="47" yMin="54" xMax="553" yMax="591">
      <contour>
        <pt x="135" y="54" on="1"/>
        <pt x="47" y="135" on="1"/>
        <pt x="112" y="205" on="1"/>
        <pt x="78" y="257" on="0"/>
        <pt x="78" y="322" on="1"/>
        <pt x="78" y="387" on="0"/>
        <pt x="112" y="440" on="1"/>
        <pt x="47" y="510" on="1"/>
        <pt x="135" y="591" on="1"/>
        <pt x="202" y="517" on="1"/>
        <pt x="247" y="538" on="0"/>
        <pt x="300" y="538" on="1"/>
        <pt x="353" y="538" on="0"/>
        <pt x="398" y="517" on="1"/>
        <pt x="465" y="591" on="1"/>
        <pt x="553" y="510" on="1"/>
        <pt x="488" y="440" on="1"/>
        <pt x="522" y="387" on="0"/>
        <pt x="522" y="322" on="1"/>
        <pt x="522" y="257" on="0"/>
        <pt x="488" y="205" on="1"/>
        <pt x="553" y="135" on="1"/>
        <pt x="465" y="54" on="1"/>
        <pt x="398" y="127" on="1"/>
        <pt x="353" y="107" on="0"/>
        <pt x="300" y="107" on="1"/>
        <pt x="247" y="107" on="0"/>
        <pt x="202" y="127" on="1"/>
      </contour>
      <contour>
        <pt x="300" y="221" on="1"/>
        <pt x="345" y="221" on="0"/>
        <pt x="400" y="279" on="0"/>
        <pt x="400" y="322" on="1"/>
        <pt x="400" y="365" on="0"/>
        <pt x="345" y="424" on="0"/>
        <pt x="300" y="424" on="1"/>
        <pt x="255" y="424" on="0"/>
        <pt x="200" y="365" on="0"/>
        <pt x="200" y="322" on="1"/>
        <pt x="200" y="279" on="0"/>
        <pt x="255" y="221" on="0"/>
      </contour>
    </TTGlyph>
    <TTGlyph name="currency.tf" xMin="47" yMin="54" xMax="553" yMax="591">
      <component glyphName="currency" x="0" y="0" flags="0x204"/>
    </TTGlyph>
    <TTGlyph name="d" xMin="20" yMin="-13" xMax="576" yMax="730">
      <contour>
        <pt x="277" y="-13" on="1"/>
        <pt x="206" y="-13" on="0"/>
        <pt x="89" y="60" on="0"/>
        <pt x="20" y="183" on="0"/>
        <pt x="20" y="258" on="1"/>
        <pt x="20" y="314" on="0"/>
        <pt x="60" y="413" on="0"/>
        <pt x="130" y="488" on="0"/>
        <pt x="223" y="531" on="0"/>
        <pt x="277" y="531" on="1"/>
        <pt x="344" y="531" on="0"/>
        <pt x="420" y="481" on="0"/>
        <pt x="441" y="440" on="1"/>
        <pt x="441" y="730" on="1"/>
        <pt x="576" y="730" on="1"/>
        <pt x="576" y="0" on="1"/>
        <pt x="445" y="0" on="1"/>
        <pt x="445" y="85" on="1"/>
        <pt x="424" y="41" on="0"/>
        <pt x="347" y="-13" on="0"/>
      </contour>
      <contour>
        <pt x="299" y="109" on="1"/>
        <pt x="344" y="109" on="0"/>
        <pt x="409" y="150" on="0"/>
        <pt x="445" y="218" on="0"/>
        <pt x="445" y="258" on="1"/>
        <pt x="445" y="299" on="0"/>
        <pt x="409" y="367" on="0"/>
        <pt x="344" y="409" on="0"/>
        <pt x="299" y="409" on="1"/>
        <pt x="256" y="409" on="0"/>
        <pt x="191" y="368" on="0"/>
        <pt x="155" y="300" on="0"/>
        <pt x="155" y="259" on="1"/>
        <pt x="155" y="220" on="0"/>
        <pt x="191" y="151" on="0"/>
        <pt x="256" y="109" on="0"/>
      </contour>
    </TTGlyph>
    <TTGlyph name="dagger" xMin="40" yMin="290" xMax="340" yMax="742">
      <contour>
        <pt x="135" y="290" on="1"/>
        <pt x="135" y="556" on="1"/>
        <pt x="40" y="556" on="1"/>
        <pt x="40" y="651" on="1"/>
        <pt x="135" y="651" on="1"/>
        <pt x="135" y="742" on="1"/>
        <pt x="245" y="742" on="1"/>
        <pt x="245" y="651" on="1"/>
        <pt x="340" y="651" on="1"/>
        <pt x="340" y="556" on="1"/>
        <pt x="245" y="556" on="1"/>
        <pt x="245" y="290" on="1"/>
      </contour>
    </TTGlyph>
    <TTGlyph name="daggerdbl" xMin="40" yMin="290" xMax="340" yMax="742">
      <contour>
        <pt x="135" y="290" on="1"/>
        <pt x="135" y="381" on="1"/>
        <pt x="40" y="381" on="1"/>
        <pt x="40" y="474" on="1"/>
        <pt x="135" y="474" on="1"/>
        <pt x="135" y="558" on="1"/>
        <pt x="40" y="558" on="1"/>
        <pt x="40" y="651" on="1"/>
        <pt x="135" y="651" on="1"/>
        <pt x="135" y="742" on="1"/>
        <pt x="245" y="742" on="1"/>
        <pt x="245" y="651" on="1"/>
        <pt x="340" y="651" on="1"/>
        <pt x="340" y="558" on="1"/>
        <pt x="245" y="558" on="1"/>
        <pt x="245" y="474" on="1"/>
        <pt x="340" y="474" on="1"/>
        <pt x="340" y="381" on="1"/>
        <pt x="245" y="381" on="1"/>
        <pt x="245" y="290" on="1"/>
      </contour>
    </TTGlyph>
    <TTGlyph name="dcaron" xMin="20" yMin="-13" xMax="789" yMax="730">
      <component glyphName="d" x="0" y="0" flags="0x4"/>
      <component glyphName="uni030C.alt" x="586" y="30" flags="0x4"/>
    </TTGlyph>
    <TTGlyph name="dcroat" xMin="20" yMin="-13" xMax="641" yMax="730">
      <contour>
        <pt x="277" y="-13" on="1"/>
        <pt x="206" y="-13" on="0"/>
        <pt x="89" y="60" on="0"/>
        <pt x="20" y="183" on="0"/>
        <pt x="20" y="258" on="1"/>
        <pt x="20" y="314" on="0"/>
        <pt x="60" y="413" on="0"/>
        <pt x="130" y="488" on="0"/>
        <pt x="223" y="531" on="0"/>
        <pt x="277" y="531" on="1"/>
        <pt x="344" y="531" on="0"/>
        <pt x="420" y="481" on="0"/>
        <pt x="441" y="440" on="1"/>
        <pt x="441" y="571" on="1"/>
        <pt x="300" y="571" on="1"/>
        <pt x="300" y="671" on="1"/>
        <pt x="441" y="671" on="1"/>
        <pt x="441" y="730" on="1"/>
        <pt x="576" y="730" on="1"/>
        <pt x="576" y="671" on="1"/>
        <pt x="641" y="671" on="1"/>
        <pt x="641" y="571" on="1"/>
        <pt x="576" y="571" on="1"/>
        <pt x="576" y="0" on="1"/>
        <pt x="445" y="0" on="1"/>
        <pt x="445" y="85" on="1"/>
        <pt x="424" y="41" on="0"/>
        <pt x="347" y="-13" on="0"/>
      </contour>
      <contour>
        <pt x="299" y="109" on="1"/>
        <pt x="344" y="109" on="0"/>
        <pt x="409" y="150" on="0"/>
        <pt x="445" y="218" on="0"/>
        <pt x="445" y="258" on="1"/>
        <pt x="445" y="299" on="0"/>
        <pt x="409" y="367" on="0"/>
        <pt x="344" y="409" on="0"/>
        <pt x="299" y="409" on="1"/>
        <pt x="256" y="409" on="0"/>
        <pt x="191" y="368" on="0"/>
        <pt x="155" y="300" on="0"/>
        <pt x="155" y="259" on="1"/>
        <pt x="155" y="220" on="0"/>
        <pt x="191" y="151" on="0"/>
        <pt x="256" y="109" on="0"/>
      </contour>
    </TTGlyph>
    <TTGlyph name="degree" xMin="18" yMin="387" xMax="345" yMax="709">
      <contour>
        <pt x="181" y="387" on="1"/>
        <pt x="133" y="387" on="0"/>
        <pt x="60" y="430" on="0"/>
        <pt x="18" y="502" on="0"/>
        <pt x="18" y="546" on="1"/>
        <pt x="18" y="591" on="0"/>
        <pt x="60" y="665" on="0"/>
        <pt x="133" y="709" on="0"/>
        <pt x="181" y="709" on="1"/>
        <pt x="229" y="709" on="0"/>
        <pt x="303" y="664" on="0"/>
        <pt x="345" y="590" on="0"/>
        <pt x="345" y="546" on="1"/>
        <pt x="345" y="502" on="0"/>
        <pt x="303" y="430" on="0"/>
        <pt x="229" y="387" on="0"/>
      </contour>
      <contour>
        <pt x="181" y="480" on="1"/>
        <pt x="210" y="480" on="0"/>
        <pt x="246" y="518" on="0"/>
        <pt x="245" y="546" on="1"/>
        <pt x="245" y="575" on="0"/>
        <pt x="210" y="615" on="0"/>
        <pt x="181" y="615" on="1"/>
        <pt x="153" y="615" on="0"/>
        <pt x="117" y="575" on="0"/>
        <pt x="117" y="546" on="1"/>
        <pt x="117" y="519" on="0"/>
        <pt x="153" y="480" on="0"/>
      </contour>
    </TTGlyph>
    <TTGlyph name="dieresis" xMin="78" yMin="563" xMax="452" yMax="722">
      <component glyphName="uni0308" x="265" y="0" flags="0x4"/>
    </TTGlyph>
    <TTGlyph name="divide" xMin="45" yMin="16" xMax="498" yMax="534">
      <contour>
        <pt x="272" y="383" on="1"/>
        <pt x="239" y="383" on="0"/>
        <pt x="195" y="428" on="0"/>
        <pt x="195" y="459" on="1"/>
        <pt x="195" y="489" on="0"/>
        <pt x="239" y="534" on="0"/>
        <pt x="272" y="534" on="1"/>
        <pt x="305" y="534" on="0"/>
        <pt x="349" y="489" on="0"/>
        <pt x="349" y="459" on="1"/>
        <pt x="349" y="427" on="0"/>
        <pt x="305" y="383" on="0"/>
      </contour>
      <contour>
        <pt x="45" y="221" on="1"/>
        <pt x="45" y="331" on="1"/>
        <pt x="498" y="331" on="1"/>
        <pt x="498" y="221" on="1"/>
      </contour>
      <contour>
        <pt x="270" y="16" on="1"/>
        <pt x="237" y="16" on="0"/>
        <pt x="193" y="60" on="0"/>
        <pt x="193" y="92" on="1"/>
        <pt x="193" y="122" on="0"/>
        <pt x="237" y="167" on="0"/>
        <pt x="270" y="167" on="1"/>
        <pt x="303" y="167" on="0"/>
        <pt x="347" y="122" on="0"/>
        <pt x="347" y="92" on="1"/>
        <pt x="347" y="60" on="0"/>
        <pt x="303" y="16" on="0"/>
      </contour>
    </TTGlyph>
    <TTGlyph name="dollar" xMin="10" yMin="-84" xMax="534" yMax="810">
      <contour>
        <pt x="245" y="-84" on="1"/>
        <pt x="245" y="-12" on="1"/>
        <pt x="172" y="-6" on="0"/>
        <pt x="51" y="66" on="0"/>
        <pt x="10" y="138" on="1"/>
        <pt x="131" y="215" on="1"/>
        <pt x="158" y="161" on="0"/>
        <pt x="240" y="112" on="0"/>
        <pt x="286" y="112" on="1"/>
        <pt x="335" y="112" on="0"/>
        <pt x="391" y="156" on="0"/>
        <pt x="391" y="192" on="1"/>
        <pt x="391" y="227" on="0"/>
        <pt x="347" y="269" on="0"/>
        <pt x="274" y="295" on="0"/>
        <pt x="231" y="306" on="1"/>
        <pt x="150" y="327" on="0"/>
        <pt x="54" y="424" on="0"/>
        <pt x="54" y="503" on="1"/>
        <pt x="54" y="585" on="0"/>
        <pt x="158" y="694" on="0"/>
        <pt x="245" y="708" on="1"/>
        <pt x="245" y="810" on="1"/>
        <pt x="355" y="810" on="1"/>
        <pt x="355" y="708" on="1"/>
        <pt x="414" y="697" on="0"/>
        <pt x="500" y="633" on="0"/>
        <pt x="532" y="582" on="1"/>
        <pt x="412" y="508" on="1"/>
        <pt x="387" y="549" on="0"/>
        <pt x="333" y="587" on="0"/>
        <pt x="294" y="587" on="1"/>
        <pt x="252" y="587" on="0"/>
        <pt x="197" y="545" on="0"/>
        <pt x="197" y="510" on="1"/>
        <pt x="197" y="471" on="0"/>
        <pt x="262" y="436" on="0"/>
        <pt x="308" y="422" on="1"/>
        <pt x="339" y="412" on="0"/>
        <pt x="416" y="385" on="0"/>
        <pt x="488" y="338" on="0"/>
        <pt x="534" y="260" on="0"/>
        <pt x="534" y="200" on="1"/>
        <pt x="534" y="121" on="0"/>
        <pt x="440" y="12" on="0"/>
        <pt x="355" y="-5" on="1"/>
        <pt x="355" y="-84" on="1"/>
      </contour>
    </TTGlyph>
    <TTGlyph name="dollar.tf" xMin="38" yMin="-84" xMax="562" yMax="810">
      <component glyphName="dollar" x="28" y="0" flags="0x4"/>
    </TTGlyph>
    <TTGlyph name="dotaccent" xMin="184" yMin="563" xMax="346" yMax="722">
      <component glyphName="uni0307" x="265" y="0" flags="0x4"/>
    </TTGlyph>
    <TTGlyph name="dotbelowcomb" xMin="-82" yMin="-213" xMax="80" yMax="-54">
      <contour>
        <pt x="-1" y="-213" on="1"/>
        <pt x="-35" y="-213" on="0"/>
        <pt x="-82" y="-166" on="0"/>
        <pt x="-82" y="-133" on="1"/>
        <pt x="-82" y="-101" on="0"/>
        <pt x="-35" y="-54" on="0"/>
        <pt x="-1" y="-54" on="1"/>
        <pt x="34" y="-54" on="0"/>
        <pt x="80" y="-101" on="0"/>
        <pt x="80" y="-133" on="1"/>
        <pt x="80" y="-167" on="0"/>
        <pt x="34" y="-213" on="0"/>
      </contour>
    </TTGlyph>
    <TTGlyph name="dotlessi" xMin="40" yMin="0" xMax="175" yMax="520">
      <contour>
        <pt x="40" y="0" on="1"/>
        <pt x="40" y="520" on="1"/>
        <pt x="175" y="520" on="1"/>
        <pt x="175" y="0" on="1"/>
      </contour>
    </TTGlyph>
    <TTGlyph name="e" xMin="20" yMin="-13" xMax="553" yMax="533">
      <contour>
        <pt x="289" y="-13" on="1"/>
        <pt x="209" y="-13" on="0"/>
        <pt x="87" y="61" on="0"/>
        <pt x="20" y="184" on="0"/>
        <pt x="20" y="259" on="1"/>
        <pt x="20" y="334" on="0"/>
        <pt x="90" y="459" on="0"/>
        <pt x="211" y="533" on="0"/>
        <pt x="289" y="533" on="1"/>
        <pt x="367" y="533" on="0"/>
        <pt x="486" y="459" on="0"/>
        <pt x="553" y="334" on="0"/>
        <pt x="553" y="259" on="1"/>
        <pt x="553" y="248" on="0"/>
        <pt x="551" y="224" on="0"/>
        <pt x="549" y="211" on="1"/>
        <pt x="160" y="211" on="1"/>
        <pt x="171" y="165" on="0"/>
        <pt x="238" y="107" on="0"/>
        <pt x="289" y="107" on="1"/>
        <pt x="333" y="107" on="0"/>
        <pt x="398" y="147" on="0"/>
        <pt x="416" y="177" on="1"/>
        <pt x="521" y="98" on="1"/>
        <pt x="490" y="49" on="0"/>
        <pt x="366" y="-13" on="0"/>
      </contour>
      <contour>
        <pt x="287" y="417" on="1"/>
        <pt x="239" y="417" on="0"/>
        <pt x="171" y="359" on="0"/>
        <pt x="160" y="312" on="1"/>
        <pt x="417" y="312" on="1"/>
        <pt x="406" y="355" on="0"/>
        <pt x="337" y="417" on="0"/>
      </contour>
    </TTGlyph>
    <TTGlyph name="eacute" xMin="20" yMin="-13" xMax="553" yMax="740">
      <component glyphName="e" x="0" y="0" flags="0x204"/>
      <component glyphName="acutecomb" x="286" y="0" flags="0x4"/>
    </TTGlyph>
    <TTGlyph name="ecaron" xMin="20" yMin="-13" xMax="553" yMax="740">
      <component glyphName="e" x="0" y="0" flags="0x204"/>
      <component glyphName="uni030C" x="286" y="0" flags="0x4"/>
    </TTGlyph>
    <TTGlyph name="ecircumflex" xMin="20" yMin="-13" xMax="553" yMax="740">
      <component glyphName="e" x="0" y="0" flags="0x204"/>
      <component glyphName="uni0302" x="286" y="0" flags="0x4"/>
    </TTGlyph>
    <TTGlyph name="edieresis" xMin="20" yMin="-13" xMax="553" yMax="722">
      <component glyphName="e" x="0" y="0" flags="0x204"/>
      <component glyphName="uni0308" x="286" y="0" flags="0x4"/>
    </TTGlyph>
    <TTGlyph name="edotaccent" xMin="20" yMin="-13" xMax="553" yMax="722">
      <component glyphName="e" x="0" y="0" flags="0x204"/>
      <component glyphName="uni0307" x="286" y="0" flags="0x4"/>
    </TTGlyph>
    <TTGlyph name="egrave" xMin="20" yMin="-13" xMax="553" yMax="740">
      <component glyphName="e" x="0" y="0" flags="0x204"/>
      <component glyphName="gravecomb" x="286" y="0" flags="0x4"/>
    </TTGlyph>
    <TTGlyph name="eight" xMin="24" yMin="-13" xMax="508" yMax="713">
      <contour>
        <pt x="266" y="-13" on="1"/>
        <pt x="191" y="-13" on="0"/>
        <pt x="82" y="40" on="0"/>
        <pt x="24" y="132" on="0"/>
        <pt x="24" y="188" on="1"/>
        <pt x="24" y="254" on="0"/>
        <pt x="82" y="341" on="0"/>
        <pt x="126" y="364" on="1"/>
        <pt x="87" y="387" on="0"/>
        <pt x="44" y="463" on="0"/>
        <pt x="44" y="514" on="1"/>
        <pt x="44" y="571" on="0"/>
        <pt x="95" y="661" on="0"/>
        <pt x="194" y="713" on="0"/>
        <pt x="266" y="713" on="1"/>
        <pt x="339" y="713" on="0"/>
        <pt x="437" y="661" on="0"/>
        <pt x="488" y="571" on="0"/>
        <pt x="488" y="514" on="1"/>
        <pt x="488" y="412" on="0"/>
        <pt x="406" y="364" on="1"/>
        <pt x="450" y="340" on="0"/>
        <pt x="508" y="254" on="0"/>
        <pt x="508" y="188" on="1"/>
        <pt x="508" y="132" on="0"/>
        <pt x="450" y="40" on="0"/>
        <pt x="342" y="-13" on="0"/>
      </contour>
      <contour>
        <pt x="266" y="418" on="1"/>
        <pt x="305" y="418" on="0"/>
        <pt x="354" y="469" on="0"/>
        <pt x="355" y="508" on="1"/>
        <pt x="356" y="544" on="0"/>
        <pt x="307" y="593" on="0"/>
        <pt x="266" y="593" on="1"/>
        <pt x="227" y="593" on="0"/>
        <pt x="178" y="544" on="0"/>
        <pt x="178" y="508" on="1"/>
        <pt x="178" y="469" on="0"/>
        <pt x="227" y="418" on="0"/>
      </contour>
      <contour>
        <pt x="266" y="107" on="1"/>
        <pt x="311" y="107" on="0"/>
        <pt x="370" y="166" on="0"/>
        <pt x="370" y="206" on="1"/>
        <pt x="370" y="250" on="0"/>
        <pt x="311" y="307" on="0"/>
        <pt x="266" y="307" on="1"/>
        <pt x="221" y="307" on="0"/>
        <pt x="162" y="250" on="0"/>
        <pt x="162" y="206" on="1"/>
        <pt x="162" y="166" on="0"/>
        <pt x="221" y="107" on="0"/>
      </contour>
    </TTGlyph>
    <TTGlyph name="eight.tf" xMin="58" yMin="-13" xMax="542" yMax="713">
      <component glyphName="eight" x="34" y="0" flags="0x4"/>
    </TTGlyph>
    <TTGlyph name="ellipsis" xMin="22" yMin="-13" xMax="620" yMax="159">
      <contour>
        <pt x="321" y="-13" on="1"/>
        <pt x="283" y="-13" on="0"/>
        <pt x="233" y="38" on="0"/>
        <pt x="233" y="74" on="1"/>
        <pt x="233" y="108" on="0"/>
        <pt x="283" y="159" on="0"/>
        <pt x="321" y="159" on="1"/>
        <pt x="359" y="159" on="0"/>
        <pt x="408" y="108" on="0"/>
        <pt x="408" y="74" on="1"/>
        <pt x="408" y="38" on="0"/>
        <pt x="359" y="-13" on="0"/>
      </contour>
      <contour>
        <pt x="533" y="-13" on="1"/>
        <pt x="495" y="-13" on="0"/>
        <pt x="445" y="38" on="0"/>
        <pt x="445" y="74" on="1"/>
        <pt x="445" y="108" on="0"/>
        <pt x="495" y="159" on="0"/>
        <pt x="533" y="159" on="1"/>
        <pt x="571" y="159" on="0"/>
        <pt x="620" y="108" on="0"/>
        <pt x="620" y="74" on="1"/>
        <pt x="620" y="38" on="0"/>
        <pt x="571" y="-13" on="0"/>
      </contour>
      <contour>
        <pt x="110" y="-13" on="1"/>
        <pt x="72" y="-13" on="0"/>
        <pt x="22" y="38" on="0"/>
        <pt x="22" y="74" on="1"/>
        <pt x="22" y="108" on="0"/>
        <pt x="72" y="159" on="0"/>
        <pt x="110" y="159" on="1"/>
        <pt x="148" y="159" on="0"/>
        <pt x="197" y="108" on="0"/>
        <pt x="197" y="74" on="1"/>
        <pt x="197" y="38" on="0"/>
        <pt x="148" y="-13" on="0"/>
      </contour>
    </TTGlyph>
    <TTGlyph name="emacron" xMin="20" yMin="-13" xMax="553" yMax="688">
      <component glyphName="e" x="0" y="0" flags="0x204"/>
      <component glyphName="uni0304" x="287" y="0" flags="0x4"/>
    </TTGlyph>
    <TTGlyph name="emdash" xMin="30" yMin="210" xMax="802" yMax="341">
      <contour>
        <pt x="30" y="210" on="1"/>
        <pt x="30" y="341" on="1"/>
        <pt x="802" y="341" on="1"/>
        <pt x="802" y="210" on="1"/>
      </contour>
    </TTGlyph>
    <TTGlyph name="endash" xMin="30" yMin="210" xMax="602" yMax="341">
      <contour>
        <pt x="30" y="210" on="1"/>
        <pt x="30" y="341" on="1"/>
        <pt x="602" y="341" on="1"/>
        <pt x="602" y="210" on="1"/>
      </contour>
    </TTGlyph>
    <TTGlyph name="eng" xMin="40" yMin="-200" xMax="530" yMax="532">
      <contour>
        <pt x="40" y="0" on="1"/>
        <pt x="40" y="520" on="1"/>
        <pt x="173" y="520" on="1"/>
        <pt x="173" y="444" on="1"/>
        <pt x="214" y="532" on="0"/>
        <pt x="332" y="532" on="1"/>
        <pt x="388" y="532" on="0"/>
        <pt x="478" y="480" on="0"/>
        <pt x="530" y="384" on="0"/>
        <pt x="530" y="318" on="1"/>
        <pt x="530" y="-39" on="1"/>
        <pt x="530" y="-124" on="0"/>
        <pt x="448" y="-200" on="0"/>
        <pt x="371" y="-200" on="1"/>
        <pt x="327" y="-200" on="1"/>
        <pt x="327" y="-80" on="1"/>
        <pt x="353" y="-80" on="1"/>
        <pt x="395" y="-80" on="0"/>
        <pt x="395" y="-32" on="1"/>
        <pt x="395" y="285" on="1"/>
        <pt x="395" y="353" on="0"/>
        <pt x="333" y="414" on="0"/>
        <pt x="283" y="414" on="1"/>
        <pt x="240" y="414" on="0"/>
        <pt x="175" y="353" on="0"/>
        <pt x="175" y="285" on="1"/>
        <pt x="175" y="0" on="1"/>
      </contour>
    </TTGlyph>
    <TTGlyph name="eogonek" xMin="20" yMin="-208" xMax="553" yMax="533">
      <contour>
        <pt x="289" y="-13" on="1"/>
        <pt x="209" y="-13" on="0"/>
        <pt x="87" y="61" on="0"/>
        <pt x="20" y="184" on="0"/>
        <pt x="20" y="259" on="1"/>
        <pt x="20" y="334" on="0"/>
        <pt x="90" y="459" on="0"/>
        <pt x="211" y="533" on="0"/>
        <pt x="289" y="533" on="1"/>
        <pt x="367" y="533" on="0"/>
        <pt x="486" y="459" on="0"/>
        <pt x="553" y="334" on="0"/>
        <pt x="553" y="259" on="1"/>
        <pt x="553" y="248" on="0"/>
        <pt x="551" y="224" on="0"/>
        <pt x="549" y="211" on="1"/>
        <pt x="160" y="211" on="1"/>
        <pt x="171" y="165" on="0"/>
        <pt x="238" y="107" on="0"/>
        <pt x="289" y="107" on="1"/>
        <pt x="333" y="107" on="0"/>
        <pt x="398" y="147" on="0"/>
        <pt x="416" y="177" on="1"/>
        <pt x="521" y="98" on="1"/>
        <pt x="492" y="54" on="0"/>
        <pt x="440" y="25" on="1"/>
        <pt x="391" y="-15" on="1"/>
        <pt x="375" y="-27" on="0"/>
        <pt x="363" y="-52" on="0"/>
        <pt x="363" y="-65" on="1"/>
        <pt x="363" y="-86" on="0"/>
        <pt x="395" y="-105" on="0"/>
        <pt x="414" y="-105" on="1"/>
        <pt x="423" y="-105" on="0"/>
        <pt x="435" y="-102" on="0"/>
        <pt x="440" y="-100" on="1"/>
        <pt x="464" y="-196" on="1"/>
        <pt x="443" y="-203" on="0"/>
        <pt x="406" y="-208" on="0"/>
        <pt x="389" y="-208" on="1"/>
        <pt x="332" y="-208" on="0"/>
        <pt x="269" y="-146" on="0"/>
        <pt x="269" y="-95" on="1"/>
        <pt x="269" y="-71" on="0"/>
        <pt x="283" y="-32" on="0"/>
        <pt x="299" y="-13" on="1"/>
        <pt x="294" y="-13" on="0"/>
      </contour>
      <contour>
        <pt x="287" y="417" on="1"/>
        <pt x="239" y="417" on="0"/>
        <pt x="171" y="359" on="0"/>
        <pt x="160" y="312" on="1"/>
        <pt x="417" y="312" on="1"/>
        <pt x="406" y="355" on="0"/>
        <pt x="337" y="417" on="0"/>
      </contour>
    </TTGlyph>
    <TTGlyph name="equal" xMin="45" yMin="154" xMax="497" yMax="477">
      <contour>
        <pt x="45" y="367" on="1"/>
        <pt x="45" y="477" on="1"/>
        <pt x="497" y="477" on="1"/>
        <pt x="497" y="367" on="1"/>
      </contour>
      <contour>
        <pt x="45" y="154" on="1"/>
        <pt x="45" y="264" on="1"/>
        <pt x="497" y="264" on="1"/>
        <pt x="497" y="154" on="1"/>
      </contour>
    </TTGlyph>
    <TTGlyph name="eth" xMin="20" yMin="-13" xMax="540" yMax="746">
      <contour>
        <pt x="283" y="-13" on="1"/>
        <pt x="206" y="-13" on="0"/>
        <pt x="87" y="56" on="0"/>
        <pt x="20" y="171" on="0"/>
        <pt x="20" y="241" on="1"/>
        <pt x="20" y="298" on="0"/>
        <pt x="61" y="387" on="0"/>
        <pt x="127" y="447" on="0"/>
        <pt x="206" y="479" on="0"/>
        <pt x="244" y="479" on="1"/>
        <pt x="276" y="479" on="0"/>
        <pt x="323" y="463" on="0"/>
        <pt x="340" y="449" on="1"/>
        <pt x="326" y="466" on="0"/>
        <pt x="296" y="493" on="0"/>
        <pt x="280" y="509" on="1"/>
        <pt x="235" y="554" on="1"/>
        <pt x="188" y="513" on="1"/>
        <pt x="130" y="578" on="1"/>
        <pt x="174" y="616" on="1"/>
        <pt x="133" y="657" on="1"/>
        <pt x="244" y="743" on="1"/>
        <pt x="277" y="706" on="1"/>
        <pt x="323" y="746" on="1"/>
        <pt x="380" y="681" on="1"/>
        <pt x="333" y="640" on="1"/>
        <pt x="416" y="545" on="1"/>
        <pt x="465" y="489" on="0"/>
        <pt x="540" y="348" on="0"/>
        <pt x="540" y="263" on="1"/>
        <pt x="540" y="176" on="0"/>
        <pt x="474" y="52" on="0"/>
        <pt x="358" y="-13" on="0"/>
      </contour>
      <contour>
        <pt x="283" y="114" on="1"/>
        <pt x="342" y="114" on="0"/>
        <pt x="409" y="189" on="0"/>
        <pt x="409" y="241" on="1"/>
        <pt x="409" y="294" on="0"/>
        <pt x="341" y="369" on="0"/>
        <pt x="283" y="369" on="1"/>
        <pt x="225" y="369" on="0"/>
        <pt x="157" y="294" on="0"/>
        <pt x="157" y="241" on="1"/>
        <pt x="157" y="207" on="0"/>
        <pt x="188" y="149" on="0"/>
        <pt x="244" y="114" on="0"/>
      </contour>
    </TTGlyph>
    <TTGlyph name="exclam" xMin="32" yMin="-13" xMax="211" yMax="700">
      <contour>
        <pt x="77" y="193" on="1"/>
        <pt x="54" y="577" on="1"/>
        <pt x="54" y="700" on="1"/>
        <pt x="194" y="700" on="1"/>
        <pt x="194" y="577" on="1"/>
        <pt x="171" y="193" on="1"/>
      </contour>
      <contour>
        <pt x="122" y="-13" on="1"/>
        <pt x="83" y="-13" on="0"/>
        <pt x="32" y="39" on="0"/>
        <pt x="32" y="75" on="1"/>
        <pt x="32" y="110" on="0"/>
        <pt x="83" y="162" on="0"/>
        <pt x="122" y="162" on="1"/>
        <pt x="161" y="162" on="0"/>
        <pt x="211" y="110" on="0"/>
        <pt x="211" y="75" on="1"/>
        <pt x="211" y="39" on="0"/>
        <pt x="161" y="-13" on="0"/>
      </contour>
    </TTGlyph>
    <TTGlyph name="exclamdbl" xMin="32" yMin="-13" xMax="414" yMax="700">
      <component glyphName="exclam" x="203" y="0" flags="0x4"/>
      <component glyphName="exclam" x="0" y="0" flags="0x4"/>
    </TTGlyph>
    <TTGlyph name="exclamdown" xMin="32" yMin="-179" xMax="211" yMax="534">
      <contour>
        <pt x="121" y="534" on="1"/>
        <pt x="160" y="534" on="0"/>
        <pt x="211" y="482" on="0"/>
        <pt x="211" y="446" on="1"/>
        <pt x="211" y="411" on="0"/>
        <pt x="160" y="359" on="0"/>
        <pt x="121" y="359" on="1"/>
        <pt x="82" y="359" on="0"/>
        <pt x="32" y="411" on="0"/>
        <pt x="32" y="446" on="1"/>
        <pt x="32" y="482" on="0"/>
        <pt x="82" y="534" on="0"/>
      </contour>
      <contour>
        <pt x="166" y="328" on="1"/>
        <pt x="189" y="-56" on="1"/>
        <pt x="189" y="-179" on="1"/>
        <pt x="49" y="-179" on="1"/>
        <pt x="49" y="-56" on="1"/>
        <pt x="72" y="328" on="1"/>
      </contour>
    </TTGlyph>
    <TTGlyph name="f" xMin="5" yMin="0" xMax="319" yMax="730">
      <contour>
        <pt x="78" y="0" on="1"/>
        <pt x="78" y="405" on="1"/>
        <pt x="5" y="405" on="1"/>
        <pt x="5" y="520" on="1"/>
        <pt x="78" y="520" on="1"/>
        <pt x="78" y="555" on="1"/>
        <pt x="78" y="634" on="0"/>
        <pt x="172" y="730" on="0"/>
        <pt x="251" y="730" on="1"/>
        <pt x="307" y="730" on="1"/>
        <pt x="307" y="615" on="1"/>
        <pt x="272" y="615" on="1"/>
        <pt x="213" y="615" on="0"/>
        <pt x="213" y="553" on="1"/>
        <pt x="213" y="520" on="1"/>
        <pt x="319" y="520" on="1"/>
        <pt x="319" y="405" on="1"/>
        <pt x="213" y="405" on="1"/>
        <pt x="213" y="0" on="1"/>
      </contour>
    </TTGlyph>
    <TTGlyph name="f_f.ss02" xMin="5" yMin="0" xMax="590" yMax="730">
      <contour>
        <pt x="78" y="0" on="1"/>
        <pt x="78" y="405" on="1"/>
        <pt x="5" y="405" on="1"/>
        <pt x="5" y="520" on="1"/>
        <pt x="78" y="520" on="1"/>
        <pt x="78" y="540" on="1"/>
        <pt x="78" y="601" on="0"/>
        <pt x="129" y="685" on="0"/>
        <pt x="216" y="730" on="0"/>
        <pt x="271" y="730" on="1"/>
        <pt x="319" y="730" on="0"/>
        <pt x="390" y="708" on="0"/>
        <pt x="416" y="678" on="1"/>
        <pt x="433" y="704" on="0"/>
        <pt x="487" y="730" on="0"/>
        <pt x="532" y="730" on="1"/>
        <pt x="578" y="730" on="1"/>
        <pt x="578" y="615" on="1"/>
        <pt x="543" y="615" on="1"/>
        <pt x="484" y="615" on="0"/>
        <pt x="484" y="553" on="1"/>
        <pt x="484" y="520" on="1"/>
        <pt x="590" y="520" on="1"/>
        <pt x="590" y="405" on="1"/>
        <pt x="484" y="405" on="1"/>
        <pt x="484" y="0" on="1"/>
        <pt x="349" y="0" on="1"/>
        <pt x="349" y="405" on="1"/>
        <pt x="213" y="405" on="1"/>
        <pt x="213" y="0" on="1"/>
      </contour>
      <contour>
        <pt x="213" y="538" on="1"/>
        <pt x="213" y="520" on="1"/>
        <pt x="349" y="520" on="1"/>
        <pt x="349" y="538" on="1"/>
        <pt x="349" y="573" on="0"/>
        <pt x="315" y="619" on="0"/>
        <pt x="281" y="619" on="1"/>
        <pt x="248" y="619" on="0"/>
        <pt x="213" y="573" on="0"/>
      </contour>
    </TTGlyph>
    <TTGlyph name="f_f_l.ss02" xMin="5" yMin="0" xMax="755" yMax="730">
      <contour>
        <pt x="78" y="0" on="1"/>
        <pt x="78" y="405" on="1"/>
        <pt x="5" y="405" on="1"/>
        <pt x="5" y="520" on="1"/>
        <pt x="78" y="520" on="1"/>
        <pt x="78" y="540" on="1"/>
        <pt x="78" y="601" on="0"/>
        <pt x="129" y="685" on="0"/>
        <pt x="216" y="730" on="0"/>
        <pt x="271" y="730" on="1"/>
        <pt x="366" y="730" on="0"/>
        <pt x="419" y="659" on="1"/>
        <pt x="440" y="698" on="0"/>
        <pt x="505" y="730" on="0"/>
        <pt x="552" y="730" on="1"/>
        <pt x="641" y="730" on="0"/>
        <pt x="755" y="630" on="0"/>
        <pt x="755" y="540" on="1"/>
        <pt x="755" y="0" on="1"/>
        <pt x="620" y="0" on="1"/>
        <pt x="620" y="538" on="1"/>
        <pt x="620" y="573" on="0"/>
        <pt x="586" y="619" on="0"/>
        <pt x="552" y="619" on="1"/>
        <pt x="519" y="619" on="0"/>
        <pt x="484" y="573" on="0"/>
        <pt x="484" y="538" on="1"/>
        <pt x="484" y="520" on="1"/>
        <pt x="590" y="520" on="1"/>
        <pt x="590" y="405" on="1"/>
        <pt x="484" y="405" on="1"/>
        <pt x="484" y="0" on="1"/>
        <pt x="349" y="0" on="1"/>
        <pt x="349" y="405" on="1"/>
        <pt x="213" y="405" on="1"/>
        <pt x="213" y="0" on="1"/>
      </contour>
      <contour>
        <pt x="213" y="538" on="1"/>
        <pt x="213" y="520" on="1"/>
        <pt x="349" y="520" on="1"/>
        <pt x="349" y="538" on="1"/>
        <pt x="349" y="573" on="0"/>
        <pt x="315" y="619" on="0"/>
        <pt x="281" y="619" on="1"/>
        <pt x="248" y="619" on="0"/>
        <pt x="213" y="573" on="0"/>
      </contour>
    </TTGlyph>
    <TTGlyph name="f_t.ss02" xMin="5" yMin="0" xMax="594" yMax="730">
      <contour>
        <pt x="78" y="0" on="1"/>
        <pt x="78" y="405" on="1"/>
        <pt x="5" y="405" on="1"/>
        <pt x="5" y="520" on="1"/>
        <pt x="78" y="520" on="1"/>
        <pt x="78" y="540" on="1"/>
        <pt x="78" y="631" on="0"/>
        <pt x="192" y="730" on="0"/>
        <pt x="281" y="730" on="1"/>
        <pt x="370" y="730" on="0"/>
        <pt x="484" y="630" on="0"/>
        <pt x="484" y="540" on="1"/>
        <pt x="484" y="520" on="1"/>
        <pt x="594" y="520" on="1"/>
        <pt x="594" y="405" on="1"/>
        <pt x="484" y="405" on="1"/>
        <pt x="484" y="0" on="1"/>
        <pt x="349" y="0" on="1"/>
        <pt x="349" y="405" on="1"/>
        <pt x="213" y="405" on="1"/>
        <pt x="213" y="0" on="1"/>
      </contour>
      <contour>
        <pt x="213" y="538" on="1"/>
        <pt x="213" y="520" on="1"/>
        <pt x="349" y="520" on="1"/>
        <pt x="349" y="538" on="1"/>
        <pt x="349" y="573" on="0"/>
        <pt x="315" y="619" on="0"/>
        <pt x="281" y="619" on="1"/>
        <pt x="248" y="619" on="0"/>
        <pt x="213" y="573" on="0"/>
      </contour>
    </TTGlyph>
    <TTGlyph name="fi" xMin="5" yMin="0" xMax="512" yMax="730">
      <component glyphName="f" x="0" y="0" flags="0x4"/>
      <component glyphName="i" x="324" y="0" flags="0x4"/>
    </TTGlyph>
    <TTGlyph name="fi.ss02" xMin="5" yMin="0" xMax="484" yMax="730">
      <contour>
        <pt x="78" y="0" on="1"/>
        <pt x="78" y="405" on="1"/>
        <pt x="5" y="405" on="1"/>
        <pt x="5" y="520" on="1"/>
        <pt x="78" y="520" on="1"/>
        <pt x="78" y="540" on="1"/>
        <pt x="78" y="631" on="0"/>
        <pt x="192" y="730" on="0"/>
        <pt x="281" y="730" on="1"/>
        <pt x="370" y="730" on="0"/>
        <pt x="484" y="630" on="0"/>
        <pt x="484" y="540" on="1"/>
        <pt x="349" y="540" on="1"/>
        <pt x="349" y="573" on="0"/>
        <pt x="315" y="619" on="0"/>
        <pt x="281" y="619" on="1"/>
        <pt x="248" y="619" on="0"/>
        <pt x="213" y="573" on="0"/>
        <pt x="213" y="538" on="1"/>
        <pt x="213" y="520" on="1"/>
        <pt x="323" y="520" on="1"/>
        <pt x="323" y="405" on="1"/>
        <pt x="213" y="405" on="1"/>
        <pt x="213" y="0" on="1"/>
      </contour>
      <contour>
        <pt x="349" y="0" on="1"/>
        <pt x="349" y="520" on="1"/>
        <pt x="484" y="520" on="1"/>
        <pt x="484" y="0" on="1"/>
      </contour>
    </TTGlyph>
    <TTGlyph name="five" xMin="15" yMin="-13" xMax="506" yMax="700">
      <contour>
        <pt x="235" y="-13" on="1"/>
        <pt x="177" y="-13" on="0"/>
        <pt x="73" y="9" on="0"/>
        <pt x="15" y="41" on="1"/>
        <pt x="66" y="163" on="1"/>
        <pt x="99" y="144" on="0"/>
        <pt x="179" y="117" on="0"/>
        <pt x="225" y="117" on="1"/>
        <pt x="294" y="117" on="0"/>
        <pt x="361" y="177" on="0"/>
        <pt x="361" y="227" on="1"/>
        <pt x="361" y="277" on="0"/>
        <pt x="295" y="342" on="0"/>
        <pt x="215" y="342" on="1"/>
        <pt x="172" y="342" on="0"/>
        <pt x="93" y="319" on="0"/>
        <pt x="53" y="298" on="1"/>
        <pt x="118" y="700" on="1"/>
        <pt x="450" y="700" on="1"/>
        <pt x="450" y="577" on="1"/>
        <pt x="227" y="577" on="1"/>
        <pt x="208" y="453" on="1"/>
        <pt x="223" y="458" on="0"/>
        <pt x="252" y="460" on="0"/>
        <pt x="267" y="460" on="1"/>
        <pt x="351" y="460" on="0"/>
        <pt x="456" y="394" on="0"/>
        <pt x="506" y="288" on="0"/>
        <pt x="506" y="227" on="1"/>
        <pt x="506" y="158" on="0"/>
        <pt x="438" y="49" on="0"/>
        <pt x="316" y="-13" on="0"/>
      </contour>
    </TTGlyph>
    <TTGlyph name="five.tf" xMin="50" yMin="-13" xMax="541" yMax="700">
      <component glyphName="five" x="35" y="0" flags="0x4"/>
    </TTGlyph>
    <TTGlyph name="fl" xMin="5" yMin="0" xMax="499" yMax="730">
      <component glyphName="f" x="0" y="0" flags="0x4"/>
      <component glyphName="l" x="324" y="0" flags="0x4"/>
    </TTGlyph>
    <TTGlyph name="fl.ss02" xMin="5" yMin="0" xMax="484" yMax="730">
      <contour>
        <pt x="78" y="0" on="1"/>
        <pt x="78" y="405" on="1"/>
        <pt x="5" y="405" on="1"/>
        <pt x="5" y="520" on="1"/>
        <pt x="78" y="520" on="1"/>
        <pt x="78" y="540" on="1"/>
        <pt x="78" y="631" on="0"/>
        <pt x="192" y="730" on="0"/>
        <pt x="281" y="730" on="1"/>
        <pt x="370" y="730" on="0"/>
        <pt x="484" y="630" on="0"/>
        <pt x="484" y="540" on="1"/>
        <pt x="484" y="0" on="1"/>
        <pt x="349" y="0" on="1"/>
        <pt x="349" y="538" on="1"/>
        <pt x="349" y="573" on="0"/>
        <pt x="315" y="619" on="0"/>
        <pt x="281" y="619" on="1"/>
        <pt x="248" y="619" on="0"/>
        <pt x="213" y="573" on="0"/>
        <pt x="213" y="538" on="1"/>
        <pt x="213" y="520" on="1"/>
        <pt x="323" y="520" on="1"/>
        <pt x="323" y="405" on="1"/>
        <pt x="213" y="405" on="1"/>
        <pt x="213" y="0" on="1"/>
      </contour>
    </TTGlyph>
    <TTGlyph name="florin" xMin="38" yMin="0" xMax="563" yMax="700">
      <contour>
        <pt x="38" y="0" on="1"/>
        <pt x="38" y="116" on="1"/>
        <pt x="115" y="116" on="1"/>
        <pt x="150" y="116" on="0"/>
        <pt x="196" y="149" on="0"/>
        <pt x="206" y="196" on="1"/>
        <pt x="233" y="315" on="1"/>
        <pt x="68" y="315" on="1"/>
        <pt x="68" y="425" on="1"/>
        <pt x="257" y="425" on="1"/>
        <pt x="279" y="521" on="1"/>
        <pt x="295" y="591" on="0"/>
        <pt x="355" y="669" on="0"/>
        <pt x="440" y="700" on="0"/>
        <pt x="490" y="700" on="1"/>
        <pt x="563" y="700" on="1"/>
        <pt x="563" y="583" on="1"/>
        <pt x="501" y="583" on="1"/>
        <pt x="461" y="583" on="0"/>
        <pt x="414" y="551" on="0"/>
        <pt x="403" y="504" on="1"/>
        <pt x="385" y="425" on="1"/>
        <pt x="533" y="425" on="1"/>
        <pt x="533" y="315" on="1"/>
        <pt x="361" y="315" on="1"/>
        <pt x="330" y="179" on="1"/>
        <pt x="315" y="109" on="0"/>
        <pt x="254" y="32" on="0"/>
        <pt x="173" y="0" on="0"/>
        <pt x="126" y="0" on="1"/>
      </contour>
    </TTGlyph>
    <TTGlyph name="florin.tf" xMin="38" yMin="0" xMax="563" yMax="700">
      <component glyphName="florin" x="0" y="0" flags="0x204"/>
    </TTGlyph>
    <TTGlyph name="four" xMin="10" yMin="0" xMax="568" yMax="700">
      <contour>
        <pt x="348" y="0" on="1"/>
        <pt x="348" y="179" on="1"/>
        <pt x="10" y="179" on="1"/>
        <pt x="10" y="224" on="1"/>
        <pt x="369" y="700" on="1"/>
        <pt x="488" y="700" on="1"/>
        <pt x="488" y="291" on="1"/>
        <pt x="568" y="291" on="1"/>
        <pt x="568" y="179" on="1"/>
        <pt x="488" y="179" on="1"/>
        <pt x="488" y="0" on="1"/>
      </contour>
      <contour>
        <pt x="349" y="385" on="1"/>
        <pt x="349" y="404" on="0"/>
        <pt x="350" y="474" on="0"/>
        <pt x="353" y="502" on="1"/>
        <pt x="343" y="485" on="0"/>
        <pt x="322" y="453" on="0"/>
        <pt x="311" y="439" on="1"/>
        <pt x="197" y="291" on="1"/>
        <pt x="349" y="291" on="1"/>
      </contour>
    </TTGlyph>
    <TTGlyph name="four.tf" xMin="13" yMin="0" xMax="571" yMax="700">
      <component glyphName="four" x="3" y="0" flags="0x4"/>
    </TTGlyph>
    <TTGlyph name="fraction" xMin="-85" yMin="0" xMax="662" yMax="700">
      <contour>
        <pt x="-85" y="0" on="1"/>
        <pt x="532" y="700" on="1"/>
        <pt x="662" y="700" on="1"/>
        <pt x="45" y="0" on="1"/>
      </contour>
    </TTGlyph>
    <TTGlyph name="g" xMin="20" yMin="-213" xMax="564" yMax="533">
      <contour>
        <pt x="293" y="-213" on="1"/>
        <pt x="214" y="-213" on="0"/>
        <pt x="91" y="-170" on="0"/>
        <pt x="44" y="-115" on="1"/>
        <pt x="128" y="-16" on="1"/>
        <pt x="165" y="-58" on="0"/>
        <pt x="245" y="-88" on="0"/>
        <pt x="294" y="-88" on="1"/>
        <pt x="330" y="-88" on="0"/>
        <pt x="392" y="-52" on="0"/>
        <pt x="429" y="13" on="0"/>
        <pt x="429" y="54" on="1"/>
        <pt x="429" y="77" on="1"/>
        <pt x="408" y="41" on="0"/>
        <pt x="335" y="-3" on="0"/>
        <pt x="272" y="-3" on="1"/>
        <pt x="201" y="-3" on="0"/>
        <pt x="86" y="69" on="0"/>
        <pt x="20" y="190" on="0"/>
        <pt x="20" y="265" on="1"/>
        <pt x="20" y="340" on="0"/>
        <pt x="86" y="462" on="0"/>
        <pt x="201" y="533" on="0"/>
        <pt x="272" y="533" on="1"/>
        <pt x="337" y="533" on="0"/>
        <pt x="410" y="487" on="0"/>
        <pt x="431" y="449" on="1"/>
        <pt x="431" y="520" on="1"/>
        <pt x="564" y="520" on="1"/>
        <pt x="564" y="46" on="1"/>
        <pt x="564" y="-34" on="0"/>
        <pt x="495" y="-150" on="0"/>
        <pt x="373" y="-213" on="0"/>
      </contour>
      <contour>
        <pt x="294" y="120" on="1"/>
        <pt x="361" y="120" on="0"/>
        <pt x="435" y="204" on="0"/>
        <pt x="435" y="265" on="1"/>
        <pt x="435" y="326" on="0"/>
        <pt x="361" y="410" on="0"/>
        <pt x="294" y="410" on="1"/>
        <pt x="228" y="410" on="0"/>
        <pt x="155" y="326" on="0"/>
        <pt x="155" y="265" on="1"/>
        <pt x="155" y="226" on="0"/>
        <pt x="188" y="160" on="0"/>
        <pt x="250" y="120" on="0"/>
      </contour>
    </TTGlyph>
    <TTGlyph name="gbreve" xMin="20" yMin="-213" xMax="564" yMax="696">
      <component glyphName="g" x="0" y="0" flags="0x204"/>
      <component glyphName="uni0306" x="288" y="0" flags="0x4"/>
    </TTGlyph>
    <TTGlyph name="gcircumflex" xMin="20" yMin="-213" xMax="564" yMax="740">
      <component glyphName="g" x="0" y="0" flags="0x204"/>
      <component glyphName="uni0302" x="288" y="0" flags="0x4"/>
    </TTGlyph>
    <TTGlyph name="gdotaccent" xMin="20" yMin="-213" xMax="564" yMax="722">
      <component glyphName="g" x="0" y="0" flags="0x204"/>
      <component glyphName="uni0307" x="288" y="0" flags="0x4"/>
    </TTGlyph>
    <TTGlyph name="germandbls" xMin="35" yMin="-13" xMax="548" yMax="743">
      <contour>
        <pt x="317" y="-13" on="1"/>
        <pt x="274" y="-13" on="0"/>
        <pt x="212" y="1" on="0"/>
        <pt x="189" y="14" on="1"/>
        <pt x="240" y="130" on="1"/>
        <pt x="254" y="121" on="0"/>
        <pt x="291" y="108" on="0"/>
        <pt x="313" y="108" on="1"/>
        <pt x="336" y="108" on="0"/>
        <pt x="383" y="130" on="0"/>
        <pt x="414" y="178" on="0"/>
        <pt x="414" y="215" on="1"/>
        <pt x="414" y="248" on="0"/>
        <pt x="380" y="306" on="0"/>
        <pt x="305" y="337" on="0"/>
        <pt x="242" y="327" on="1"/>
        <pt x="242" y="435" on="1"/>
        <pt x="287" y="435" on="0"/>
        <pt x="353" y="479" on="0"/>
        <pt x="353" y="534" on="1"/>
        <pt x="353" y="570" on="0"/>
        <pt x="303" y="620" on="0"/>
        <pt x="264" y="620" on="1"/>
        <pt x="224" y="620" on="0"/>
        <pt x="170" y="567" on="0"/>
        <pt x="170" y="514" on="1"/>
        <pt x="170" y="0" on="1"/>
        <pt x="35" y="0" on="1"/>
        <pt x="35" y="514" on="1"/>
        <pt x="35" y="578" on="0"/>
        <pt x="92" y="681" on="0"/>
        <pt x="197" y="743" on="0"/>
        <pt x="268" y="743" on="1"/>
        <pt x="335" y="743" on="0"/>
        <pt x="433" y="688" on="0"/>
        <pt x="487" y="599" on="0"/>
        <pt x="487" y="549" on="1"/>
        <pt x="487" y="515" on="0"/>
        <pt x="455" y="434" on="0"/>
        <pt x="412" y="404" on="1"/>
        <pt x="460" y="385" on="0"/>
        <pt x="521" y="322" on="0"/>
        <pt x="548" y="248" on="0"/>
        <pt x="548" y="212" on="1"/>
        <pt x="548" y="156" on="0"/>
        <pt x="495" y="53" on="0"/>
        <pt x="392" y="-13" on="0"/>
      </contour>
    </TTGlyph>
    <TTGlyph name="grave" xMin="111" yMin="566" xMax="304" yMax="740">
      <component glyphName="gravecomb" x="253" y="0" flags="0x4"/>
    </TTGlyph>
    <TTGlyph name="gravecomb" xMin="-142" yMin="566" xMax="51" yMax="740">
      <contour>
        <pt x="-43" y="566" on="1"/>
        <pt x="-142" y="740" on="1"/>
        <pt x="17" y="740" on="1"/>
        <pt x="51" y="566" on="1"/>
      </contour>
    </TTGlyph>
    <TTGlyph name="greater" xMin="60" yMin="70" xMax="492" yMax="550">
      <contour>
        <pt x="229" y="70" on="1"/>
        <pt x="60" y="70" on="1"/>
        <pt x="320" y="314" on="1"/>
        <pt x="60" y="550" on="1"/>
        <pt x="229" y="550" on="1"/>
        <pt x="492" y="310" on="1"/>
      </contour>
    </TTGlyph>
    <TTGlyph name="greaterequal" xMin="45" yMin="81" xMax="527" yMax="640">
      <contour>
        <pt x="48" y="220" on="1"/>
        <pt x="48" y="336" on="1"/>
        <pt x="279" y="430" on="1"/>
        <pt x="48" y="524" on="1"/>
        <pt x="48" y="640" on="1"/>
        <pt x="527" y="430" on="1"/>
      </contour>
      <contour>
        <pt x="497" y="81" on="1"/>
        <pt x="45" y="81" on="1"/>
        <pt x="45" y="191" on="1"/>
        <pt x="497" y="191" on="1"/>
      </contour>
    </TTGlyph>
    <TTGlyph name="guillemotleft" xMin="30" yMin="48" xMax="524" yMax="477">
      <component glyphName="guilsinglleft" x="225" y="0" flags="0x4"/>
      <component glyphName="guilsinglleft" x="0" y="0" flags="0x4"/>
    </TTGlyph>
    <TTGlyph name="guillemotright" xMin="20" yMin="48" xMax="512" yMax="477">
      <component glyphName="guilsinglright" x="0" y="0" flags="0x4"/>
      <component glyphName="guilsinglright" x="223" y="0" flags="0x4"/>
    </TTGlyph>
    <TTGlyph name="guilsinglleft" xMin="30" yMin="48" xMax="299" yMax="477">
      <contour>
        <pt x="158" y="48" on="1"/>
        <pt x="30" y="263" on="1"/>
        <pt x="156" y="477" on="1"/>
        <pt x="299" y="477" on="1"/>
        <pt x="167" y="269" on="1"/>
        <pt x="299" y="48" on="1"/>
      </contour>
    </TTGlyph>
    <TTGlyph name="guilsinglright" xMin="20" yMin="48" xMax="289" yMax="477">
      <contour>
        <pt x="161" y="477" on="1"/>
        <pt x="289" y="262" on="1"/>
        <pt x="163" y="48" on="1"/>
        <pt x="20" y="48" on="1"/>
        <pt x="152" y="256" on="1"/>
        <pt x="20" y="477" on="1"/>
      </contour>
    </TTGlyph>
    <TTGlyph name="h" xMin="40" yMin="0" xMax="530" yMax="730">
      <contour>
        <pt x="40" y="0" on="1"/>
        <pt x="40" y="730" on="1"/>
        <pt x="175" y="730" on="1"/>
        <pt x="175" y="448" on="1"/>
        <pt x="217" y="532" on="0"/>
        <pt x="332" y="532" on="1"/>
        <pt x="388" y="532" on="0"/>
        <pt x="478" y="480" on="0"/>
        <pt x="530" y="384" on="0"/>
        <pt x="530" y="318" on="1"/>
        <pt x="530" y="0" on="1"/>
        <pt x="395" y="0" on="1"/>
        <pt x="395" y="285" on="1"/>
        <pt x="395" y="353" on="0"/>
        <pt x="333" y="414" on="0"/>
        <pt x="283" y="414" on="1"/>
        <pt x="240" y="414" on="0"/>
        <pt x="175" y="353" on="0"/>
        <pt x="175" y="285" on="1"/>
        <pt x="175" y="0" on="1"/>
      </contour>
    </TTGlyph>
    <TTGlyph name="hbar" xMin="-26" yMin="0" xMax="530" yMax="730">
      <contour>
        <pt x="40" y="0" on="1"/>
        <pt x="40" y="559" on="1"/>
        <pt x="-26" y="559" on="1"/>
        <pt x="-26" y="674" on="1"/>
        <pt x="40" y="674" on="1"/>
        <pt x="40" y="730" on="1"/>
        <pt x="175" y="730" on="1"/>
        <pt x="175" y="674" on="1"/>
        <pt x="353" y="674" on="1"/>
        <pt x="353" y="559" on="1"/>
        <pt x="175" y="559" on="1"/>
        <pt x="175" y="448" on="1"/>
        <pt x="217" y="532" on="0"/>
        <pt x="332" y="532" on="1"/>
        <pt x="388" y="532" on="0"/>
        <pt x="478" y="480" on="0"/>
        <pt x="530" y="384" on="0"/>
        <pt x="530" y="318" on="1"/>
        <pt x="530" y="0" on="1"/>
        <pt x="395" y="0" on="1"/>
        <pt x="395" y="285" on="1"/>
        <pt x="395" y="353" on="0"/>
        <pt x="333" y="414" on="0"/>
        <pt x="283" y="414" on="1"/>
        <pt x="240" y="414" on="0"/>
        <pt x="175" y="353" on="0"/>
        <pt x="175" y="285" on="1"/>
        <pt x="175" y="0" on="1"/>
      </contour>
    </TTGlyph>
    <TTGlyph name="hcircumflex" xMin="-49" yMin="0" xMax="530" yMax="950">
      <component glyphName="h" x="0" y="0" flags="0x204"/>
      <component glyphName="uni0302" x="106" y="210" flags="0x4"/>
    </TTGlyph>
    <TTGlyph name="hookabovecomb" xMin="-118" yMin="557" xMax="110" yMax="767">
      <contour>
        <pt x="-1" y="557" on="1"/>
        <pt x="-29" y="557" on="0"/>
        <pt x="-57" y="570" on="1"/>
        <pt x="-34" y="637" on="1"/>
        <pt x="-29" y="634" on="0"/>
        <pt x="-15" y="632" on="0"/>
        <pt x="-11" y="632" on="1"/>
        <pt x="23" y="632" on="0"/>
        <pt x="23" y="662" on="1"/>
        <pt x="23" y="673" on="0"/>
        <pt x="6" y="689" on="0"/>
        <pt x="-5" y="689" on="1"/>
        <pt x="-18" y="689" on="0"/>
        <pt x="-34" y="673" on="0"/>
        <pt x="-34" y="659" on="1"/>
        <pt x="-118" y="659" on="1"/>
        <pt x="-118" y="707" on="0"/>
        <pt x="-52" y="767" on="0"/>
        <pt x="-4" y="767" on="1"/>
        <pt x="45" y="767" on="0"/>
        <pt x="110" y="712" on="0"/>
        <pt x="110" y="665" on="1"/>
        <pt x="110" y="616" on="0"/>
        <pt x="50" y="557" on="0"/>
      </contour>
    </TTGlyph>
    <TTGlyph name="hungarumlaut" xMin="140" yMin="566" xMax="470" yMax="740">
      <component glyphName="uni030B" x="266" y="0" flags="0x4"/>
    </TTGlyph>
    <TTGlyph name="hyphen" xMin="20" yMin="210" xMax="306" yMax="341">
      <contour>
        <pt x="20" y="210" on="1"/>
        <pt x="20" y="341" on="1"/>
        <pt x="306" y="341" on="1"/>
        <pt x="306" y="210" on="1"/>
      </contour>
    </TTGlyph>
    <TTGlyph name="i" xMin="26" yMin="0" xMax="188" yMax="722">
      <contour>
        <pt x="107" y="563" on="1"/>
        <pt x="73" y="563" on="0"/>
        <pt x="26" y="610" on="0"/>
        <pt x="26" y="643" on="1"/>
        <pt x="26" y="675" on="0"/>
        <pt x="73" y="722" on="0"/>
        <pt x="107" y="722" on="1"/>
        <pt x="142" y="722" on="0"/>
        <pt x="188" y="675" on="0"/>
        <pt x="188" y="643" on="1"/>
        <pt x="188" y="609" on="0"/>
        <pt x="142" y="563" on="0"/>
      </contour>
      <contour>
        <pt x="40" y="0" on="1"/>
        <pt x="40" y="520" on="1"/>
        <pt x="175" y="520" on="1"/>
        <pt x="175" y="0" on="1"/>
      </contour>
    </TTGlyph>
    <TTGlyph name="i.loclTRK" xMin="25" yMin="0" xMax="187" yMax="722">
      <component glyphName="dotlessi" x="0" y="0" flags="0x204"/>
      <component glyphName="uni0307" x="106" y="0" flags="0x4"/>
    </TTGlyph>
    <TTGlyph name="iacute" xMin="40" yMin="0" xMax="239" yMax="740">
      <component glyphName="dotlessi" x="0" y="0" flags="0x204"/>
      <component glyphName="acutecomb" x="106" y="0" flags="0x4"/>
    </TTGlyph>
    <TTGlyph name="icircumflex" xMin="-49" yMin="0" xMax="259" yMax="740">
      <component glyphName="dotlessi" x="0" y="0" flags="0x204"/>
      <component glyphName="uni0302" x="106" y="0" flags="0x4"/>
    </TTGlyph>
    <TTGlyph name="idieresis" xMin="-66" yMin="0" xMax="278" yMax="722">
      <contour>
        <pt x="197" y="563" on="1"/>
        <pt x="163" y="563" on="0"/>
        <pt x="116" y="610" on="0"/>
        <pt x="116" y="643" on="1"/>
        <pt x="116" y="675" on="0"/>
        <pt x="163" y="722" on="0"/>
        <pt x="197" y="722" on="1"/>
        <pt x="232" y="722" on="0"/>
        <pt x="278" y="675" on="0"/>
        <pt x="278" y="643" on="1"/>
        <pt x="278" y="609" on="0"/>
        <pt x="232" y="563" on="0"/>
      </contour>
      <contour>
        <pt x="15" y="563" on="1"/>
        <pt x="-19" y="563" on="0"/>
        <pt x="-66" y="610" on="0"/>
        <pt x="-66" y="643" on="1"/>
        <pt x="-66" y="675" on="0"/>
        <pt x="-19" y="722" on="0"/>
        <pt x="15" y="722" on="1"/>
        <pt x="50" y="722" on="0"/>
        <pt x="96" y="675" on="0"/>
        <pt x="96" y="643" on="1"/>
        <pt x="96" y="609" on="0"/>
        <pt x="50" y="563" on="0"/>
      </contour>
      <contour>
        <pt x="40" y="0" on="1"/>
        <pt x="40" y="520" on="1"/>
        <pt x="175" y="520" on="1"/>
        <pt x="175" y="0" on="1"/>
      </contour>
    </TTGlyph>
    <TTGlyph name="igrave" xMin="-36" yMin="0" xMax="175" yMax="740">
      <component glyphName="dotlessi" x="0" y="0" flags="0x204"/>
      <component glyphName="gravecomb" x="106" y="0" flags="0x4"/>
    </TTGlyph>
    <TTGlyph name="ij" xMin="26" yMin="-200" xMax="404" yMax="722">
      <component glyphName="i" x="0" y="0" flags="0x4"/>
      <component glyphName="j" x="215" y="0" flags="0x4"/>
    </TTGlyph>
    <TTGlyph name="ij.ss01" xMin="26" yMin="-200" xMax="404" yMax="722">
      <component glyphName="i" x="0" y="0" flags="0x4"/>
      <component glyphName="j.ss01" x="215" y="0" flags="0x4"/>
    </TTGlyph>
    <TTGlyph name="imacron" xMin="-46" yMin="0" xMax="260" yMax="688">
      <component glyphName="dotlessi" x="0" y="0" flags="0x204"/>
      <component glyphName="uni0304" x="107" y="0" flags="0x4"/>
    </TTGlyph>
    <TTGlyph name="infinity" xMin="10" yMin="92" xMax="777" yMax="482">
      <contour>
        <pt x="209" y="92" on="1"/>
        <pt x="150" y="92" on="0"/>
        <pt x="60" y="145" on="0"/>
        <pt x="10" y="234" on="0"/>
        <pt x="10" y="287" on="1"/>
        <pt x="10" y="340" on="0"/>
        <pt x="60" y="428" on="0"/>
        <pt x="150" y="482" on="0"/>
        <pt x="209" y="482" on="1"/>
        <pt x="269" y="482" on="0"/>
        <pt x="356" y="431" on="0"/>
        <pt x="392" y="384" on="1"/>
        <pt x="429" y="431" on="0"/>
        <pt x="518" y="482" on="0"/>
        <pt x="578" y="482" on="1"/>
        <pt x="637" y="482" on="0"/>
        <pt x="727" y="428" on="0"/>
        <pt x="777" y="340" on="0"/>
        <pt x="777" y="287" on="1"/>
        <pt x="777" y="234" on="0"/>
        <pt x="727" y="145" on="0"/>
        <pt x="637" y="92" on="0"/>
        <pt x="578" y="92" on="1"/>
        <pt x="518" y="92" on="0"/>
        <pt x="430" y="142" on="0"/>
        <pt x="394" y="190" on="1"/>
        <pt x="357" y="142" on="0"/>
        <pt x="269" y="92" on="0"/>
      </contour>
      <contour>
        <pt x="211" y="200" on="1"/>
        <pt x="246" y="200" on="0"/>
        <pt x="304" y="249" on="0"/>
        <pt x="333" y="287" on="1"/>
        <pt x="304" y="325" on="0"/>
        <pt x="246" y="374" on="0"/>
        <pt x="211" y="374" on="1"/>
        <pt x="175" y="374" on="0"/>
        <pt x="122" y="323" on="0"/>
        <pt x="122" y="287" on="1"/>
        <pt x="122" y="251" on="0"/>
        <pt x="175" y="200" on="0"/>
      </contour>
      <contour>
        <pt x="575" y="200" on="1"/>
        <pt x="611" y="200" on="0"/>
        <pt x="665" y="251" on="0"/>
        <pt x="665" y="287" on="1"/>
        <pt x="665" y="323" on="0"/>
        <pt x="611" y="374" on="0"/>
        <pt x="575" y="374" on="1"/>
        <pt x="540" y="374" on="0"/>
        <pt x="482" y="325" on="0"/>
        <pt x="453" y="287" on="1"/>
        <pt x="482" y="249" on="0"/>
        <pt x="540" y="200" on="0"/>
      </contour>
    </TTGlyph>
    <TTGlyph name="integral" xMin="0" yMin="-200" xMax="448" yMax="730">
      <contour>
        <pt x="0" y="-200" on="1"/>
        <pt x="15" y="-84" on="1"/>
        <pt x="57" y="-84" on="1"/>
        <pt x="84" y="-84" on="0"/>
        <pt x="122" y="-54" on="0"/>
        <pt x="126" y="-14" on="1"/>
        <pt x="196" y="561" on="1"/>
        <pt x="204" y="626" on="0"/>
        <pt x="259" y="699" on="0"/>
        <pt x="340" y="730" on="0"/>
        <pt x="385" y="730" on="1"/>
        <pt x="448" y="730" on="1"/>
        <pt x="434" y="613" on="1"/>
        <pt x="396" y="613" on="1"/>
        <pt x="363" y="613" on="0"/>
        <pt x="325" y="583" on="0"/>
        <pt x="320" y="543" on="1"/>
        <pt x="250" y="-31" on="1"/>
        <pt x="242" y="-95" on="0"/>
        <pt x="187" y="-169" on="0"/>
        <pt x="110" y="-200" on="0"/>
        <pt x="68" y="-200" on="1"/>
      </contour>
    </TTGlyph>
    <TTGlyph name="iogonek" xMin="23" yMin="-213" xMax="194" yMax="722">
      <contour>
        <pt x="106" y="563" on="1"/>
        <pt x="72" y="563" on="0"/>
        <pt x="25" y="610" on="0"/>
        <pt x="25" y="643" on="1"/>
        <pt x="25" y="675" on="0"/>
        <pt x="72" y="722" on="0"/>
        <pt x="106" y="722" on="1"/>
        <pt x="141" y="722" on="0"/>
        <pt x="187" y="675" on="0"/>
        <pt x="187" y="643" on="1"/>
        <pt x="187" y="609" on="0"/>
        <pt x="141" y="563" on="0"/>
      </contour>
      <contour>
        <pt x="40" y="0" on="1"/>
        <pt x="40" y="520" on="1"/>
        <pt x="175" y="520" on="1"/>
        <pt x="175" y="0" on="1"/>
        <pt x="175" y="0" on="1"/>
        <pt x="130" y="-37" on="1"/>
        <pt x="116" y="-48" on="0"/>
        <pt x="105" y="-71" on="0"/>
        <pt x="105" y="-83" on="1"/>
        <pt x="105" y="-102" on="0"/>
        <pt x="133" y="-119" on="0"/>
        <pt x="150" y="-119" on="1"/>
        <pt x="158" y="-119" on="0"/>
        <pt x="168" y="-116" on="0"/>
        <pt x="173" y="-115" on="1"/>
        <pt x="194" y="-202" on="1"/>
        <pt x="176" y="-208" on="0"/>
        <pt x="143" y="-213" on="0"/>
        <pt x="128" y="-213" on="1"/>
        <pt x="78" y="-213" on="0"/>
        <pt x="23" y="-156" on="0"/>
        <pt x="23" y="-110" on="1"/>
        <pt x="23" y="-78" on="0"/>
        <pt x="50" y="-29" on="0"/>
        <pt x="85" y="0" on="1"/>
      </contour>
    </TTGlyph>
    <TTGlyph name="itilde" xMin="-76" yMin="0" xMax="288" yMax="711">
      <contour>
        <pt x="179" y="557" on="1"/>
        <pt x="146" y="557" on="0"/>
        <pt x="106" y="577" on="0"/>
        <pt x="82" y="604" on="0"/>
        <pt x="62" y="624" on="0"/>
        <pt x="49" y="624" on="1"/>
        <pt x="29" y="624" on="0"/>
        <pt x="10" y="594" on="0"/>
        <pt x="10" y="568" on="1"/>
        <pt x="-76" y="568" on="1"/>
        <pt x="-76" y="609" on="0"/>
        <pt x="-43" y="674" on="0"/>
        <pt x="11" y="711" on="0"/>
        <pt x="41" y="711" on="1"/>
        <pt x="77" y="711" on="0"/>
        <pt x="117" y="691" on="0"/>
        <pt x="139" y="664" on="0"/>
        <pt x="157" y="644" on="0"/>
        <pt x="171" y="644" on="1"/>
        <pt x="191" y="644" on="0"/>
        <pt x="201" y="677" on="0"/>
        <pt x="201" y="700" on="1"/>
        <pt x="288" y="700" on="1"/>
        <pt x="288" y="665" on="0"/>
        <pt x="262" y="599" on="0"/>
        <pt x="214" y="557" on="0"/>
      </contour>
      <contour>
        <pt x="40" y="0" on="1"/>
        <pt x="40" y="520" on="1"/>
        <pt x="175" y="520" on="1"/>
        <pt x="175" y="0" on="1"/>
      </contour>
    </TTGlyph>
    <TTGlyph name="j" xMin="-28" yMin="-200" xMax="189" yMax="722">
      <contour>
        <pt x="108" y="563" on="1"/>
        <pt x="74" y="563" on="0"/>
        <pt x="27" y="610" on="0"/>
        <pt x="27" y="643" on="1"/>
        <pt x="27" y="675" on="0"/>
        <pt x="74" y="722" on="0"/>
        <pt x="108" y="722" on="1"/>
        <pt x="143" y="722" on="0"/>
        <pt x="189" y="675" on="0"/>
        <pt x="189" y="643" on="1"/>
        <pt x="189" y="609" on="0"/>
        <pt x="143" y="563" on="0"/>
      </contour>
      <contour>
        <pt x="-28" y="-200" on="1"/>
        <pt x="-28" y="-80" on="1"/>
        <pt x="-2" y="-80" on="1"/>
        <pt x="40" y="-80" on="0"/>
        <pt x="40" y="-32" on="1"/>
        <pt x="40" y="520" on="1"/>
        <pt x="175" y="520" on="1"/>
        <pt x="175" y="-39" on="1"/>
        <pt x="175" y="-124" on="0"/>
        <pt x="93" y="-200" on="0"/>
        <pt x="16" y="-200" on="1"/>
      </contour>
    </TTGlyph>
    <TTGlyph name="j.ss01" xMin="27" yMin="-200" xMax="189" yMax="722">
      <contour>
        <pt x="108" y="563" on="1"/>
        <pt x="74" y="563" on="0"/>
        <pt x="27" y="610" on="0"/>
        <pt x="27" y="643" on="1"/>
        <pt x="27" y="675" on="0"/>
        <pt x="74" y="722" on="0"/>
        <pt x="108" y="722" on="1"/>
        <pt x="143" y="722" on="0"/>
        <pt x="189" y="675" on="0"/>
        <pt x="189" y="643" on="1"/>
        <pt x="189" y="609" on="0"/>
        <pt x="143" y="563" on="0"/>
      </contour>
      <contour>
        <pt x="40" y="-200" on="1"/>
        <pt x="40" y="520" on="1"/>
        <pt x="175" y="520" on="1"/>
        <pt x="175" y="-200" on="1"/>
      </contour>
    </TTGlyph>
    <TTGlyph name="jcircumflex" xMin="-49" yMin="-200" xMax="259" yMax="740">
      <component glyphName="uni0237" x="0" y="0" flags="0x204"/>
      <component glyphName="uni0302" x="106" y="0" flags="0x4"/>
    </TTGlyph>
    <TTGlyph name="jcircumflex.ss01" xMin="-48" yMin="-200" xMax="260" yMax="740">
      <component glyphName="uni0237.ss01" x="0" y="0" flags="0x204"/>
      <component glyphName="uni0302" x="107" y="0" flags="0x4"/>
    </TTGlyph>
    <TTGlyph name="k" xMin="40" yMin="0" xMax="563" yMax="730">
      <contour>
        <pt x="40" y="0" on="1"/>
        <pt x="40" y="730" on="1"/>
        <pt x="175" y="730" on="1"/>
        <pt x="175" y="310" on="1"/>
        <pt x="370" y="520" on="1"/>
        <pt x="562" y="520" on="1"/>
        <pt x="317" y="278" on="1"/>
        <pt x="563" y="0" on="1"/>
        <pt x="384" y="0" on="1"/>
        <pt x="175" y="247" on="1"/>
        <pt x="175" y="0" on="1"/>
      </contour>
    </TTGlyph>
    <TTGlyph name="kgreenlandic" xMin="40" yMin="0" xMax="563" yMax="520">
      <contour>
        <pt x="40" y="0" on="1"/>
        <pt x="40" y="520" on="1"/>
        <pt x="175" y="520" on="1"/>
        <pt x="175" y="308" on="1"/>
        <pt x="370" y="520" on="1"/>
        <pt x="562" y="520" on="1"/>
        <pt x="317" y="275" on="1"/>
        <pt x="563" y="0" on="1"/>
        <pt x="384" y="0" on="1"/>
        <pt x="175" y="245" on="1"/>
        <pt x="175" y="0" on="1"/>
      </contour>
    </TTGlyph>
    <TTGlyph name="l" xMin="40" yMin="0" xMax="175" yMax="730">
      <contour>
        <pt x="40" y="0" on="1"/>
        <pt x="40" y="730" on="1"/>
        <pt x="175" y="730" on="1"/>
        <pt x="175" y="0" on="1"/>
      </contour>
    </TTGlyph>
    <TTGlyph name="lacute" xMin="40" yMin="0" xMax="236" yMax="950">
      <component glyphName="l" x="0" y="0" flags="0x204"/>
      <component glyphName="acutecomb" x="103" y="210" flags="0x4"/>
    </TTGlyph>
    <TTGlyph name="lcaron" xMin="40" yMin="0" xMax="388" yMax="730">
      <component glyphName="l" x="0" y="0" flags="0x4"/>
      <component glyphName="uni030C.alt" x="185" y="30" flags="0x4"/>
    </TTGlyph>
    <TTGlyph name="less" xMin="50" yMin="70" xMax="482" yMax="550">
      <contour>
        <pt x="313" y="70" on="1"/>
        <pt x="50" y="310" on="1"/>
        <pt x="313" y="550" on="1"/>
        <pt x="482" y="550" on="1"/>
        <pt x="222" y="314" on="1"/>
        <pt x="482" y="70" on="1"/>
      </contour>
    </TTGlyph>
    <TTGlyph name="lessequal" xMin="15" yMin="81" xMax="497" yMax="640">
      <contour>
        <pt x="494" y="220" on="1"/>
        <pt x="15" y="430" on="1"/>
        <pt x="494" y="640" on="1"/>
        <pt x="494" y="524" on="1"/>
        <pt x="263" y="430" on="1"/>
        <pt x="494" y="336" on="1"/>
      </contour>
      <contour>
        <pt x="45" y="81" on="1"/>
        <pt x="45" y="191" on="1"/>
        <pt x="497" y="191" on="1"/>
        <pt x="497" y="81" on="1"/>
      </contour>
    </TTGlyph>
    <TTGlyph name="logicalnot" xMin="65" yMin="148" xMax="478" yMax="360">
      <contour>
        <pt x="358" y="148" on="1"/>
        <pt x="358" y="250" on="1"/>
        <pt x="65" y="250" on="1"/>
        <pt x="65" y="360" on="1"/>
        <pt x="478" y="360" on="1"/>
        <pt x="478" y="148" on="1"/>
      </contour>
    </TTGlyph>
    <TTGlyph name="lslash" xMin="-18" yMin="0" xMax="247" yMax="730">
      <contour>
        <pt x="46" y="0" on="1"/>
        <pt x="46" y="240" on="1"/>
        <pt x="-18" y="195" on="1"/>
        <pt x="-18" y="321" on="1"/>
        <pt x="46" y="366" on="1"/>
        <pt x="46" y="730" on="1"/>
        <pt x="181" y="730" on="1"/>
        <pt x="181" y="447" on="1"/>
        <pt x="247" y="499" on="1"/>
        <pt x="247" y="373" on="1"/>
        <pt x="181" y="327" on="1"/>
        <pt x="181" y="0" on="1"/>
      </contour>
    </TTGlyph>
    <TTGlyph name="m" xMin="40" yMin="0" xMax="875" yMax="532">
      <contour>
        <pt x="40" y="0" on="1"/>
        <pt x="40" y="520" on="1"/>
        <pt x="173" y="520" on="1"/>
        <pt x="173" y="444" on="1"/>
        <pt x="214" y="532" on="0"/>
        <pt x="332" y="532" on="1"/>
        <pt x="387" y="532" on="0"/>
        <pt x="475" y="481" on="0"/>
        <pt x="501" y="434" on="1"/>
        <pt x="527" y="481" on="0"/>
        <pt x="608" y="532" on="0"/>
        <pt x="677" y="532" on="1"/>
        <pt x="733" y="532" on="0"/>
        <pt x="823" y="480" on="0"/>
        <pt x="875" y="384" on="0"/>
        <pt x="875" y="318" on="1"/>
        <pt x="875" y="0" on="1"/>
        <pt x="740" y="0" on="1"/>
        <pt x="740" y="285" on="1"/>
        <pt x="740" y="353" on="0"/>
        <pt x="682" y="414" on="0"/>
        <pt x="636" y="414" on="1"/>
        <pt x="589" y="414" on="0"/>
        <pt x="530" y="360" on="0"/>
        <pt x="530" y="285" on="1"/>
        <pt x="530" y="0" on="1"/>
        <pt x="395" y="0" on="1"/>
        <pt x="395" y="285" on="1"/>
        <pt x="395" y="353" on="0"/>
        <pt x="333" y="414" on="0"/>
        <pt x="283" y="414" on="1"/>
        <pt x="240" y="414" on="0"/>
        <pt x="175" y="353" on="0"/>
        <pt x="175" y="285" on="1"/>
        <pt x="175" y="0" on="1"/>
      </contour>
    </TTGlyph>
    <TTGlyph name="macron" xMin="148" yMin="598" xMax="454" yMax="688">
      <component glyphName="uni0304" x="301" y="0" flags="0x4"/>
    </TTGlyph>
    <TTGlyph name="minus" xMin="45" yMin="261" xMax="497" yMax="371">
      <contour>
        <pt x="45" y="261" on="1"/>
        <pt x="45" y="371" on="1"/>
        <pt x="497" y="371" on="1"/>
        <pt x="497" y="261" on="1"/>
      </contour>
    </TTGlyph>
    <TTGlyph name="minute" xMin="55" yMin="433" xMax="218" yMax="700">
      <contour>
        <pt x="55" y="433" on="1"/>
        <pt x="67" y="700" on="1"/>
        <pt x="218" y="700" on="1"/>
        <pt x="126" y="433" on="1"/>
      </contour>
    </TTGlyph>
    <TTGlyph name="multiply" xMin="64" yMin="72" xMax="478" yMax="487">
      <contour>
        <pt x="140" y="72" on="1"/>
        <pt x="65" y="149" on="1"/>
        <pt x="195" y="280" on="1"/>
        <pt x="64" y="410" on="1"/>
        <pt x="141" y="486" on="1"/>
        <pt x="271" y="356" on="1"/>
        <pt x="401" y="487" on="1"/>
        <pt x="476" y="410" on="1"/>
        <pt x="347" y="280" on="1"/>
        <pt x="478" y="149" on="1"/>
        <pt x="401" y="74" on="1"/>
        <pt x="271" y="204" on="1"/>
      </contour>
    </TTGlyph>
    <TTGlyph name="n" xMin="40" yMin="0" xMax="530" yMax="532">
      <contour>
        <pt x="40" y="0" on="1"/>
        <pt x="40" y="520" on="1"/>
        <pt x="173" y="520" on="1"/>
        <pt x="173" y="444" on="1"/>
        <pt x="214" y="532" on="0"/>
        <pt x="332" y="532" on="1"/>
        <pt x="388" y="532" on="0"/>
        <pt x="478" y="480" on="0"/>
        <pt x="530" y="384" on="0"/>
        <pt x="530" y="318" on="1"/>
        <pt x="530" y="0" on="1"/>
        <pt x="395" y="0" on="1"/>
        <pt x="395" y="285" on="1"/>
        <pt x="395" y="353" on="0"/>
        <pt x="333" y="414" on="0"/>
        <pt x="283" y="414" on="1"/>
        <pt x="240" y="414" on="0"/>
        <pt x="175" y="353" on="0"/>
        <pt x="175" y="285" on="1"/>
        <pt x="175" y="0" on="1"/>
      </contour>
    </TTGlyph>
    <TTGlyph name="nacute" xMin="40" yMin="0" xMax="530" yMax="745">
      <component glyphName="n" x="0" y="0" flags="0x204"/>
      <component glyphName="acutecomb" x="296" y="5" flags="0x4"/>
    </TTGlyph>
    <TTGlyph name="ncaron" xMin="40" yMin="0" xMax="530" yMax="745">
      <component glyphName="n" x="0" y="0" flags="0x204"/>
      <component glyphName="uni030C" x="296" y="5" flags="0x4"/>
    </TTGlyph>
    <TTGlyph name="nine" xMin="15" yMin="0" xMax="529" yMax="713">
      <contour>
        <pt x="110" y="0" on="1"/>
        <pt x="273" y="246" on="1"/>
        <pt x="194" y="239" on="0"/>
        <pt x="78" y="293" on="0"/>
        <pt x="15" y="401" on="0"/>
        <pt x="15" y="473" on="1"/>
        <pt x="15" y="543" on="0"/>
        <pt x="81" y="651" on="0"/>
        <pt x="198" y="713" on="0"/>
        <pt x="273" y="713" on="1"/>
        <pt x="349" y="713" on="0"/>
        <pt x="464" y="651" on="0"/>
        <pt x="529" y="543" on="0"/>
        <pt x="529" y="473" on="1"/>
        <pt x="529" y="435" on="0"/>
        <pt x="510" y="358" on="0"/>
        <pt x="473" y="302" on="1"/>
        <pt x="273" y="0" on="1"/>
      </contour>
      <contour>
        <pt x="272" y="355" on="1"/>
        <pt x="308" y="355" on="0"/>
        <pt x="358" y="389" on="0"/>
        <pt x="384" y="443" on="0"/>
        <pt x="384" y="473" on="1"/>
        <pt x="384" y="518" on="0"/>
        <pt x="326" y="583" on="0"/>
        <pt x="273" y="583" on="1"/>
        <pt x="219" y="583" on="0"/>
        <pt x="160" y="518" on="0"/>
        <pt x="160" y="473" on="1"/>
        <pt x="160" y="443" on="0"/>
        <pt x="186" y="389" on="0"/>
        <pt x="237" y="355" on="0"/>
      </contour>
    </TTGlyph>
    <TTGlyph name="nine.tf" xMin="42" yMin="0" xMax="556" yMax="713">
      <component glyphName="nine" x="27" y="0" flags="0x4"/>
    </TTGlyph>
    <TTGlyph name="notequal" xMin="45" yMin="70" xMax="497" yMax="561">
      <contour>
        <pt x="57" y="70" on="1"/>
        <pt x="106" y="149" on="1"/>
        <pt x="45" y="149" on="1"/>
        <pt x="45" y="259" on="1"/>
        <pt x="175" y="259" on="1"/>
        <pt x="250" y="372" on="1"/>
        <pt x="45" y="372" on="1"/>
        <pt x="45" y="482" on="1"/>
        <pt x="313" y="482" on="1"/>
        <pt x="362" y="561" on="1"/>
        <pt x="474" y="561" on="1"/>
        <pt x="425" y="482" on="1"/>
        <pt x="497" y="482" on="1"/>
        <pt x="497" y="372" on="1"/>
        <pt x="356" y="372" on="1"/>
        <pt x="281" y="259" on="1"/>
        <pt x="497" y="259" on="1"/>
        <pt x="497" y="149" on="1"/>
        <pt x="219" y="149" on="1"/>
        <pt x="170" y="70" on="1"/>
      </contour>
    </TTGlyph>
    <TTGlyph name="ntilde" xMin="40" yMin="0" xMax="530" yMax="716">
      <component glyphName="n" x="0" y="0" flags="0x204"/>
      <component glyphName="tildecomb" x="296" y="5" flags="0x4"/>
    </TTGlyph>
    <TTGlyph name="numbersign" xMin="28" yMin="0" xMax="655" yMax="730">
      <contour>
        <pt x="61" y="0" on="1"/>
        <pt x="108" y="191" on="1"/>
        <pt x="28" y="191" on="1"/>
        <pt x="28" y="298" on="1"/>
        <pt x="137" y="298" on="1"/>
        <pt x="174" y="448" on="1"/>
        <pt x="43" y="448" on="1"/>
        <pt x="43" y="555" on="1"/>
        <pt x="199" y="555" on="1"/>
        <pt x="243" y="730" on="1"/>
        <pt x="363" y="730" on="1"/>
        <pt x="319" y="555" on="1"/>
        <pt x="450" y="555" on="1"/>
        <pt x="493" y="730" on="1"/>
        <pt x="613" y="730" on="1"/>
        <pt x="569" y="555" on="1"/>
        <pt x="655" y="555" on="1"/>
        <pt x="655" y="448" on="1"/>
        <pt x="540" y="448" on="1"/>
        <pt x="502" y="298" on="1"/>
        <pt x="640" y="298" on="1"/>
        <pt x="640" y="191" on="1"/>
        <pt x="477" y="191" on="1"/>
        <pt x="429" y="0" on="1"/>
        <pt x="311" y="0" on="1"/>
        <pt x="359" y="191" on="1"/>
        <pt x="227" y="191" on="1"/>
        <pt x="179" y="0" on="1"/>
      </contour>
      <contour>
        <pt x="249" y="298" on="1"/>
        <pt x="390" y="298" on="1"/>
        <pt x="428" y="448" on="1"/>
        <pt x="287" y="448" on="1"/>
      </contour>
    </TTGlyph>
    <TTGlyph name="numbersign.tf" xMin="-14" yMin="0" xMax="613" yMax="730">
      <component glyphName="numbersign" x="-42" y="0" flags="0x4"/>
    </TTGlyph>
    <TTGlyph name="o" xMin="20" yMin="-13" xMax="574" yMax="532">
      <contour>
        <pt x="297" y="-13" on="1"/>
        <pt x="217" y="-13" on="0"/>
        <pt x="91" y="61" on="0"/>
        <pt x="20" y="184" on="0"/>
        <pt x="20" y="259" on="1"/>
        <pt x="20" y="334" on="0"/>
        <pt x="91" y="458" on="0"/>
        <pt x="217" y="532" on="0"/>
        <pt x="297" y="532" on="1"/>
        <pt x="378" y="532" on="0"/>
        <pt x="503" y="458" on="0"/>
        <pt x="574" y="334" on="0"/>
        <pt x="574" y="259" on="1"/>
        <pt x="574" y="184" on="0"/>
        <pt x="503" y="61" on="0"/>
        <pt x="378" y="-13" on="0"/>
      </contour>
      <contour>
        <pt x="297" y="110" on="1"/>
        <pt x="340" y="110" on="0"/>
        <pt x="404" y="151" on="0"/>
        <pt x="439" y="219" on="0"/>
        <pt x="439" y="259" on="1"/>
        <pt x="439" y="300" on="0"/>
        <pt x="404" y="368" on="0"/>
        <pt x="340" y="409" on="0"/>
        <pt x="297" y="409" on="1"/>
        <pt x="254" y="409" on="0"/>
        <pt x="190" y="368" on="0"/>
        <pt x="155" y="300" on="0"/>
        <pt x="155" y="259" on="1"/>
        <pt x="155" y="219" on="0"/>
        <pt x="190" y="151" on="0"/>
        <pt x="254" y="110" on="0"/>
      </contour>
    </TTGlyph>
    <TTGlyph name="oacute" xMin="20" yMin="-13" xMax="574" yMax="740">
      <component glyphName="o" x="0" y="0" flags="0x204"/>
      <component glyphName="acutecomb" x="297" y="0" flags="0x4"/>
    </TTGlyph>
    <TTGlyph name="ocircumflex" xMin="20" yMin="-13" xMax="574" yMax="740">
      <component glyphName="o" x="0" y="0" flags="0x204"/>
      <component glyphName="uni0302" x="297" y="0" flags="0x4"/>
    </TTGlyph>
    <TTGlyph name="odieresis" xMin="20" yMin="-13" xMax="574" yMax="722">
      <component glyphName="o" x="0" y="0" flags="0x204"/>
      <component glyphName="uni0308" x="297" y="0" flags="0x4"/>
    </TTGlyph>
    <TTGlyph name="oe" xMin="20" yMin="-13" xMax="962" yMax="533">
      <contour>
        <pt x="297" y="-13" on="1"/>
        <pt x="217" y="-13" on="0"/>
        <pt x="91" y="61" on="0"/>
        <pt x="20" y="184" on="0"/>
        <pt x="20" y="259" on="1"/>
        <pt x="20" y="334" on="0"/>
        <pt x="91" y="458" on="0"/>
        <pt x="217" y="532" on="0"/>
        <pt x="297" y="532" on="1"/>
        <pt x="367" y="532" on="0"/>
        <pt x="470" y="468" on="0"/>
        <pt x="501" y="415" on="1"/>
        <pt x="530" y="468" on="0"/>
        <pt x="631" y="533" on="0"/>
        <pt x="698" y="533" on="1"/>
        <pt x="776" y="533" on="0"/>
        <pt x="895" y="459" on="0"/>
        <pt x="962" y="334" on="0"/>
        <pt x="962" y="259" on="1"/>
        <pt x="962" y="248" on="0"/>
        <pt x="960" y="224" on="0"/>
        <pt x="958" y="211" on="1"/>
        <pt x="569" y="211" on="1"/>
        <pt x="580" y="165" on="0"/>
        <pt x="647" y="107" on="0"/>
        <pt x="698" y="107" on="1"/>
        <pt x="742" y="107" on="0"/>
        <pt x="807" y="147" on="0"/>
        <pt x="825" y="177" on="1"/>
        <pt x="930" y="98" on="1"/>
        <pt x="899" y="49" on="0"/>
        <pt x="775" y="-13" on="0"/>
        <pt x="698" y="-13" on="1"/>
        <pt x="629" y="-13" on="0"/>
        <pt x="529" y="50" on="0"/>
        <pt x="500" y="102" on="1"/>
        <pt x="470" y="50" on="0"/>
        <pt x="366" y="-13" on="0"/>
      </contour>
      <contour>
        <pt x="696" y="417" on="1"/>
        <pt x="648" y="417" on="0"/>
        <pt x="582" y="359" on="0"/>
        <pt x="570" y="312" on="1"/>
        <pt x="826" y="312" on="1"/>
        <pt x="815" y="355" on="0"/>
        <pt x="746" y="417" on="0"/>
      </contour>
      <contour>
        <pt x="297" y="110" on="1"/>
        <pt x="340" y="110" on="0"/>
        <pt x="404" y="151" on="0"/>
        <pt x="439" y="219" on="0"/>
        <pt x="439" y="259" on="1"/>
        <pt x="439" y="300" on="0"/>
        <pt x="404" y="368" on="0"/>
        <pt x="340" y="409" on="0"/>
        <pt x="297" y="409" on="1"/>
        <pt x="254" y="409" on="0"/>
        <pt x="190" y="368" on="0"/>
        <pt x="155" y="300" on="0"/>
        <pt x="155" y="259" on="1"/>
        <pt x="155" y="219" on="0"/>
        <pt x="190" y="151" on="0"/>
        <pt x="254" y="110" on="0"/>
      </contour>
    </TTGlyph>
    <TTGlyph name="ogonek" xMin="298" yMin="-213" xMax="493" yMax="17">
      <component glyphName="uni0328" x="369" y="0" flags="0x4"/>
    </TTGlyph>
    <TTGlyph name="ograve" xMin="20" yMin="-13" xMax="574" yMax="740">
      <component glyphName="o" x="0" y="0" flags="0x204"/>
      <component glyphName="gravecomb" x="297" y="0" flags="0x4"/>
    </TTGlyph>
    <TTGlyph name="ohorn" xMin="20" yMin="-13" xMax="585" yMax="641">
      <component glyphName="o" x="0" y="0" flags="0x204"/>
      <component glyphName="uni031B" x="334" y="0" flags="0x4"/>
    </TTGlyph>
    <TTGlyph name="ohungarumlaut" xMin="20" yMin="-13" xMax="574" yMax="740">
      <component glyphName="o" x="0" y="0" flags="0x204"/>
      <component glyphName="uni030B" x="297" y="0" flags="0x4"/>
    </TTGlyph>
    <TTGlyph name="omacron" xMin="20" yMin="-13" xMax="574" yMax="688">
      <component glyphName="o" x="0" y="0" flags="0x204"/>
      <component glyphName="uni0304" x="298" y="0" flags="0x4"/>
    </TTGlyph>
    <TTGlyph name="one" xMin="-21" yMin="0" xMax="240" yMax="700">
      <contour>
        <pt x="100" y="0" on="1"/>
        <pt x="100" y="544" on="1"/>
        <pt x="-21" y="544" on="1"/>
        <pt x="-21" y="559" on="1"/>
        <pt x="100" y="700" on="1"/>
        <pt x="240" y="700" on="1"/>
        <pt x="240" y="0" on="1"/>
      </contour>
    </TTGlyph>
    <TTGlyph name="one.ss01" xMin="0" yMin="0" xMax="251" yMax="700">
      <contour>
        <pt x="111" y="0" on="1"/>
        <pt x="111" y="577" on="1"/>
        <pt x="0" y="577" on="1"/>
        <pt x="0" y="700" on="1"/>
        <pt x="251" y="700" on="1"/>
        <pt x="251" y="0" on="1"/>
      </contour>
    </TTGlyph>
    <TTGlyph name="one.ss01.tf" xMin="137" yMin="0" xMax="388" yMax="700">
      <component glyphName="one.ss01" x="137" y="0" flags="0x4"/>
    </TTGlyph>
    <TTGlyph name="one.tf" xMin="137" yMin="0" xMax="398" yMax="700">
      <component glyphName="one" x="158" y="0" flags="0x4"/>
    </TTGlyph>
    <TTGlyph name="onehalf" xMin="-12" yMin="-5" xMax="757" yMax="700">
      <contour>
        <pt x="95" y="300" on="1"/>
        <pt x="95" y="608" on="1"/>
        <pt x="22" y="608" on="1"/>
        <pt x="22" y="631" on="1"/>
        <pt x="95" y="700" on="1"/>
        <pt x="203" y="700" on="1"/>
        <pt x="203" y="300" on="1"/>
      </contour>
      <contour>
        <pt x="-12" y="0" on="1"/>
        <pt x="605" y="700" on="1"/>
        <pt x="735" y="700" on="1"/>
        <pt x="118" y="0" on="1"/>
      </contour>
      <contour>
        <pt x="447" y="-5" on="1"/>
        <pt x="447" y="5" on="1"/>
        <pt x="617" y="216" on="1"/>
        <pt x="630" y="233" on="0"/>
        <pt x="638" y="259" on="0"/>
        <pt x="638" y="273" on="1"/>
        <pt x="638" y="290" on="0"/>
        <pt x="618" y="312" on="0"/>
        <pt x="600" y="312" on="1"/>
        <pt x="556" y="312" on="0"/>
        <pt x="556" y="264" on="1"/>
        <pt x="446" y="264" on="1"/>
        <pt x="446" y="305" on="0"/>
        <pt x="487" y="367" on="0"/>
        <pt x="557" y="402" on="0"/>
        <pt x="598" y="402" on="1"/>
        <pt x="639" y="402" on="0"/>
        <pt x="707" y="368" on="0"/>
        <pt x="747" y="310" on="0"/>
        <pt x="747" y="275" on="1"/>
        <pt x="747" y="253" on="0"/>
        <pt x="733" y="212" on="0"/>
        <pt x="715" y="185" on="1"/>
        <pt x="687" y="143" on="1"/>
        <pt x="678" y="129" on="0"/>
        <pt x="650" y="99" on="0"/>
        <pt x="631" y="84" on="1"/>
        <pt x="757" y="84" on="1"/>
        <pt x="757" y="-5" on="1"/>
      </contour>
    </TTGlyph>
    <TTGlyph name="onehalf.ss01" xMin="-12" yMin="-5" xMax="757" yMax="700">
      <contour>
        <pt x="86" y="300" on="1"/>
        <pt x="86" y="610" on="1"/>
        <pt x="22" y="610" on="1"/>
        <pt x="22" y="700" on="1"/>
        <pt x="194" y="700" on="1"/>
        <pt x="194" y="300" on="1"/>
      </contour>
      <contour>
        <pt x="-12" y="0" on="1"/>
        <pt x="605" y="700" on="1"/>
        <pt x="735" y="700" on="1"/>
        <pt x="118" y="0" on="1"/>
      </contour>
      <contour>
        <pt x="447" y="-5" on="1"/>
        <pt x="447" y="5" on="1"/>
        <pt x="617" y="216" on="1"/>
        <pt x="630" y="233" on="0"/>
        <pt x="638" y="259" on="0"/>
        <pt x="638" y="273" on="1"/>
        <pt x="638" y="290" on="0"/>
        <pt x="618" y="312" on="0"/>
        <pt x="600" y="312" on="1"/>
        <pt x="556" y="312" on="0"/>
        <pt x="556" y="264" on="1"/>
        <pt x="446" y="264" on="1"/>
        <pt x="446" y="305" on="0"/>
        <pt x="487" y="367" on="0"/>
        <pt x="557" y="402" on="0"/>
        <pt x="598" y="402" on="1"/>
        <pt x="639" y="402" on="0"/>
        <pt x="707" y="368" on="0"/>
        <pt x="747" y="310" on="0"/>
        <pt x="747" y="275" on="1"/>
        <pt x="747" y="253" on="0"/>
        <pt x="733" y="212" on="0"/>
        <pt x="715" y="185" on="1"/>
        <pt x="687" y="143" on="1"/>
        <pt x="678" y="129" on="0"/>
        <pt x="650" y="99" on="0"/>
        <pt x="631" y="84" on="1"/>
        <pt x="757" y="84" on="1"/>
        <pt x="757" y="-5" on="1"/>
      </contour>
    </TTGlyph>
    <TTGlyph name="onequarter" xMin="-12" yMin="0" xMax="735" yMax="700">
      <contour>
        <pt x="96" y="300" on="1"/>
        <pt x="96" y="608" on="1"/>
        <pt x="23" y="608" on="1"/>
        <pt x="23" y="631" on="1"/>
        <pt x="96" y="700" on="1"/>
        <pt x="204" y="700" on="1"/>
        <pt x="204" y="300" on="1"/>
      </contour>
      <contour>
        <pt x="-12" y="0" on="1"/>
        <pt x="605" y="700" on="1"/>
        <pt x="735" y="700" on="1"/>
        <pt x="118" y="0" on="1"/>
      </contour>
      <contour>
        <pt x="577" y="0" on="1"/>
        <pt x="577" y="97" on="1"/>
        <pt x="378" y="97" on="1"/>
        <pt x="378" y="144" on="1"/>
        <pt x="582" y="420" on="1"/>
        <pt x="685" y="420" on="1"/>
        <pt x="685" y="185" on="1"/>
        <pt x="723" y="185" on="1"/>
        <pt x="723" y="97" on="1"/>
        <pt x="685" y="97" on="1"/>
        <pt x="685" y="0" on="1"/>
      </contour>
      <contour>
        <pt x="577" y="238" on="1"/>
        <pt x="577" y="255" on="0"/>
        <pt x="579" y="300" on="0"/>
        <pt x="587" y="328" on="1"/>
        <pt x="481" y="182" on="1"/>
        <pt x="577" y="182" on="1"/>
      </contour>
    </TTGlyph>
    <TTGlyph name="onequarter.ss01" xMin="-12" yMin="0" xMax="735" yMax="700">
      <contour>
        <pt x="86" y="300" on="1"/>
        <pt x="86" y="610" on="1"/>
        <pt x="22" y="610" on="1"/>
        <pt x="22" y="700" on="1"/>
        <pt x="194" y="700" on="1"/>
        <pt x="194" y="300" on="1"/>
      </contour>
      <contour>
        <pt x="-12" y="0" on="1"/>
        <pt x="605" y="700" on="1"/>
        <pt x="735" y="700" on="1"/>
        <pt x="118" y="0" on="1"/>
      </contour>
      <contour>
        <pt x="553" y="0" on="1"/>
        <pt x="553" y="87" on="1"/>
        <pt x="354" y="87" on="1"/>
        <pt x="354" y="134" on="1"/>
        <pt x="558" y="400" on="1"/>
        <pt x="661" y="400" on="1"/>
        <pt x="661" y="175" on="1"/>
        <pt x="699" y="175" on="1"/>
        <pt x="699" y="87" on="1"/>
        <pt x="661" y="87" on="1"/>
        <pt x="661" y="0" on="1"/>
      </contour>
      <contour>
        <pt x="553" y="209" on="1"/>
        <pt x="553" y="227" on="0"/>
        <pt x="555" y="273" on="0"/>
        <pt x="564" y="302" on="1"/>
        <pt x="469" y="172" on="1"/>
        <pt x="553" y="172" on="1"/>
      </contour>
    </TTGlyph>
    <TTGlyph name="ordfeminine" xMin="19" yMin="157" xMax="433" yMax="713">
      <contour>
        <pt x="211" y="311" on="1"/>
        <pt x="158" y="311" on="0"/>
        <pt x="70" y="364" on="0"/>
        <pt x="19" y="455" on="0"/>
        <pt x="19" y="511" on="1"/>
        <pt x="19" y="567" on="0"/>
        <pt x="70" y="658" on="0"/>
        <pt x="158" y="713" on="0"/>
        <pt x="211" y="713" on="1"/>
        <pt x="250" y="713" on="0"/>
        <pt x="303" y="684" on="0"/>
        <pt x="321" y="660" on="1"/>
        <pt x="321" y="705" on="1"/>
        <pt x="432" y="705" on="1"/>
        <pt x="432" y="320" on="1"/>
        <pt x="323" y="320" on="1"/>
        <pt x="323" y="365" on="1"/>
        <pt x="306" y="340" on="0"/>
        <pt x="251" y="311" on="0"/>
      </contour>
      <contour>
        <pt x="236" y="414" on="1"/>
        <pt x="278" y="414" on="0"/>
        <pt x="330" y="471" on="0"/>
        <pt x="330" y="511" on="1"/>
        <pt x="330" y="551" on="0"/>
        <pt x="278" y="609" on="0"/>
        <pt x="236" y="609" on="1"/>
        <pt x="193" y="609" on="0"/>
        <pt x="142" y="551" on="0"/>
        <pt x="142" y="512" on="1"/>
        <pt x="142" y="473" on="0"/>
        <pt x="193" y="414" on="0"/>
      </contour>
      <contour>
        <pt x="37" y="157" on="1"/>
        <pt x="37" y="256" on="1"/>
        <pt x="433" y="256" on="1"/>
        <pt x="433" y="157" on="1"/>
      </contour>
    </TTGlyph>
    <TTGlyph name="ordmasculine" xMin="19" yMin="157" xMax="431" yMax="713">
      <contour>
        <pt x="225" y="312" on="1"/>
        <pt x="165" y="312" on="0"/>
        <pt x="72" y="366" on="0"/>
        <pt x="19" y="457" on="0"/>
        <pt x="19" y="512" on="1"/>
        <pt x="19" y="568" on="0"/>
        <pt x="72" y="659" on="0"/>
        <pt x="165" y="713" on="0"/>
        <pt x="225" y="713" on="1"/>
        <pt x="285" y="713" on="0"/>
        <pt x="378" y="659" on="0"/>
        <pt x="431" y="568" on="0"/>
        <pt x="431" y="512" on="1"/>
        <pt x="431" y="457" on="0"/>
        <pt x="378" y="366" on="0"/>
        <pt x="285" y="312" on="0"/>
      </contour>
      <contour>
        <pt x="225" y="416" on="1"/>
        <pt x="266" y="416" on="0"/>
        <pt x="316" y="473" on="0"/>
        <pt x="316" y="512" on="1"/>
        <pt x="316" y="551" on="0"/>
        <pt x="266" y="609" on="0"/>
        <pt x="225" y="609" on="1"/>
        <pt x="183" y="609" on="0"/>
        <pt x="133" y="551" on="0"/>
        <pt x="133" y="512" on="1"/>
        <pt x="133" y="473" on="0"/>
        <pt x="183" y="416" on="0"/>
      </contour>
      <contour>
        <pt x="37" y="157" on="1"/>
        <pt x="37" y="256" on="1"/>
        <pt x="413" y="256" on="1"/>
        <pt x="413" y="157" on="1"/>
      </contour>
    </TTGlyph>
    <TTGlyph name="oslash" xMin="20" yMin="-39" xMax="574" yMax="561">
      <component glyphName="o" x="0" y="0" flags="0x204"/>
      <component glyphName="uni0338" x="6" y="1" flags="0x4"/>
    </TTGlyph>
    <TTGlyph name="otilde" xMin="20" yMin="-13" xMax="574" yMax="711">
      <component glyphName="o" x="0" y="0" flags="0x204"/>
      <component glyphName="tildecomb" x="297" y="0" flags="0x4"/>
    </TTGlyph>
    <TTGlyph name="p" xMin="40" yMin="-200" xMax="596" yMax="531">
      <contour>
        <pt x="40" y="-200" on="1"/>
        <pt x="40" y="520" on="1"/>
        <pt x="173" y="520" on="1"/>
        <pt x="173" y="436" on="1"/>
        <pt x="194" y="479" on="0"/>
        <pt x="271" y="531" on="0"/>
        <pt x="339" y="531" on="1"/>
        <pt x="393" y="531" on="0"/>
        <pt x="486" y="488" on="0"/>
        <pt x="556" y="413" on="0"/>
        <pt x="596" y="314" on="0"/>
        <pt x="596" y="258" on="1"/>
        <pt x="596" y="183" on="0"/>
        <pt x="527" y="60" on="0"/>
        <pt x="411" y="-13" on="0"/>
        <pt x="339" y="-13" on="1"/>
        <pt x="272" y="-13" on="0"/>
        <pt x="196" y="36" on="0"/>
        <pt x="175" y="77" on="1"/>
        <pt x="175" y="-200" on="1"/>
      </contour>
      <contour>
        <pt x="317" y="109" on="1"/>
        <pt x="360" y="109" on="0"/>
        <pt x="425" y="151" on="0"/>
        <pt x="461" y="220" on="0"/>
        <pt x="461" y="259" on="1"/>
        <pt x="461" y="300" on="0"/>
        <pt x="425" y="368" on="0"/>
        <pt x="360" y="409" on="0"/>
        <pt x="317" y="409" on="1"/>
        <pt x="273" y="409" on="0"/>
        <pt x="207" y="367" on="0"/>
        <pt x="171" y="299" on="0"/>
        <pt x="171" y="258" on="1"/>
        <pt x="171" y="218" on="0"/>
        <pt x="207" y="150" on="0"/>
        <pt x="273" y="109" on="0"/>
      </contour>
    </TTGlyph>
    <TTGlyph name="paragraph" xMin="9" yMin="0" xMax="475" yMax="700">
      <contour>
        <pt x="255" y="0" on="1"/>
        <pt x="255" y="318" on="1"/>
        <pt x="225" y="318" on="1"/>
        <pt x="125" y="318" on="0"/>
        <pt x="9" y="416" on="0"/>
        <pt x="9" y="510" on="1"/>
        <pt x="9" y="605" on="0"/>
        <pt x="125" y="700" on="0"/>
        <pt x="225" y="700" on="1"/>
        <pt x="475" y="700" on="1"/>
        <pt x="475" y="0" on="1"/>
        <pt x="400" y="0" on="1"/>
        <pt x="400" y="600" on="1"/>
        <pt x="330" y="600" on="1"/>
        <pt x="330" y="0" on="1"/>
      </contour>
    </TTGlyph>
    <TTGlyph name="parenleft" xMin="35" yMin="-214" xMax="298" yMax="742">
      <contour>
        <pt x="180" y="-214" on="1"/>
        <pt x="124" y="-130" on="0"/>
        <pt x="57" y="65" on="0"/>
        <pt x="35" y="272" on="0"/>
        <pt x="57" y="477" on="0"/>
        <pt x="124" y="665" on="0"/>
        <pt x="180" y="742" on="1"/>
        <pt x="298" y="679" on="1"/>
        <pt x="174" y="491" on="0"/>
        <pt x="179" y="68" on="0"/>
        <pt x="298" y="-151" on="1"/>
      </contour>
    </TTGlyph>
    <TTGlyph name="parenright" xMin="14" yMin="-214" xMax="277" yMax="742">
      <contour>
        <pt x="132" y="-214" on="1"/>
        <pt x="14" y="-151" on="1"/>
        <pt x="133" y="68" on="0"/>
        <pt x="138" y="491" on="0"/>
        <pt x="14" y="679" on="1"/>
        <pt x="132" y="742" on="1"/>
        <pt x="188" y="665" on="0"/>
        <pt x="255" y="477" on="0"/>
        <pt x="277" y="272" on="0"/>
        <pt x="255" y="65" on="0"/>
        <pt x="188" y="-130" on="0"/>
      </contour>
    </TTGlyph>
    <TTGlyph name="partialdiff" xMin="20" yMin="-13" xMax="553" yMax="730">
      <contour>
        <pt x="283" y="-13" on="1"/>
        <pt x="206" y="-13" on="0"/>
        <pt x="87" y="56" on="0"/>
        <pt x="20" y="171" on="0"/>
        <pt x="20" y="241" on="1"/>
        <pt x="20" y="317" on="0"/>
        <pt x="87" y="426" on="0"/>
        <pt x="192" y="484" on="0"/>
        <pt x="247" y="484" on="1"/>
        <pt x="297" y="484" on="0"/>
        <pt x="335" y="466" on="1"/>
        <pt x="319" y="488" on="0"/>
        <pt x="304" y="504" on="1"/>
        <pt x="173" y="644" on="1"/>
        <pt x="284" y="730" on="1"/>
        <pt x="445" y="545" on="1"/>
        <pt x="494" y="489" on="0"/>
        <pt x="553" y="357" on="0"/>
        <pt x="553" y="301" on="1"/>
        <pt x="553" y="195" on="0"/>
        <pt x="482" y="56" on="0"/>
        <pt x="360" y="-13" on="0"/>
      </contour>
      <contour>
        <pt x="157" y="241" on="1"/>
        <pt x="157" y="207" on="0"/>
        <pt x="188" y="149" on="0"/>
        <pt x="244" y="114" on="0"/>
        <pt x="283" y="114" on="1"/>
        <pt x="342" y="114" on="0"/>
        <pt x="409" y="191" on="0"/>
        <pt x="409" y="261" on="1"/>
        <pt x="409" y="294" on="0"/>
        <pt x="400" y="329" on="1"/>
        <pt x="381" y="346" on="0"/>
        <pt x="319" y="365" on="0"/>
        <pt x="283" y="365" on="1"/>
        <pt x="225" y="365" on="0"/>
        <pt x="157" y="294" on="0"/>
      </contour>
    </TTGlyph>
    <TTGlyph name="percent" xMin="15" yMin="-8" xMax="666" yMax="708">
      <contour>
        <pt x="170" y="401" on="1"/>
        <pt x="124" y="401" on="0"/>
        <pt x="55" y="442" on="0"/>
        <pt x="15" y="511" on="0"/>
        <pt x="15" y="553" on="1"/>
        <pt x="15" y="596" on="0"/>
        <pt x="55" y="666" on="0"/>
        <pt x="124" y="708" on="0"/>
        <pt x="170" y="708" on="1"/>
        <pt x="216" y="708" on="0"/>
        <pt x="286" y="665" on="0"/>
        <pt x="326" y="595" on="0"/>
        <pt x="326" y="553" on="1"/>
        <pt x="326" y="511" on="0"/>
        <pt x="286" y="442" on="0"/>
        <pt x="216" y="401" on="0"/>
      </contour>
      <contour>
        <pt x="37" y="0" on="1"/>
        <pt x="535" y="700" on="1"/>
        <pt x="644" y="700" on="1"/>
        <pt x="147" y="0" on="1"/>
      </contour>
      <contour>
        <pt x="170" y="493" on="1"/>
        <pt x="197" y="493" on="0"/>
        <pt x="229" y="528" on="0"/>
        <pt x="228" y="553" on="1"/>
        <pt x="228" y="579" on="0"/>
        <pt x="196" y="615" on="0"/>
        <pt x="170" y="615" on="1"/>
        <pt x="145" y="615" on="0"/>
        <pt x="112" y="579" on="0"/>
        <pt x="112" y="553" on="1"/>
        <pt x="112" y="528" on="0"/>
        <pt x="145" y="493" on="0"/>
      </contour>
      <contour>
        <pt x="510" y="-8" on="1"/>
        <pt x="465" y="-8" on="0"/>
        <pt x="395" y="33" on="0"/>
        <pt x="355" y="102" on="0"/>
        <pt x="355" y="144" on="1"/>
        <pt x="355" y="187" on="0"/>
        <pt x="395" y="257" on="0"/>
        <pt x="465" y="299" on="0"/>
        <pt x="510" y="299" on="1"/>
        <pt x="556" y="299" on="0"/>
        <pt x="626" y="257" on="0"/>
        <pt x="666" y="187" on="0"/>
        <pt x="666" y="144" on="1"/>
        <pt x="666" y="102" on="0"/>
        <pt x="626" y="33" on="0"/>
        <pt x="556" y="-8" on="0"/>
      </contour>
      <contour>
        <pt x="510" y="84" on="1"/>
        <pt x="536" y="83" on="0"/>
        <pt x="569" y="119" on="0"/>
        <pt x="568" y="144" on="1"/>
        <pt x="568" y="170" on="0"/>
        <pt x="536" y="206" on="0"/>
        <pt x="510" y="206" on="1"/>
        <pt x="485" y="206" on="0"/>
        <pt x="452" y="170" on="0"/>
        <pt x="452" y="144" on="1"/>
        <pt x="452" y="119" on="0"/>
        <pt x="485" y="84" on="0"/>
      </contour>
    </TTGlyph>
    <TTGlyph name="period" xMin="22" yMin="-13" xMax="201" yMax="162">
      <contour>
        <pt x="112" y="-13" on="1"/>
        <pt x="73" y="-13" on="0"/>
        <pt x="22" y="39" on="0"/>
        <pt x="22" y="75" on="1"/>
        <pt x="22" y="110" on="0"/>
        <pt x="73" y="162" on="0"/>
        <pt x="112" y="162" on="1"/>
        <pt x="151" y="162" on="0"/>
        <pt x="201" y="110" on="0"/>
        <pt x="201" y="75" on="1"/>
        <pt x="201" y="39" on="0"/>
        <pt x="151" y="-13" on="0"/>
      </contour>
    </TTGlyph>
    <TTGlyph name="period.tf" xMin="211" yMin="-13" xMax="390" yMax="162">
      <component glyphName="period" x="189" y="0" flags="0x4"/>
    </TTGlyph>
    <TTGlyph name="periodcentered" xMin="22" yMin="257" xMax="201" yMax="432">
      <component glyphName="period" x="0" y="270" flags="0x204"/>
    </TTGlyph>
    <TTGlyph name="perthousand" xMin="15" yMin="-8" xMax="1006" yMax="708">
      <contour>
        <pt x="170" y="401" on="1"/>
        <pt x="124" y="401" on="0"/>
        <pt x="55" y="442" on="0"/>
        <pt x="15" y="511" on="0"/>
        <pt x="15" y="553" on="1"/>
        <pt x="15" y="596" on="0"/>
        <pt x="55" y="666" on="0"/>
        <pt x="124" y="708" on="0"/>
        <pt x="170" y="708" on="1"/>
        <pt x="216" y="708" on="0"/>
        <pt x="286" y="665" on="0"/>
        <pt x="326" y="595" on="0"/>
        <pt x="326" y="553" on="1"/>
        <pt x="326" y="511" on="0"/>
        <pt x="286" y="442" on="0"/>
        <pt x="216" y="401" on="0"/>
      </contour>
      <contour>
        <pt x="37" y="0" on="1"/>
        <pt x="535" y="700" on="1"/>
        <pt x="644" y="700" on="1"/>
        <pt x="147" y="0" on="1"/>
      </contour>
      <contour>
        <pt x="170" y="493" on="1"/>
        <pt x="197" y="493" on="0"/>
        <pt x="229" y="528" on="0"/>
        <pt x="228" y="553" on="1"/>
        <pt x="228" y="579" on="0"/>
        <pt x="196" y="615" on="0"/>
        <pt x="170" y="615" on="1"/>
        <pt x="145" y="615" on="0"/>
        <pt x="112" y="579" on="0"/>
        <pt x="112" y="553" on="1"/>
        <pt x="112" y="528" on="0"/>
        <pt x="145" y="493" on="0"/>
      </contour>
      <contour>
        <pt x="850" y="-8" on="1"/>
        <pt x="805" y="-8" on="0"/>
        <pt x="735" y="33" on="0"/>
        <pt x="695" y="102" on="0"/>
        <pt x="695" y="144" on="1"/>
        <pt x="695" y="187" on="0"/>
        <pt x="735" y="257" on="0"/>
        <pt x="805" y="299" on="0"/>
        <pt x="850" y="299" on="1"/>
        <pt x="896" y="299" on="0"/>
        <pt x="966" y="257" on="0"/>
        <pt x="1006" y="187" on="0"/>
        <pt x="1006" y="144" on="1"/>
        <pt x="1006" y="102" on="0"/>
        <pt x="966" y="33" on="0"/>
        <pt x="896" y="-8" on="0"/>
      </contour>
      <contour>
        <pt x="510" y="-8" on="1"/>
        <pt x="465" y="-8" on="0"/>
        <pt x="395" y="33" on="0"/>
        <pt x="355" y="102" on="0"/>
        <pt x="355" y="144" on="1"/>
        <pt x="355" y="187" on="0"/>
        <pt x="395" y="257" on="0"/>
        <pt x="465" y="299" on="0"/>
        <pt x="510" y="299" on="1"/>
        <pt x="556" y="299" on="0"/>
        <pt x="626" y="257" on="0"/>
        <pt x="666" y="187" on="0"/>
        <pt x="666" y="144" on="1"/>
        <pt x="666" y="102" on="0"/>
        <pt x="626" y="33" on="0"/>
        <pt x="556" y="-8" on="0"/>
      </contour>
      <contour>
        <pt x="850" y="84" on="1"/>
        <pt x="876" y="83" on="0"/>
        <pt x="909" y="119" on="0"/>
        <pt x="908" y="144" on="1"/>
        <pt x="908" y="170" on="0"/>
        <pt x="876" y="206" on="0"/>
        <pt x="850" y="206" on="1"/>
        <pt x="825" y="206" on="0"/>
        <pt x="792" y="170" on="0"/>
        <pt x="792" y="144" on="1"/>
        <pt x="792" y="119" on="0"/>
        <pt x="825" y="84" on="0"/>
      </contour>
      <contour>
        <pt x="510" y="84" on="1"/>
        <pt x="536" y="83" on="0"/>
        <pt x="569" y="119" on="0"/>
        <pt x="568" y="144" on="1"/>
        <pt x="568" y="170" on="0"/>
        <pt x="536" y="206" on="0"/>
        <pt x="510" y="206" on="1"/>
        <pt x="485" y="206" on="0"/>
        <pt x="452" y="170" on="0"/>
        <pt x="452" y="144" on="1"/>
        <pt x="452" y="119" on="0"/>
        <pt x="485" y="84" on="0"/>
      </contour>
    </TTGlyph>
    <TTGlyph name="pi" xMin="11" yMin="0" xMax="527" yMax="520">
      <contour>
        <pt x="85" y="0" on="1"/>
        <pt x="85" y="405" on="1"/>
        <pt x="11" y="405" on="1"/>
        <pt x="11" y="520" on="1"/>
        <pt x="526" y="520" on="1"/>
        <pt x="526" y="405" on="1"/>
        <pt x="468" y="405" on="1"/>
        <pt x="468" y="158" on="1"/>
        <pt x="468" y="136" on="0"/>
        <pt x="491" y="118" on="0"/>
        <pt x="513" y="118" on="1"/>
        <pt x="527" y="118" on="1"/>
        <pt x="527" y="0" on="1"/>
        <pt x="482" y="0" on="1"/>
        <pt x="442" y="0" on="0"/>
        <pt x="374" y="26" on="0"/>
        <pt x="333" y="88" on="0"/>
        <pt x="333" y="142" on="1"/>
        <pt x="333" y="405" on="1"/>
        <pt x="220" y="405" on="1"/>
        <pt x="220" y="0" on="1"/>
      </contour>
    </TTGlyph>
    <TTGlyph name="pi.ss01" xMin="11" yMin="0" xMax="552" yMax="520">
      <contour>
        <pt x="80" y="0" on="1"/>
        <pt x="80" y="405" on="1"/>
        <pt x="11" y="405" on="1"/>
        <pt x="11" y="520" on="1"/>
        <pt x="552" y="520" on="1"/>
        <pt x="552" y="405" on="1"/>
        <pt x="483" y="405" on="1"/>
        <pt x="483" y="0" on="1"/>
        <pt x="348" y="0" on="1"/>
        <pt x="348" y="405" on="1"/>
        <pt x="215" y="405" on="1"/>
        <pt x="215" y="0" on="1"/>
      </contour>
    </TTGlyph>
    <TTGlyph name="plus" xMin="45" yMin="84" xMax="497" yMax="546">
      <contour>
        <pt x="213" y="84" on="1"/>
        <pt x="213" y="261" on="1"/>
        <pt x="45" y="261" on="1"/>
        <pt x="45" y="371" on="1"/>
        <pt x="213" y="371" on="1"/>
        <pt x="213" y="546" on="1"/>
        <pt x="329" y="546" on="1"/>
        <pt x="329" y="371" on="1"/>
        <pt x="497" y="371" on="1"/>
        <pt x="497" y="261" on="1"/>
        <pt x="329" y="261" on="1"/>
        <pt x="329" y="84" on="1"/>
      </contour>
    </TTGlyph>
    <TTGlyph name="plusminus" xMin="45" yMin="81" xMax="497" yMax="610">
      <contour>
        <pt x="213" y="234" on="1"/>
        <pt x="213" y="367" on="1"/>
        <pt x="45" y="367" on="1"/>
        <pt x="45" y="477" on="1"/>
        <pt x="213" y="477" on="1"/>
        <pt x="213" y="610" on="1"/>
        <pt x="329" y="610" on="1"/>
        <pt x="329" y="477" on="1"/>
        <pt x="497" y="477" on="1"/>
        <pt x="497" y="367" on="1"/>
        <pt x="329" y="367" on="1"/>
        <pt x="329" y="234" on="1"/>
      </contour>
      <contour>
        <pt x="45" y="81" on="1"/>
        <pt x="45" y="191" on="1"/>
        <pt x="497" y="191" on="1"/>
        <pt x="497" y="81" on="1"/>
      </contour>
    </TTGlyph>
    <TTGlyph name="product" xMin="10" yMin="-190" xMax="588" yMax="731">
      <contour>
        <pt x="85" y="-190" on="1"/>
        <pt x="85" y="621" on="1"/>
        <pt x="10" y="621" on="1"/>
        <pt x="10" y="731" on="1"/>
        <pt x="588" y="731" on="1"/>
        <pt x="588" y="621" on="1"/>
        <pt x="513" y="621" on="1"/>
        <pt x="513" y="-190" on="1"/>
        <pt x="385" y="-190" on="1"/>
        <pt x="385" y="621" on="1"/>
        <pt x="213" y="621" on="1"/>
        <pt x="213" y="-190" on="1"/>
      </contour>
    </TTGlyph>
    <TTGlyph name="q" xMin="20" yMin="-200" xMax="576" yMax="531">
      <contour>
        <pt x="441" y="-200" on="1"/>
        <pt x="441" y="77" on="1"/>
        <pt x="420" y="36" on="0"/>
        <pt x="344" y="-13" on="0"/>
        <pt x="277" y="-13" on="1"/>
        <pt x="206" y="-13" on="0"/>
        <pt x="89" y="60" on="0"/>
        <pt x="20" y="183" on="0"/>
        <pt x="20" y="258" on="1"/>
        <pt x="20" y="314" on="0"/>
        <pt x="60" y="413" on="0"/>
        <pt x="130" y="488" on="0"/>
        <pt x="223" y="531" on="0"/>
        <pt x="277" y="531" on="1"/>
        <pt x="345" y="531" on="0"/>
        <pt x="422" y="479" on="0"/>
        <pt x="443" y="436" on="1"/>
        <pt x="443" y="520" on="1"/>
        <pt x="576" y="520" on="1"/>
        <pt x="576" y="-200" on="1"/>
      </contour>
      <contour>
        <pt x="299" y="109" on="1"/>
        <pt x="344" y="109" on="0"/>
        <pt x="409" y="150" on="0"/>
        <pt x="445" y="218" on="0"/>
        <pt x="445" y="258" on="1"/>
        <pt x="445" y="299" on="0"/>
        <pt x="409" y="367" on="0"/>
        <pt x="344" y="409" on="0"/>
        <pt x="299" y="409" on="1"/>
        <pt x="256" y="409" on="0"/>
        <pt x="191" y="368" on="0"/>
        <pt x="155" y="300" on="0"/>
        <pt x="155" y="259" on="1"/>
        <pt x="155" y="220" on="0"/>
        <pt x="191" y="151" on="0"/>
        <pt x="256" y="109" on="0"/>
      </contour>
    </TTGlyph>
    <TTGlyph name="question" xMin="24" yMin="-13" xMax="480" yMax="713">
      <contour>
        <pt x="199" y="193" on="1"/>
        <pt x="179" y="403" on="1"/>
        <pt x="197" y="394" on="0"/>
        <pt x="229" y="394" on="1"/>
        <pt x="287" y="394" on="0"/>
        <pt x="345" y="456" on="0"/>
        <pt x="345" y="500" on="1"/>
        <pt x="345" y="536" on="0"/>
        <pt x="301" y="592" on="0"/>
        <pt x="257" y="592" on="1"/>
        <pt x="210" y="592" on="0"/>
        <pt x="159" y="547" on="0"/>
        <pt x="159" y="500" on="1"/>
        <pt x="24" y="500" on="1"/>
        <pt x="24" y="601" on="0"/>
        <pt x="149" y="713" on="0"/>
        <pt x="257" y="713" on="1"/>
        <pt x="330" y="713" on="0"/>
        <pt x="429" y="657" on="0"/>
        <pt x="480" y="563" on="0"/>
        <pt x="480" y="506" on="1"/>
        <pt x="480" y="467" on="0"/>
        <pt x="449" y="382" on="0"/>
        <pt x="372" y="314" on="0"/>
        <pt x="303" y="303" on="1"/>
        <pt x="293" y="193" on="1"/>
      </contour>
      <contour>
        <pt x="244" y="-13" on="1"/>
        <pt x="205" y="-13" on="0"/>
        <pt x="154" y="39" on="0"/>
        <pt x="154" y="75" on="1"/>
        <pt x="154" y="110" on="0"/>
        <pt x="205" y="162" on="0"/>
        <pt x="244" y="162" on="1"/>
        <pt x="283" y="162" on="0"/>
        <pt x="333" y="110" on="0"/>
        <pt x="333" y="75" on="1"/>
        <pt x="333" y="39" on="0"/>
        <pt x="283" y="-13" on="0"/>
      </contour>
    </TTGlyph>
    <TTGlyph name="questiondown" xMin="40" yMin="-191" xMax="496" yMax="535">
      <contour>
        <pt x="276" y="535" on="1"/>
        <pt x="315" y="535" on="0"/>
        <pt x="366" y="483" on="0"/>
        <pt x="366" y="447" on="1"/>
        <pt x="366" y="412" on="0"/>
        <pt x="315" y="360" on="0"/>
        <pt x="276" y="360" on="1"/>
        <pt x="237" y="360" on="0"/>
        <pt x="187" y="412" on="0"/>
        <pt x="187" y="447" on="1"/>
        <pt x="187" y="483" on="0"/>
        <pt x="237" y="535" on="0"/>
      </contour>
      <contour>
        <pt x="321" y="329" on="1"/>
        <pt x="341" y="119" on="1"/>
        <pt x="323" y="128" on="0"/>
        <pt x="291" y="128" on="1"/>
        <pt x="233" y="128" on="0"/>
        <pt x="175" y="66" on="0"/>
        <pt x="175" y="22" on="1"/>
        <pt x="175" y="-14" on="0"/>
        <pt x="219" y="-70" on="0"/>
        <pt x="263" y="-70" on="1"/>
        <pt x="310" y="-70" on="0"/>
        <pt x="361" y="-24" on="0"/>
        <pt x="361" y="22" on="1"/>
        <pt x="496" y="22" on="1"/>
        <pt x="496" y="-78" on="0"/>
        <pt x="371" y="-191" on="0"/>
        <pt x="263" y="-191" on="1"/>
        <pt x="191" y="-191" on="0"/>
        <pt x="91" y="-135" on="0"/>
        <pt x="40" y="-41" on="0"/>
        <pt x="40" y="16" on="1"/>
        <pt x="40" y="55" on="0"/>
        <pt x="71" y="140" on="0"/>
        <pt x="148" y="208" on="0"/>
        <pt x="217" y="219" on="1"/>
        <pt x="227" y="329" on="1"/>
      </contour>
    </TTGlyph>
    <TTGlyph name="quotedbl" xMin="9" yMin="463" xMax="348" yMax="743">
      <component glyphName="quotesingle" x="0" y="0" flags="0x4"/>
      <component glyphName="quotesingle" x="177" y="0" flags="0x4"/>
    </TTGlyph>
    <TTGlyph name="quotedblbase" xMin="30" yMin="-139" xMax="418" yMax="149">
      <component glyphName="comma" x="206" y="0" flags="0x4"/>
      <component glyphName="comma" x="0" y="0" flags="0x4"/>
    </TTGlyph>
    <TTGlyph name="quotedblleft" xMin="25" yMin="454" xMax="417" yMax="742">
      <component glyphName="quoteleft" x="0" y="0" flags="0x4"/>
      <component glyphName="quoteleft" x="210" y="0" flags="0x4"/>
    </TTGlyph>
    <TTGlyph name="quotedblright" xMin="35" yMin="455" xMax="424" yMax="743">
      <component glyphName="quoteright" x="0" y="0" flags="0x4"/>
      <component glyphName="quoteright" x="207" y="0" flags="0x4"/>
    </TTGlyph>
    <TTGlyph name="quoteleft" xMin="25" yMin="454" xMax="207" yMax="742">
      <contour>
        <pt x="125" y="454" on="1"/>
        <pt x="80" y="454" on="0"/>
        <pt x="25" y="516" on="0"/>
        <pt x="25" y="570" on="1"/>
        <pt x="25" y="628" on="0"/>
        <pt x="94" y="713" on="0"/>
        <pt x="149" y="732" on="1"/>
        <pt x="177" y="742" on="1"/>
        <pt x="204" y="675" on="1"/>
        <pt x="176" y="665" on="1"/>
        <pt x="145" y="654" on="0"/>
        <pt x="113" y="630" on="0"/>
        <pt x="106" y="610" on="1"/>
        <pt x="118" y="613" on="0"/>
        <pt x="129" y="613" on="1"/>
        <pt x="159" y="613" on="0"/>
        <pt x="207" y="566" on="0"/>
        <pt x="207" y="533" on="1"/>
        <pt x="207" y="501" on="0"/>
        <pt x="158" y="454" on="0"/>
      </contour>
    </TTGlyph>
</ttFont>
